ply
format ascii 1.0
comment Created by Blender 3.2.2 - www.blender.org
element vertex 392
property float x
property float y
property float z
element face 390
property list uchar uint vertex_indices
end_header
0.600000 1.000000 -4.411765
1.000000 1.000000 -4.411765
1.000000 1.000000 -5.000000
0.600000 1.000000 -5.000000
0.600000 0.600000 -5.000000
1.000000 0.600000 -5.000000
1.000000 0.600000 4.411765
1.000000 1.000000 4.411765
1.000000 1.000000 5.000000
1.000000 0.600000 5.000000
-0.600000 -1.000000 -4.411765
-1.000000 -1.000000 -4.411765
-1.000000 -1.000000 -5.000000
-0.600000 -1.000000 -5.000000
-1.000000 0.600000 -4.411765
-1.000000 1.000000 -4.411765
-1.000000 1.000000 -5.000000
-1.000000 0.600000 -5.000000
-0.600000 0.600000 5.000000
-0.600000 1.000000 5.000000
-1.000000 1.000000 5.000000
-1.000000 0.600000 5.000000
-1.000000 1.000000 4.411765
-1.000000 0.600000 4.411765
-1.000000 1.000000 3.823529
-1.000000 0.600000 3.823529
-1.000000 1.000000 3.235294
-1.000000 0.600000 3.235294
-1.000000 1.000000 2.647059
-1.000000 0.600000 2.647059
-1.000000 1.000000 2.058824
-1.000000 0.600000 2.058824
-1.000000 1.000000 1.470588
-1.000000 0.600000 1.470588
-1.000000 1.000000 0.882353
-1.000000 0.600000 0.882353
-1.000000 1.000000 0.294118
-1.000000 0.600000 0.294118
-1.000000 1.000000 -0.294118
-1.000000 0.600000 -0.294118
-1.000000 1.000000 -0.882353
-1.000000 0.600000 -0.882353
-1.000000 1.000000 -1.470588
-1.000000 0.600000 -1.470588
-1.000000 1.000000 -2.058823
-1.000000 0.600000 -2.058823
-1.000000 1.000000 -2.647059
-1.000000 0.600000 -2.647059
-1.000000 1.000000 -3.235294
-1.000000 0.600000 -3.235294
-1.000000 1.000000 -3.823529
-1.000000 0.600000 -3.823529
-0.600000 -1.000000 5.000000
-1.000000 -1.000000 5.000000
-1.000000 -1.000000 4.411765
-0.600000 -1.000000 4.411765
-1.000000 -1.000000 3.823529
-0.600000 -1.000000 3.823529
-1.000000 -1.000000 3.235294
-0.600000 -1.000000 3.235294
-1.000000 -1.000000 2.647059
-0.600000 -1.000000 2.647059
-1.000000 -1.000000 2.058823
-0.600000 -1.000000 2.058823
-1.000000 -1.000000 1.470588
-0.600000 -1.000000 1.470588
-1.000000 -1.000000 0.882353
-0.600000 -1.000000 0.882353
-1.000000 -1.000000 0.294118
-0.600000 -1.000000 0.294118
-1.000000 -1.000000 -0.294118
-0.600000 -1.000000 -0.294118
-1.000000 -1.000000 -0.882353
-0.600000 -1.000000 -0.882353
-1.000000 -1.000000 -1.470588
-0.600000 -1.000000 -1.470588
-1.000000 -1.000000 -2.058824
-0.600000 -1.000000 -2.058824
-1.000000 -1.000000 -2.647059
-0.600000 -1.000000 -2.647059
-1.000000 -1.000000 -3.235294
-0.600000 -1.000000 -3.235294
-1.000000 -1.000000 -3.823529
-0.600000 -1.000000 -3.823529
1.000000 0.600000 -4.411765
1.000000 1.000000 -3.823529
1.000000 0.600000 -3.823529
1.000000 1.000000 -3.235294
1.000000 0.600000 -3.235294
1.000000 1.000000 -2.647059
1.000000 0.600000 -2.647059
1.000000 1.000000 -2.058824
1.000000 0.600000 -2.058824
1.000000 1.000000 -1.470588
1.000000 0.600000 -1.470588
1.000000 1.000000 -0.882353
1.000000 0.600000 -0.882353
1.000000 1.000000 -0.294118
1.000000 0.600000 -0.294118
1.000000 1.000000 0.294118
1.000000 0.600000 0.294118
1.000000 1.000000 0.882353
1.000000 0.600000 0.882353
1.000000 1.000000 1.470588
1.000000 0.600000 1.470588
1.000000 1.000000 2.058823
1.000000 0.600000 2.058823
1.000000 1.000000 2.647059
1.000000 0.600000 2.647059
1.000000 1.000000 3.235294
1.000000 0.600000 3.235294
1.000000 1.000000 3.823529
1.000000 0.600000 3.823529
0.600000 1.000000 5.000000
0.600000 1.000000 4.411765
0.600000 1.000000 3.823529
0.600000 1.000000 3.235294
0.600000 1.000000 2.647059
0.600000 1.000000 2.058823
0.600000 1.000000 1.470588
0.600000 1.000000 0.882353
0.600000 1.000000 0.294118
0.600000 1.000000 -0.294118
0.600000 1.000000 -0.882353
0.600000 1.000000 -1.470588
0.600000 1.000000 -2.058824
0.600000 1.000000 -2.647059
0.600000 1.000000 -3.235294
0.600000 1.000000 -3.823529
-0.600000 1.000000 -3.823529
-0.600000 1.000000 -4.411765
-0.200000 1.000000 -3.823529
-0.200000 1.000000 -4.411765
0.200000 1.000000 -3.823529
0.200000 1.000000 -4.411765
-0.600000 1.000000 -3.235294
-0.200000 1.000000 -3.235294
0.200000 1.000000 -3.235294
-0.600000 1.000000 -2.647059
-0.200000 1.000000 -2.647059
0.200000 1.000000 -2.647059
-0.600000 1.000000 -2.058823
-0.200000 1.000000 -2.058824
0.200000 1.000000 -2.058824
-0.600000 1.000000 -1.470588
-0.200000 1.000000 -1.470588
0.200000 1.000000 -1.470588
-0.600000 1.000000 -0.882353
-0.200000 1.000000 -0.882353
0.200000 1.000000 -0.882353
-0.600000 1.000000 -0.294118
-0.200000 1.000000 -0.294118
0.200000 1.000000 -0.294118
-0.600000 1.000000 0.294118
-0.200000 1.000000 0.294118
0.200000 1.000000 0.294118
-0.600000 1.000000 0.882353
-0.200000 1.000000 0.882353
0.200000 1.000000 0.882353
-0.600000 1.000000 1.470588
-0.200000 1.000000 1.470588
0.200000 1.000000 1.470588
-0.600000 1.000000 2.058824
-0.200000 1.000000 2.058824
0.200000 1.000000 2.058823
-0.600000 1.000000 2.647059
-0.200000 1.000000 2.647059
0.200000 1.000000 2.647059
-0.600000 1.000000 3.235294
-0.200000 1.000000 3.235294
0.200000 1.000000 3.235294
-0.600000 1.000000 3.823529
-0.200000 1.000000 3.823529
0.200000 1.000000 3.823529
-0.600000 1.000000 4.411765
-0.200000 1.000000 4.411765
0.200000 1.000000 4.411765
-0.200000 1.000000 5.000000
0.200000 1.000000 5.000000
1.000000 -1.000000 -3.823529
0.600000 -1.000000 -3.823529
0.600000 -1.000000 -4.411765
1.000000 -1.000000 -4.411765
0.200000 -1.000000 -3.823529
0.200000 -1.000000 -4.411765
-0.200000 -1.000000 -3.823529
-0.200000 -1.000000 -4.411765
1.000000 -1.000000 -3.235294
0.600000 -1.000000 -3.235294
0.200000 -1.000000 -3.235294
-0.200000 -1.000000 -3.235294
1.000000 -1.000000 -2.647059
0.600000 -1.000000 -2.647059
0.200000 -1.000000 -2.647059
-0.200000 -1.000000 -2.647059
1.000000 -1.000000 -2.058823
0.600000 -1.000000 -2.058823
0.200000 -1.000000 -2.058824
-0.200000 -1.000000 -2.058824
1.000000 -1.000000 -1.470588
0.600000 -1.000000 -1.470588
0.200000 -1.000000 -1.470588
-0.200000 -1.000000 -1.470588
1.000000 -1.000000 -0.882353
0.600000 -1.000000 -0.882353
0.200000 -1.000000 -0.882353
-0.200000 -1.000000 -0.882353
1.000000 -1.000000 -0.294118
0.600000 -1.000000 -0.294118
0.200000 -1.000000 -0.294118
-0.200000 -1.000000 -0.294118
1.000000 -1.000000 0.294118
0.600000 -1.000000 0.294118
0.200000 -1.000000 0.294118
-0.200000 -1.000000 0.294118
1.000000 -1.000000 0.882353
0.600000 -1.000000 0.882353
0.200000 -1.000000 0.882353
-0.200000 -1.000000 0.882353
1.000000 -1.000000 1.470588
0.600000 -1.000000 1.470588
0.200000 -1.000000 1.470588
-0.200000 -1.000000 1.470588
1.000000 -1.000000 2.058824
0.600000 -1.000000 2.058824
0.200000 -1.000000 2.058824
-0.200000 -1.000000 2.058823
1.000000 -1.000000 2.647059
0.600000 -1.000000 2.647059
0.200000 -1.000000 2.647059
-0.200000 -1.000000 2.647059
1.000000 -1.000000 3.235294
0.600000 -1.000000 3.235294
0.200000 -1.000000 3.235294
-0.200000 -1.000000 3.235294
1.000000 -1.000000 3.823529
0.600000 -1.000000 3.823529
0.200000 -1.000000 3.823529
-0.200000 -1.000000 3.823529
1.000000 -1.000000 4.411765
0.600000 -1.000000 4.411765
0.200000 -1.000000 4.411765
-0.200000 -1.000000 4.411765
1.000000 -1.000000 5.000000
0.600000 -1.000000 5.000000
0.200000 -1.000000 5.000000
-0.200000 -1.000000 5.000000
0.600000 0.600000 5.000000
0.200000 0.600000 5.000000
-0.200000 0.600000 5.000000
0.600000 -1.000000 -5.000000
1.000000 -1.000000 -5.000000
0.200000 -1.000000 -5.000000
-0.200000 -1.000000 -5.000000
-0.600000 1.000000 -5.000000
-0.600000 0.600000 -5.000000
-0.200000 1.000000 -5.000000
-0.200000 0.600000 -5.000000
0.200000 1.000000 -5.000000
0.200000 0.600000 -5.000000
0.200000 -0.600000 -5.000000
0.600000 -0.600000 -5.000000
0.200000 -0.200000 -5.000000
0.600000 -0.200000 -5.000000
0.200000 0.200000 -5.000000
0.600000 0.200000 -5.000000
-0.200000 -0.600000 -5.000000
-0.200000 -0.200000 -5.000000
-0.200000 0.200000 -5.000000
-0.600000 -0.600000 -5.000000
-0.600000 -0.200000 -5.000000
-0.600000 0.200000 -5.000000
-1.000000 -0.600000 -5.000000
-1.000000 -0.200000 -5.000000
-1.000000 0.200000 -5.000000
-0.200000 -0.600000 5.000000
-0.600000 -0.600000 5.000000
-0.200000 -0.200000 5.000000
-0.600000 -0.200000 5.000000
-0.200000 0.200000 5.000000
-0.600000 0.200000 5.000000
0.200000 -0.600000 5.000000
0.200000 -0.200000 5.000000
0.200000 0.200000 5.000000
0.600000 -0.600000 5.000000
0.600000 -0.200000 5.000000
0.600000 0.200000 5.000000
1.000000 -0.600000 5.000000
1.000000 -0.200000 5.000000
1.000000 0.200000 5.000000
1.000000 -0.600000 3.823529
1.000000 -0.600000 4.411765
1.000000 -0.200000 3.823529
1.000000 -0.200000 4.411765
1.000000 0.200000 3.823529
1.000000 0.200000 4.411765
1.000000 -0.600000 3.235294
1.000000 -0.200000 3.235294
1.000000 0.200000 3.235294
1.000000 -0.600000 2.647059
1.000000 -0.200000 2.647059
1.000000 0.200000 2.647059
1.000000 -0.600000 2.058824
1.000000 -0.200000 2.058824
1.000000 0.200000 2.058823
1.000000 -0.600000 1.470588
1.000000 -0.200000 1.470588
1.000000 0.200000 1.470588
1.000000 -0.600000 0.882353
1.000000 -0.200000 0.882353
1.000000 0.200000 0.882353
1.000000 -0.600000 0.294118
1.000000 -0.200000 0.294118
1.000000 0.200000 0.294118
1.000000 -0.600000 -0.294118
1.000000 -0.200000 -0.294118
1.000000 0.200000 -0.294118
1.000000 -0.600000 -0.882353
1.000000 -0.200000 -0.882353
1.000000 0.200000 -0.882353
1.000000 -0.600000 -1.470588
1.000000 -0.200000 -1.470588
1.000000 0.200000 -1.470588
1.000000 -0.600000 -2.058823
1.000000 -0.200000 -2.058824
1.000000 0.200000 -2.058824
1.000000 -0.600000 -2.647059
1.000000 -0.200000 -2.647059
1.000000 0.200000 -2.647059
1.000000 -0.600000 -3.235294
1.000000 -0.200000 -3.235294
1.000000 0.200000 -3.235294
1.000000 -0.600000 -3.823529
1.000000 -0.200000 -3.823529
1.000000 0.200000 -3.823529
1.000000 -0.600000 -4.411765
1.000000 -0.200000 -4.411765
1.000000 0.200000 -4.411765
1.000000 -0.600000 -5.000000
1.000000 -0.200000 -5.000000
1.000000 0.200000 -5.000000
-1.000000 -0.600000 -3.823529
-1.000000 -0.600000 -4.411765
-1.000000 -0.200000 -3.823529
-1.000000 -0.200000 -4.411765
-1.000000 0.200000 -3.823529
-1.000000 0.200000 -4.411765
-1.000000 -0.600000 -3.235294
-1.000000 -0.200000 -3.235294
-1.000000 0.200000 -3.235294
-1.000000 -0.600000 -2.647059
-1.000000 -0.200000 -2.647059
-1.000000 0.200000 -2.647059
-1.000000 -0.600000 -2.058824
-1.000000 -0.200000 -2.058824
-1.000000 0.200000 -2.058823
-1.000000 -0.600000 -1.470588
-1.000000 -0.200000 -1.470588
-1.000000 0.200000 -1.470588
-1.000000 -0.600000 -0.882353
-1.000000 -0.200000 -0.882353
-1.000000 0.200000 -0.882353
-1.000000 -0.600000 -0.294118
-1.000000 -0.200000 -0.294118
-1.000000 0.200000 -0.294118
-1.000000 -0.600000 0.294118
-1.000000 -0.200000 0.294118
-1.000000 0.200000 0.294118
-1.000000 -0.600000 0.882353
-1.000000 -0.200000 0.882353
-1.000000 0.200000 0.882353
-1.000000 -0.600000 1.470588
-1.000000 -0.200000 1.470588
-1.000000 0.200000 1.470588
-1.000000 -0.600000 2.058823
-1.000000 -0.200000 2.058824
-1.000000 0.200000 2.058824
-1.000000 -0.600000 2.647059
-1.000000 -0.200000 2.647059
-1.000000 0.200000 2.647059
-1.000000 -0.600000 3.235294
-1.000000 -0.200000 3.235294
-1.000000 0.200000 3.235294
-1.000000 -0.600000 3.823529
-1.000000 -0.200000 3.823529
-1.000000 0.200000 3.823529
-1.000000 -0.600000 4.411765
-1.000000 -0.200000 4.411765
-1.000000 0.200000 4.411765
-1.000000 -0.600000 5.000000
-1.000000 -0.200000 5.000000
-1.000000 0.200000 5.000000
4 0 1 2 3
4 4 3 2 5
4 6 7 8 9
4 10 11 12 13
4 14 15 16 17
4 18 19 20 21
4 21 20 22 23
4 23 22 24 25
4 25 24 26 27
4 27 26 28 29
4 29 28 30 31
4 31 30 32 33
4 33 32 34 35
4 35 34 36 37
4 37 36 38 39
4 39 38 40 41
4 41 40 42 43
4 43 42 44 45
4 45 44 46 47
4 47 46 48 49
4 49 48 50 51
4 51 50 15 14
4 52 53 54 55
4 55 54 56 57
4 57 56 58 59
4 59 58 60 61
4 61 60 62 63
4 63 62 64 65
4 65 64 66 67
4 67 66 68 69
4 69 68 70 71
4 71 70 72 73
4 73 72 74 75
4 75 74 76 77
4 77 76 78 79
4 79 78 80 81
4 81 80 82 83
4 83 82 11 10
4 5 2 1 84
4 84 1 85 86
4 86 85 87 88
4 88 87 89 90
4 90 89 91 92
4 92 91 93 94
4 94 93 95 96
4 96 95 97 98
4 98 97 99 100
4 100 99 101 102
4 102 101 103 104
4 104 103 105 106
4 106 105 107 108
4 108 107 109 110
4 110 109 111 112
4 112 111 7 6
4 113 8 7 114
4 114 7 111 115
4 115 111 109 116
4 116 109 107 117
4 117 107 105 118
4 118 105 103 119
4 119 103 101 120
4 120 101 99 121
4 121 99 97 122
4 122 97 95 123
4 123 95 93 124
4 124 93 91 125
4 125 91 89 126
4 126 89 87 127
4 127 87 85 128
4 128 85 1 0
4 50 129 130 15
4 129 131 132 130
4 131 133 134 132
4 133 128 0 134
4 48 135 129 50
4 135 136 131 129
4 136 137 133 131
4 137 127 128 133
4 46 138 135 48
4 138 139 136 135
4 139 140 137 136
4 140 126 127 137
4 44 141 138 46
4 141 142 139 138
4 142 143 140 139
4 143 125 126 140
4 42 144 141 44
4 144 145 142 141
4 145 146 143 142
4 146 124 125 143
4 40 147 144 42
4 147 148 145 144
4 148 149 146 145
4 149 123 124 146
4 38 150 147 40
4 150 151 148 147
4 151 152 149 148
4 152 122 123 149
4 36 153 150 38
4 153 154 151 150
4 154 155 152 151
4 155 121 122 152
4 34 156 153 36
4 156 157 154 153
4 157 158 155 154
4 158 120 121 155
4 32 159 156 34
4 159 160 157 156
4 160 161 158 157
4 161 119 120 158
4 30 162 159 32
4 162 163 160 159
4 163 164 161 160
4 164 118 119 161
4 28 165 162 30
4 165 166 163 162
4 166 167 164 163
4 167 117 118 164
4 26 168 165 28
4 168 169 166 165
4 169 170 167 166
4 170 116 117 167
4 24 171 168 26
4 171 172 169 168
4 172 173 170 169
4 173 115 116 170
4 22 174 171 24
4 174 175 172 171
4 175 176 173 172
4 176 114 115 173
4 20 19 174 22
4 19 177 175 174
4 177 178 176 175
4 178 113 114 176
4 179 180 181 182
4 180 183 184 181
4 183 185 186 184
4 185 83 10 186
4 187 188 180 179
4 188 189 183 180
4 189 190 185 183
4 190 81 83 185
4 191 192 188 187
4 192 193 189 188
4 193 194 190 189
4 194 79 81 190
4 195 196 192 191
4 196 197 193 192
4 197 198 194 193
4 198 77 79 194
4 199 200 196 195
4 200 201 197 196
4 201 202 198 197
4 202 75 77 198
4 203 204 200 199
4 204 205 201 200
4 205 206 202 201
4 206 73 75 202
4 207 208 204 203
4 208 209 205 204
4 209 210 206 205
4 210 71 73 206
4 211 212 208 207
4 212 213 209 208
4 213 214 210 209
4 214 69 71 210
4 215 216 212 211
4 216 217 213 212
4 217 218 214 213
4 218 67 69 214
4 219 220 216 215
4 220 221 217 216
4 221 222 218 217
4 222 65 67 218
4 223 224 220 219
4 224 225 221 220
4 225 226 222 221
4 226 63 65 222
4 227 228 224 223
4 228 229 225 224
4 229 230 226 225
4 230 61 63 226
4 231 232 228 227
4 232 233 229 228
4 233 234 230 229
4 234 59 61 230
4 235 236 232 231
4 236 237 233 232
4 237 238 234 233
4 238 57 59 234
4 239 240 236 235
4 240 241 237 236
4 241 242 238 237
4 242 55 57 238
4 243 244 240 239
4 244 245 241 240
4 245 246 242 241
4 246 52 55 242
4 9 8 113 247
4 247 113 178 248
4 248 178 177 249
4 249 177 19 18
4 182 181 250 251
4 181 184 252 250
4 184 186 253 252
4 186 10 13 253
4 17 16 254 255
4 255 254 256 257
4 257 256 258 259
4 259 258 3 4
4 15 130 254 16
4 130 132 256 254
4 132 134 258 256
4 134 0 3 258
4 252 260 261 250
4 260 262 263 261
4 262 264 265 263
4 264 259 4 265
4 253 266 260 252
4 266 267 262 260
4 267 268 264 262
4 268 257 259 264
4 13 269 266 253
4 269 270 267 266
4 270 271 268 267
4 271 255 257 268
4 12 272 269 13
4 272 273 270 269
4 273 274 271 270
4 274 17 255 271
4 246 275 276 52
4 275 277 278 276
4 277 279 280 278
4 279 249 18 280
4 245 281 275 246
4 281 282 277 275
4 282 283 279 277
4 283 248 249 279
4 244 284 281 245
4 284 285 282 281
4 285 286 283 282
4 286 247 248 283
4 243 287 284 244
4 287 288 285 284
4 288 289 286 285
4 289 9 247 286
4 235 290 291 239
4 290 292 293 291
4 292 294 295 293
4 294 112 6 295
4 231 296 290 235
4 296 297 292 290
4 297 298 294 292
4 298 110 112 294
4 227 299 296 231
4 299 300 297 296
4 300 301 298 297
4 301 108 110 298
4 223 302 299 227
4 302 303 300 299
4 303 304 301 300
4 304 106 108 301
4 219 305 302 223
4 305 306 303 302
4 306 307 304 303
4 307 104 106 304
4 215 308 305 219
4 308 309 306 305
4 309 310 307 306
4 310 102 104 307
4 211 311 308 215
4 311 312 309 308
4 312 313 310 309
4 313 100 102 310
4 207 314 311 211
4 314 315 312 311
4 315 316 313 312
4 316 98 100 313
4 203 317 314 207
4 317 318 315 314
4 318 319 316 315
4 319 96 98 316
4 199 320 317 203
4 320 321 318 317
4 321 322 319 318
4 322 94 96 319
4 195 323 320 199
4 323 324 321 320
4 324 325 322 321
4 325 92 94 322
4 191 326 323 195
4 326 327 324 323
4 327 328 325 324
4 328 90 92 325
4 187 329 326 191
4 329 330 327 326
4 330 331 328 327
4 331 88 90 328
4 179 332 329 187
4 332 333 330 329
4 333 334 331 330
4 334 86 88 331
4 182 335 332 179
4 335 336 333 332
4 336 337 334 333
4 337 84 86 334
4 251 338 335 182
4 338 339 336 335
4 339 340 337 336
4 340 5 84 337
4 82 341 342 11
4 341 343 344 342
4 343 345 346 344
4 345 51 14 346
4 80 347 341 82
4 347 348 343 341
4 348 349 345 343
4 349 49 51 345
4 78 350 347 80
4 350 351 348 347
4 351 352 349 348
4 352 47 49 349
4 76 353 350 78
4 353 354 351 350
4 354 355 352 351
4 355 45 47 352
4 74 356 353 76
4 356 357 354 353
4 357 358 355 354
4 358 43 45 355
4 72 359 356 74
4 359 360 357 356
4 360 361 358 357
4 361 41 43 358
4 70 362 359 72
4 362 363 360 359
4 363 364 361 360
4 364 39 41 361
4 68 365 362 70
4 365 366 363 362
4 366 367 364 363
4 367 37 39 364
4 66 368 365 68
4 368 369 366 365
4 369 370 367 366
4 370 35 37 367
4 64 371 368 66
4 371 372 369 368
4 372 373 370 369
4 373 33 35 370
4 62 374 371 64
4 374 375 372 371
4 375 376 373 372
4 376 31 33 373
4 60 377 374 62
4 377 378 375 374
4 378 379 376 375
4 379 29 31 376
4 58 380 377 60
4 380 381 378 377
4 381 382 379 378
4 382 27 29 379
4 56 383 380 58
4 383 384 381 380
4 384 385 382 381
4 385 25 27 382
4 54 386 383 56
4 386 387 384 383
4 387 388 385 384
4 388 23 25 385
4 53 389 386 54
4 389 390 387 386
4 390 391 388 387
4 391 21 23 388
4 52 276 389 53
4 276 278 390 389
4 278 280 391 390
4 280 18 21 391
4 11 342 272 12
4 342 344 273 272
4 344 346 274 273
4 346 14 17 274
4 239 291 287 243
4 291 293 288 287
4 293 295 289 288
4 295 6 9 289
4 250 261 338 251
4 261 263 339 338
4 263 265 340 339
4 265 4 5 340
