ply
format ascii 1.0
comment VCGLIB generated
element vertex 189
property float x
property float y
property float z
element face 374
property list uchar int vertex_indices
end_header
0 -1 0 
0.723607 -0.44722 0.525725 
-0.276388 -0.44722 0.850649 
-0.894426 -0.447216 0 
-0.276388 -0.44722 -0.850649 
0.723607 -0.44722 -0.525725 
0.276388 0.44722 0.850649 
-0.723607 0.44722 0.525725 
-0.723607 0.44722 -0.525725 
0.276388 0.44722 -0.850649 
0.894426 0.447216 0 
0.07619 0.985144 -0.055355 
-0.232822 -0.657519 0.716563 
-0.162456 -0.850654 0.499995 
-0.077607 -0.96795 0.238853 
0.203181 -0.96795 0.147618 
0.425323 -0.850654 0.309011 
0.609547 -0.657519 0.442856 
0.531941 -0.502302 0.681712 
0.262869 -0.525738 0.809012 
-0.029639 -0.502302 0.864184 
0.812729 -0.502301 -0.295238 
0.850648 -0.525736 0 
0.812729 -0.502301 0.295238 
0.203181 -0.96795 -0.147618 
0.425323 -0.850654 -0.309011 
0.609547 -0.657519 -0.442856 
-0.753442 -0.657515 0 
-0.52573 -0.850652 0 
-0.251147 -0.967949 0 
-0.483971 -0.502302 0.716565 
-0.688189 -0.525736 0.499997 
-0.831051 -0.502299 0.238853 
-0.232822 -0.657519 -0.716563 
-0.162456 -0.850654 -0.499995 
-0.077607 -0.96795 -0.238853 
-0.831051 -0.502299 -0.238853 
-0.688189 -0.525736 -0.499997 
-0.483971 -0.502302 -0.716565 
-0.029639 -0.502302 -0.864184 
0.262869 -0.525738 -0.809012 
0.531941 -0.502302 -0.681712 
0.956626 0.251149 0.147618 
0.951058 -0 0.309013 
0.860698 -0.251151 0.442858 
0.860698 -0.251151 -0.442858 
0.951058 0 -0.309013 
0.956626 0.251149 -0.147618 
0.155215 0.251152 0.955422 
0 -0 1 
-0.155215 -0.251152 0.955422 
0.687159 -0.251152 0.681715 
0.587786 0 0.809017 
0.436007 0.251152 0.864188 
-0.860698 0.251151 0.442858 
-0.951058 -0 0.309013 
-0.956626 -0.251149 0.147618 
-0.436007 -0.251152 0.864188 
-0.587786 0 0.809017 
-0.687159 0.251152 0.681715 
-0.687159 0.251152 -0.681715 
-0.587786 -0 -0.809017 
-0.436007 -0.251152 -0.864188 
-0.956626 -0.251149 -0.147618 
-0.951058 0 -0.309013 
-0.860698 0.251151 -0.442858 
0.436007 0.251152 -0.864188 
0.587786 -0 -0.809017 
0.687159 -0.251152 -0.681715 
-0.155215 -0.251152 -0.955422 
0 0 -1 
0.155215 0.251152 -0.955422 
0.831051 0.502299 0.238853 
0.688189 0.525736 0.499997 
0.483971 0.502302 0.716565 
0.029639 0.502302 0.864184 
-0.262869 0.525738 0.809012 
-0.531941 0.502302 0.681712 
-0.812729 0.502301 0.295238 
-0.850648 0.525736 0 
-0.812729 0.502301 -0.295238 
-0.531941 0.502302 -0.681712 
-0.262869 0.525738 -0.809012 
0.029639 0.502302 -0.864184 
0.483971 0.502302 -0.716565 
0.688189 0.525736 -0.499997 
0.831051 0.502299 -0.238853 
0.077607 0.96795 0.238853 
0.162456 0.850654 0.499995 
0.232822 0.657519 0.716563 
0.753442 0.657515 0 
0.52573 0.850652 0 
0.152724 0.975377 -0.055355 
-0.203181 0.96795 0.147618 
-0.425323 0.850654 0.309011 
-0.609547 0.657519 0.442856 
-0.203181 0.96795 -0.147618 
-0.425323 0.850654 -0.309011 
-0.609547 0.657519 -0.442856 
0.09984 0.975377 -0.128142 
0.162456 0.850654 -0.499995 
0.232822 0.657519 -0.716563 
0.3618 0.894429 -0.262863 
0.638194 0.72361 -0.262864 
0.447209 0.723612 -0.525728 
-0.138197 0.89443 -0.425319 
-0.05279 0.723612 -0.688185 
-0.361804 0.723612 -0.587778 
-0.44721 0.894429 0 
-0.670817 0.723611 -0.162457 
-0.670817 0.723611 0.162457 
-0.138197 0.89443 0.425319 
-0.361804 0.723612 0.587778 
-0.05279 0.723612 0.688185 
0.3618 0.894429 0.262863 
0.447209 0.723612 0.525728 
0.638194 0.72361 0.262864 
0.861804 0.276396 -0.425322 
0.809019 0 -0.587782 
0.670821 0.276397 -0.688189 
-0.138199 0.276397 -0.951055 
-0.309016 -0 -0.951057 
-0.447215 0.276397 -0.850649 
-0.947213 0.276396 -0.162458 
-1 1e-06 0 
-0.947213 0.276397 0.162458 
-0.447216 0.276397 0.850648 
-0.309017 -1e-06 0.951056 
-0.138199 0.276397 0.951055 
0.67082 0.276396 0.68819 
0.809019 -2e-06 0.587783 
0.861804 0.276394 0.425323 
0.309017 -0 -0.951056 
0.447216 -0.276398 -0.850648 
0.138199 -0.276398 -0.951055 
-0.809018 -0 -0.587783 
-0.670819 -0.276397 -0.688191 
-0.861803 -0.276396 -0.425324 
-0.809018 0 0.587783 
-0.861803 -0.276396 0.425324 
-0.670819 -0.276397 0.688191 
0.309017 0 0.951056 
0.138199 -0.276398 0.951055 
0.447216 -0.276398 0.850648 
1 0 0 
0.947213 -0.276396 0.162458 
0.947213 -0.276396 -0.162458 
0.361803 -0.723612 -0.587779 
0.138197 -0.894429 -0.425321 
0.052789 -0.723611 -0.688186 
-0.447211 -0.723612 -0.525727 
-0.361801 -0.894429 -0.262863 
-0.638195 -0.723609 -0.262863 
-0.638195 -0.723609 0.262864 
-0.361801 -0.894428 0.262864 
-0.447211 -0.72361 0.525729 
0.670817 -0.723611 -0.162457 
0.670818 -0.72361 0.162458 
0.447211 -0.894428 1e-06 
0.05279 -0.723612 0.688185 
0.138199 -0.894429 0.425321 
0.361805 -0.723611 0.587779 
0.76238 4.450533 -0.850381 
0.685847 4.4603 -0.850381 
0.709496 4.450533 -0.923168 
0.170192 1.376397 -0.219885 
0.237931 1.762526 -0.308222 
0.305671 2.148654 -0.396558 
0.373411 2.534783 -0.484894 
0.44115 2.920911 -0.57323 
0.50889 3.30704 -0.661566 
0.57663 3.693168 -0.749903 
0.644369 4.079296 -0.838239 
0.697253 4.079296 -0.765452 
0.629514 3.693168 -0.677115 
0.561774 3.307039 -0.588779 
0.494034 2.920911 -0.500443 
0.426295 2.534783 -0.412107 
0.358555 2.148654 -0.323771 
0.290816 1.762526 -0.235434 
0.223076 1.376397 -0.147098 
0.146542 1.386164 -0.147098 
0.214282 1.772293 -0.235434 
0.282021 2.158421 -0.323771 
0.349761 2.54455 -0.412107 
0.417501 2.930678 -0.500443 
0.48524 3.316807 -0.588779 
0.55298 3.702935 -0.677115 
0.620719 4.089063 -0.765452 
3 0 15 14 
3 1 17 23 
3 0 14 29 
3 0 29 35 
3 0 35 24 
3 1 23 44 
3 2 20 50 
3 3 32 56 
3 4 38 62 
3 5 41 68 
3 1 44 51 
3 2 50 57 
3 3 56 63 
3 4 62 69 
3 5 68 45 
3 6 74 89 
3 7 77 95 
3 8 80 98 
3 9 83 101 
3 10 86 90 
3 172 162 173 
3 91 102 92 
3 90 103 91 
3 92 102 99 
3 102 100 99 
3 91 103 102 
3 103 104 102 
3 102 104 100 
3 104 101 100 
3 90 86 103 
3 86 85 103 
3 103 85 104 
3 85 84 104 
3 104 84 101 
3 84 9 101 
3 99 96 11 
3 100 105 99 
3 101 106 100 
3 99 105 96 
3 105 97 96 
3 100 106 105 
3 106 107 105 
3 105 107 97 
3 107 98 97 
3 101 83 106 
3 83 82 106 
3 106 82 107 
3 82 81 107 
3 107 81 98 
3 81 8 98 
3 96 93 11 
3 97 108 96 
3 98 109 97 
3 96 108 93 
3 108 94 93 
3 97 109 108 
3 109 110 108 
3 108 110 94 
3 110 95 94 
3 98 80 109 
3 80 79 109 
3 109 79 110 
3 79 78 110 
3 110 78 95 
3 78 7 95 
3 93 87 11 
3 94 111 93 
3 95 112 94 
3 93 111 87 
3 111 88 87 
3 94 112 111 
3 112 113 111 
3 111 113 88 
3 113 89 88 
3 95 77 112 
3 77 76 112 
3 112 76 113 
3 76 75 113 
3 113 75 89 
3 75 6 89 
3 87 92 11 
3 88 114 87 
3 89 115 88 
3 87 114 92 
3 114 91 92 
3 88 115 114 
3 115 116 114 
3 114 116 91 
3 116 90 91 
3 89 74 115 
3 74 73 115 
3 115 73 116 
3 73 72 116 
3 116 72 90 
3 72 10 90 
3 47 86 10 
3 46 117 47 
3 45 118 46 
3 47 117 86 
3 117 85 86 
3 46 118 117 
3 118 119 117 
3 117 119 85 
3 119 84 85 
3 45 68 118 
3 68 67 118 
3 118 67 119 
3 67 66 119 
3 119 66 84 
3 66 9 84 
3 71 83 9 
3 70 120 71 
3 69 121 70 
3 71 120 83 
3 120 82 83 
3 70 121 120 
3 121 122 120 
3 120 122 82 
3 122 81 82 
3 69 62 121 
3 62 61 121 
3 121 61 122 
3 61 60 122 
3 122 60 81 
3 60 8 81 
3 65 80 8 
3 64 123 65 
3 63 124 64 
3 65 123 80 
3 123 79 80 
3 64 124 123 
3 124 125 123 
3 123 125 79 
3 125 78 79 
3 63 56 124 
3 56 55 124 
3 124 55 125 
3 55 54 125 
3 125 54 78 
3 54 7 78 
3 59 77 7 
3 58 126 59 
3 57 127 58 
3 59 126 77 
3 126 76 77 
3 58 127 126 
3 127 128 126 
3 126 128 76 
3 128 75 76 
3 57 50 127 
3 50 49 127 
3 127 49 128 
3 49 48 128 
3 128 48 75 
3 48 6 75 
3 53 74 6 
3 52 129 53 
3 51 130 52 
3 53 129 74 
3 129 73 74 
3 52 130 129 
3 130 131 129 
3 129 131 73 
3 131 72 73 
3 51 44 130 
3 44 43 130 
3 130 43 131 
3 43 42 131 
3 131 42 72 
3 42 10 72 
3 66 71 9 
3 67 132 66 
3 68 133 67 
3 66 132 71 
3 132 70 71 
3 67 133 132 
3 133 134 132 
3 132 134 70 
3 134 69 70 
3 68 41 133 
3 41 40 133 
3 133 40 134 
3 40 39 134 
3 134 39 69 
3 39 4 69 
3 60 65 8 
3 61 135 60 
3 62 136 61 
3 60 135 65 
3 135 64 65 
3 61 136 135 
3 136 137 135 
3 135 137 64 
3 137 63 64 
3 62 38 136 
3 38 37 136 
3 136 37 137 
3 37 36 137 
3 137 36 63 
3 36 3 63 
3 54 59 7 
3 55 138 54 
3 56 139 55 
3 54 138 59 
3 138 58 59 
3 55 139 138 
3 139 140 138 
3 138 140 58 
3 140 57 58 
3 56 32 139 
3 32 31 139 
3 139 31 140 
3 31 30 140 
3 140 30 57 
3 30 2 57 
3 48 53 6 
3 49 141 48 
3 50 142 49 
3 48 141 53 
3 141 52 53 
3 49 142 141 
3 142 143 141 
3 141 143 52 
3 143 51 52 
3 50 20 142 
3 20 19 142 
3 142 19 143 
3 19 18 143 
3 143 18 51 
3 18 1 51 
3 42 47 10 
3 43 144 42 
3 44 145 43 
3 42 144 47 
3 144 46 47 
3 43 145 144 
3 145 146 144 
3 144 146 46 
3 146 45 46 
3 44 23 145 
3 23 22 145 
3 145 22 146 
3 22 21 146 
3 146 21 45 
3 21 5 45 
3 26 41 5 
3 25 147 26 
3 24 148 25 
3 26 147 41 
3 147 40 41 
3 25 148 147 
3 148 149 147 
3 147 149 40 
3 149 39 40 
3 24 35 148 
3 35 34 148 
3 148 34 149 
3 34 33 149 
3 149 33 39 
3 33 4 39 
3 33 38 4 
3 34 150 33 
3 35 151 34 
3 33 150 38 
3 150 37 38 
3 34 151 150 
3 151 152 150 
3 150 152 37 
3 152 36 37 
3 35 29 151 
3 29 28 151 
3 151 28 152 
3 28 27 152 
3 152 27 36 
3 27 3 36 
3 27 32 3 
3 28 153 27 
3 29 154 28 
3 27 153 32 
3 153 31 32 
3 28 154 153 
3 154 155 153 
3 153 155 31 
3 155 30 31 
3 29 14 154 
3 14 13 154 
3 154 13 155 
3 13 12 155 
3 155 12 30 
3 12 2 30 
3 21 26 5 
3 22 156 21 
3 23 157 22 
3 21 156 26 
3 156 25 26 
3 22 157 156 
3 157 158 156 
3 156 158 25 
3 158 24 25 
3 23 17 157 
3 17 16 157 
3 157 16 158 
3 16 15 158 
3 158 15 24 
3 15 0 24 
3 12 20 2 
3 13 159 12 
3 14 160 13 
3 12 159 20 
3 159 19 20 
3 13 160 159 
3 160 161 159 
3 159 161 19 
3 161 18 19 
3 14 15 160 
3 15 16 160 
3 160 16 161 
3 16 17 161 
3 161 17 18 
3 17 1 18 
3 162 164 163 
3 172 163 164 
3 173 163 188 
3 92 181 11 
3 180 182 181 
3 179 183 182 
3 178 184 183 
3 177 185 184 
3 176 186 185 
3 175 187 186 
3 174 188 187 
3 99 181 165 
3 165 182 166 
3 166 183 167 
3 167 184 168 
3 168 185 169 
3 169 186 170 
3 170 187 171 
3 171 188 172 
3 99 180 92 
3 165 179 180 
3 166 178 179 
3 167 177 178 
3 168 176 177 
3 169 175 176 
3 170 174 175 
3 171 173 174 
3 172 164 162 
3 172 188 163 
3 173 162 163 
3 92 180 181 
3 180 179 182 
3 179 178 183 
3 178 177 184 
3 177 176 185 
3 176 175 186 
3 175 174 187 
3 174 173 188 
3 99 11 181 
3 165 181 182 
3 166 182 183 
3 167 183 184 
3 168 184 185 
3 169 185 186 
3 170 186 187 
3 171 187 188 
3 99 165 180 
3 165 166 179 
3 166 167 178 
3 167 168 177 
3 168 169 176 
3 169 170 175 
3 170 171 174 
3 171 172 173 
