ply
format ascii 1.0
comment VCGLIB generated
element vertex 183
property float x
property float y
property float z
element face 362
property list uchar int vertex_indices
property list uchar float texcoord
property uchar red
property uchar green
property uchar blue
property uchar alpha
end_header
0 -1 0 
-0.723607 -0.44722 -0.525725 
0.276388 -0.44722 -0.850649 
0.894426 -0.447216 0 
0.276388 -0.44722 0.850649 
-0.723607 -0.44722 0.525725 
-0.276388 0.44722 -0.850649 
0.723607 0.44722 -0.525725 
0.723607 0.44722 0.525725 
-0.276388 0.44722 0.850649 
-0.894426 0.447216 0 
0.044017 0.993057 0 
0.232822 -0.657519 -0.716563 
0.162456 -0.850654 -0.499995 
0.077607 -0.96795 -0.238853 
-0.203181 -0.96795 -0.147618 
-0.425323 -0.850654 -0.309011 
-0.609547 -0.657519 -0.442856 
-0.531941 -0.502302 -0.681712 
-0.262869 -0.525738 -0.809012 
0.029639 -0.502302 -0.864184 
-0.812729 -0.502301 0.295238 
-0.850648 -0.525736 0 
-0.812729 -0.502301 -0.295238 
-0.203181 -0.96795 0.147618 
-0.425323 -0.850654 0.309011 
-0.609547 -0.657519 0.442856 
0.753442 -0.657515 0 
0.52573 -0.850652 0 
0.251147 -0.967949 0 
0.483971 -0.502302 -0.716565 
0.688189 -0.525736 -0.499997 
0.831051 -0.502299 -0.238853 
0.232822 -0.657519 0.716563 
0.162456 -0.850654 0.499995 
0.077607 -0.96795 0.238853 
0.831051 -0.502299 0.238853 
0.688189 -0.525736 0.499997 
0.483971 -0.502302 0.716565 
0.029639 -0.502302 0.864184 
-0.262869 -0.525738 0.809012 
-0.531941 -0.502302 0.681712 
-0.956626 0.251149 -0.147618 
-0.951058 -0 -0.309013 
-0.860698 -0.251151 -0.442858 
-0.860698 -0.251151 0.442858 
-0.951058 0 0.309013 
-0.956626 0.251149 0.147618 
-0.155215 0.251152 -0.955422 
0 -0 -1 
0.155215 -0.251152 -0.955422 
-0.687159 -0.251152 -0.681715 
-0.587786 0 -0.809017 
-0.436007 0.251152 -0.864188 
0.860698 0.251151 -0.442858 
0.951058 -0 -0.309013 
0.956626 -0.251149 -0.147618 
0.436007 -0.251152 -0.864188 
0.587786 0 -0.809017 
0.687159 0.251152 -0.681715 
0.687159 0.251152 0.681715 
0.587786 -0 0.809017 
0.436007 -0.251152 0.864188 
0.956626 -0.251149 0.147618 
0.951058 0 0.309013 
0.860698 0.251151 0.442858 
-0.436007 0.251152 0.864188 
-0.587786 -0 0.809017 
-0.687159 -0.251152 0.681715 
0.155215 -0.251152 0.955422 
0 0 1 
-0.155215 0.251152 0.955422 
-0.831051 0.502299 -0.238853 
-0.688189 0.525736 -0.499997 
-0.483971 0.502302 -0.716565 
-0.029639 0.502302 -0.864184 
0.262869 0.525738 -0.809012 
0.531941 0.502302 -0.681712 
0.812729 0.502301 -0.295238 
0.850648 0.525736 0 
0.812729 0.502301 0.295238 
0.531941 0.502302 0.681712 
0.262869 0.525738 0.809012 
-0.029639 0.502302 0.864184 
-0.483971 0.502302 0.716565 
-0.688189 0.525736 0.499997 
-0.831051 0.502299 0.238853 
-0.077607 0.96795 -0.238853 
-0.162456 0.850654 -0.499995 
-0.232822 0.657519 -0.716563 
-0.753442 0.657515 0 
-0.52573 0.850652 0 
-0.251147 0.967949 0 
0.181172 0.971421 -0.099648 
0.425323 0.850654 -0.309011 
0.609547 0.657519 -0.442856 
0.181172 0.971421 0.099648 
0.425323 0.850654 0.309011 
0.609547 0.657519 0.442856 
-0.077607 0.96795 0.238853 
-0.162456 0.850654 0.499995 
-0.232822 0.657519 0.716563 
-0.3618 0.894429 0.262863 
-0.638194 0.72361 0.262864 
-0.447209 0.723612 0.525728 
0.138197 0.89443 0.425319 
0.05279 0.723612 0.688185 
0.361804 0.723612 0.587778 
0.44721 0.894429 0 
0.670817 0.723611 0.162457 
0.670817 0.723611 -0.162457 
0.138197 0.89443 -0.425319 
0.361804 0.723612 -0.587778 
0.05279 0.723612 -0.688185 
-0.3618 0.894429 -0.262863 
-0.447209 0.723612 -0.525728 
-0.638194 0.72361 -0.262864 
-0.861804 0.276396 0.425322 
-0.809019 0 0.587782 
-0.670821 0.276397 0.688189 
0.138199 0.276397 0.951055 
0.309016 -0 0.951057 
0.447215 0.276397 0.850649 
0.947213 0.276396 0.162458 
1 1e-06 -0 
0.947213 0.276397 -0.162458 
0.447216 0.276397 -0.850648 
0.309017 -1e-06 -0.951056 
0.138199 0.276397 -0.951055 
-0.67082 0.276396 -0.68819 
-0.809019 -2e-06 -0.587783 
-0.861804 0.276394 -0.425323 
-0.309017 -0 0.951056 
-0.447216 -0.276398 0.850648 
-0.138199 -0.276398 0.951055 
0.809018 -0 0.587783 
0.670819 -0.276397 0.688191 
0.861803 -0.276396 0.425324 
0.809018 0 -0.587783 
0.861803 -0.276396 -0.425324 
0.670819 -0.276397 -0.688191 
-0.309017 0 -0.951056 
-0.138199 -0.276398 -0.951055 
-0.447216 -0.276398 -0.850648 
-1 0 0 
-0.947213 -0.276396 -0.162458 
-0.947213 -0.276396 0.162458 
-0.361803 -0.723612 0.587779 
-0.138197 -0.894429 0.425321 
-0.052789 -0.723611 0.688186 
0.447211 -0.723612 0.525727 
0.361801 -0.894429 0.262863 
0.638195 -0.723609 0.262863 
0.638195 -0.723609 -0.262864 
0.361801 -0.894428 -0.262864 
0.447211 -0.72361 -0.525729 
-0.670817 -0.723611 0.162457 
-0.670818 -0.72361 -0.162458 
-0.447211 -0.894428 -1e-06 
-0.05279 -0.723612 -0.688185 
-0.138199 -0.894429 -0.425321 
-0.361805 -0.723611 -0.587779 
0.762518 5.547935 0 
0.899674 5.5263 -0.099648 
0.899674 5.5263 0.099648 
0.88152 6.30233 0 
1.018676 6.280694 -0.099648 
1.018676 6.280694 0.099648 
0.300923 1.730568 -0.099648 
0.420673 2.489714 -0.099648 
0.540423 3.248861 -0.099648 
0.660173 4.008007 -0.099648 
0.779924 4.767154 -0.099648 
0.779924 4.767154 0.099648 
0.660173 4.008007 0.099648 
0.540423 3.248861 0.099648 
0.420673 2.489714 0.099648 
0.300923 1.730568 0.099648 
0.642768 4.788789 0 
0.523018 4.029643 0 
0.403268 3.270496 0 
0.283517 2.51135 0 
0.163767 1.752203 0 
3 0 15 14 6 0.181819 0.000000 0.204546 0.039365 0.159092 0.039365 204 204 204 255 
3 1 17 23 6 0.272728 0.157461 0.295455 0.118096 0.318182 0.157461 204 204 204 255 
3 0 14 29 6 0.909091 0.000000 0.931818 0.039365 0.886364 0.039365 204 204 204 255 
3 0 29 35 6 0.727273 0.000000 0.750000 0.039365 0.704546 0.039365 204 204 204 255 
3 0 35 24 6 0.545455 0.000000 0.568182 0.039365 0.522728 0.039365 204 204 204 255 
3 1 23 44 6 0.272728 0.157461 0.318182 0.157461 0.295455 0.196826 204 204 204 255 
3 2 20 50 6 0.090910 0.157461 0.136364 0.157461 0.113637 0.196826 204 204 204 255 
3 3 32 56 6 0.818182 0.157461 0.863636 0.157461 0.840909 0.196826 204 204 204 255 
3 4 38 62 6 0.636364 0.157461 0.681818 0.157461 0.659091 0.196826 204 204 204 255 
3 5 41 68 6 0.454546 0.157461 0.500000 0.157461 0.477273 0.196826 204 204 204 255 
3 1 44 51 6 0.272728 0.157461 0.295455 0.196826 0.250001 0.196826 204 204 204 255 
3 2 50 57 6 0.090910 0.157461 0.113637 0.196826 0.068182 0.196826 204 204 204 255 
3 3 56 63 6 0.818182 0.157461 0.840909 0.196826 0.795455 0.196826 204 204 204 255 
3 4 62 69 6 0.636364 0.157461 0.659091 0.196826 0.613637 0.196826 204 204 204 255 
3 5 68 45 6 0.454546 0.157461 0.477273 0.196826 0.431819 0.196826 204 204 204 255 
3 6 74 89 6 0.181819 0.314921 0.227273 0.314921 0.204546 0.354286 204 204 204 255 
3 7 77 95 6 0.000000 0.314921 0.045455 0.314921 0.022727 0.354286 204 204 204 255 
3 8 80 98 6 0.727273 0.314921 0.772727 0.314921 0.750000 0.354286 204 204 204 255 
3 9 83 101 6 0.545455 0.314921 0.590909 0.314921 0.568182 0.354286 204 204 204 255 
3 10 86 90 6 0.363637 0.314921 0.409091 0.314921 0.386364 0.354286 204 204 204 255 
3 92 99 11 6 0.431819 0.433017 0.477273 0.433017 0.454546 0.472382 204 204 204 255 
3 91 102 92 6 0.409091 0.393651 0.454546 0.393651 0.431819 0.433017 204 204 204 255 
3 90 103 91 6 0.386364 0.354286 0.431819 0.354286 0.409091 0.393651 204 204 204 255 
3 92 102 99 6 0.431819 0.433017 0.454546 0.393651 0.477273 0.433017 204 204 204 255 
3 102 100 99 6 0.454546 0.393651 0.500000 0.393651 0.477273 0.433017 204 204 204 255 
3 91 103 102 6 0.409091 0.393651 0.431819 0.354286 0.454546 0.393651 204 204 204 255 
3 103 104 102 6 0.431819 0.354286 0.477273 0.354286 0.454546 0.393651 204 204 204 255 
3 102 104 100 6 0.454546 0.393651 0.477273 0.354286 0.500000 0.393651 204 204 204 255 
3 104 101 100 6 0.477273 0.354286 0.522728 0.354286 0.500000 0.393651 204 204 204 255 
3 90 86 103 6 0.386364 0.354286 0.409091 0.314921 0.431819 0.354286 204 204 204 255 
3 86 85 103 6 0.409091 0.314921 0.454546 0.314921 0.431819 0.354286 204 204 204 255 
3 103 85 104 6 0.431819 0.354286 0.454546 0.314921 0.477273 0.354286 204 204 204 255 
3 85 84 104 6 0.454546 0.314921 0.500000 0.314921 0.477273 0.354286 204 204 204 255 
3 104 84 101 6 0.477273 0.354286 0.500000 0.314921 0.522728 0.354286 204 204 204 255 
3 84 9 101 6 0.500000 0.314921 0.545455 0.314921 0.522728 0.354286 204 204 204 255 
3 99 96 11 6 0.613637 0.433017 0.659091 0.433017 0.636364 0.472382 204 204 204 255 
3 100 105 99 6 0.590909 0.393651 0.636364 0.393651 0.613637 0.433017 204 204 204 255 
3 101 106 100 6 0.568182 0.354286 0.613637 0.354286 0.590909 0.393651 204 204 204 255 
3 99 105 96 6 0.613637 0.433017 0.636364 0.393651 0.659091 0.433017 204 204 204 255 
3 105 97 96 6 0.636364 0.393651 0.681818 0.393651 0.659091 0.433017 204 204 204 255 
3 100 106 105 6 0.590909 0.393651 0.613637 0.354286 0.636364 0.393651 204 204 204 255 
3 106 107 105 6 0.613637 0.354286 0.659091 0.354286 0.636364 0.393651 204 204 204 255 
3 105 107 97 6 0.636364 0.393651 0.659091 0.354286 0.681818 0.393651 204 204 204 255 
3 107 98 97 6 0.659091 0.354286 0.704546 0.354286 0.681818 0.393651 204 204 204 255 
3 101 83 106 6 0.568182 0.354286 0.590909 0.314921 0.613637 0.354286 204 204 204 255 
3 83 82 106 6 0.590909 0.314921 0.636364 0.314921 0.613637 0.354286 204 204 204 255 
3 106 82 107 6 0.613637 0.354286 0.636364 0.314921 0.659091 0.354286 204 204 204 255 
3 82 81 107 6 0.636364 0.314921 0.681818 0.314921 0.659091 0.354286 204 204 204 255 
3 107 81 98 6 0.659091 0.354286 0.681818 0.314921 0.704546 0.354286 204 204 204 255 
3 81 8 98 6 0.681818 0.314921 0.727273 0.314921 0.704546 0.354286 204 204 204 255 
3 173 172 163 6 0.795455 0.433017 0.840909 0.433017 0.840909 0.433017 204 204 204 255 
3 173 163 164 6 0.795455 0.433017 0.840909 0.433017 0.795455 0.433017 204 204 204 255 
3 97 108 96 6 0.772727 0.393651 0.818182 0.393651 0.795455 0.433017 204 204 204 255 
3 98 109 97 6 0.750000 0.354286 0.795455 0.354286 0.772727 0.393651 204 204 204 255 
3 96 108 93 6 0.795455 0.433017 0.818182 0.393651 0.840909 0.433017 204 204 204 255 
3 108 94 93 6 0.818182 0.393651 0.863636 0.393651 0.840909 0.433017 204 204 204 255 
3 97 109 108 6 0.772727 0.393651 0.795455 0.354286 0.818182 0.393651 204 204 204 255 
3 109 110 108 6 0.795455 0.354286 0.840909 0.354286 0.818182 0.393651 204 204 204 255 
3 108 110 94 6 0.818182 0.393651 0.840909 0.354286 0.863636 0.393651 204 204 204 255 
3 110 95 94 6 0.840909 0.354286 0.886364 0.354286 0.863636 0.393651 204 204 204 255 
3 98 80 109 6 0.750000 0.354286 0.772727 0.314921 0.795455 0.354286 204 204 204 255 
3 80 79 109 6 0.772727 0.314921 0.818182 0.314921 0.795455 0.354286 204 204 204 255 
3 109 79 110 6 0.795455 0.354286 0.818182 0.314921 0.840909 0.354286 204 204 204 255 
3 79 78 110 6 0.818182 0.314921 0.863636 0.314921 0.840909 0.354286 204 204 204 255 
3 110 78 95 6 0.840909 0.354286 0.863636 0.314921 0.886364 0.354286 204 204 204 255 
3 78 7 95 6 0.863636 0.314921 0.909091 0.314921 0.886364 0.354286 204 204 204 255 
3 93 87 11 6 0.068182 0.433017 0.113637 0.433017 0.090910 0.472382 204 204 204 255 
3 94 111 93 6 0.045455 0.393651 0.090910 0.393651 0.068182 0.433017 204 204 204 255 
3 95 112 94 6 0.022727 0.354286 0.068182 0.354286 0.045455 0.393651 204 204 204 255 
3 93 111 87 6 0.068182 0.433017 0.090910 0.393651 0.113637 0.433017 204 204 204 255 
3 111 88 87 6 0.090910 0.393651 0.136365 0.393651 0.113637 0.433017 204 204 204 255 
3 94 112 111 6 0.045455 0.393651 0.068182 0.354286 0.090910 0.393651 204 204 204 255 
3 112 113 111 6 0.068182 0.354286 0.113637 0.354286 0.090910 0.393651 204 204 204 255 
3 111 113 88 6 0.090910 0.393651 0.113637 0.354286 0.136365 0.393651 204 204 204 255 
3 113 89 88 6 0.113637 0.354286 0.159092 0.354286 0.136365 0.393651 204 204 204 255 
3 95 77 112 6 0.022727 0.354286 0.045455 0.314921 0.068182 0.354286 204 204 204 255 
3 77 76 112 6 0.045455 0.314921 0.090909 0.314921 0.068182 0.354286 204 204 204 255 
3 112 76 113 6 0.068182 0.354286 0.090909 0.314921 0.113637 0.354286 204 204 204 255 
3 76 75 113 6 0.090909 0.314921 0.136364 0.314921 0.113637 0.354286 204 204 204 255 
3 113 75 89 6 0.113637 0.354286 0.136364 0.314921 0.159092 0.354286 204 204 204 255 
3 75 6 89 6 0.136364 0.314921 0.181819 0.314921 0.159092 0.354286 204 204 204 255 
3 87 92 11 6 0.250001 0.433017 0.295455 0.433017 0.272728 0.472382 204 204 204 255 
3 88 114 87 6 0.227273 0.393651 0.272728 0.393651 0.250001 0.433017 204 204 204 255 
3 89 115 88 6 0.204546 0.354286 0.250001 0.354286 0.227273 0.393651 204 204 204 255 
3 87 114 92 6 0.250001 0.433017 0.272728 0.393651 0.295455 0.433017 204 204 204 255 
3 114 91 92 6 0.272728 0.393651 0.318182 0.393651 0.295455 0.433017 204 204 204 255 
3 88 115 114 6 0.227273 0.393651 0.250001 0.354286 0.272728 0.393651 204 204 204 255 
3 115 116 114 6 0.250001 0.354286 0.295455 0.354286 0.272728 0.393651 204 204 204 255 
3 114 116 91 6 0.272728 0.393651 0.295455 0.354286 0.318182 0.393651 204 204 204 255 
3 116 90 91 6 0.295455 0.354286 0.340910 0.354286 0.318182 0.393651 204 204 204 255 
3 89 74 115 6 0.204546 0.354286 0.227273 0.314921 0.250001 0.354286 204 204 204 255 
3 74 73 115 6 0.227273 0.314921 0.272728 0.314921 0.250001 0.354286 204 204 204 255 
3 115 73 116 6 0.250001 0.354286 0.272728 0.314921 0.295455 0.354286 204 204 204 255 
3 73 72 116 6 0.272728 0.314921 0.318182 0.314921 0.295455 0.354286 204 204 204 255 
3 116 72 90 6 0.295455 0.354286 0.318182 0.314921 0.340910 0.354286 204 204 204 255 
3 72 10 90 6 0.318182 0.314921 0.363637 0.314921 0.340910 0.354286 204 204 204 255 
3 47 86 10 6 0.386364 0.275556 0.409091 0.314921 0.363637 0.314921 204 204 204 255 
3 46 117 47 6 0.409091 0.236191 0.431819 0.275556 0.386364 0.275556 204 204 204 255 
3 45 118 46 6 0.431819 0.196826 0.454546 0.236191 0.409091 0.236191 204 204 204 255 
3 47 117 86 6 0.386364 0.275556 0.431819 0.275556 0.409091 0.314921 204 204 204 255 
3 117 85 86 6 0.431819 0.275556 0.454546 0.314921 0.409091 0.314921 204 204 204 255 
3 46 118 117 6 0.409091 0.236191 0.454546 0.236191 0.431819 0.275556 204 204 204 255 
3 118 119 117 6 0.454546 0.236191 0.477273 0.275556 0.431819 0.275556 204 204 204 255 
3 117 119 85 6 0.431819 0.275556 0.477273 0.275556 0.454546 0.314921 204 204 204 255 
3 119 84 85 6 0.477273 0.275556 0.500000 0.314921 0.454546 0.314921 204 204 204 255 
3 45 68 118 6 0.431819 0.196826 0.477273 0.196826 0.454546 0.236191 204 204 204 255 
3 68 67 118 6 0.477273 0.196826 0.500000 0.236191 0.454546 0.236191 204 204 204 255 
3 118 67 119 6 0.454546 0.236191 0.500000 0.236191 0.477273 0.275556 204 204 204 255 
3 67 66 119 6 0.500000 0.236191 0.522728 0.275556 0.477273 0.275556 204 204 204 255 
3 119 66 84 6 0.477273 0.275556 0.522728 0.275556 0.500000 0.314921 204 204 204 255 
3 66 9 84 6 0.522728 0.275556 0.545455 0.314921 0.500000 0.314921 204 204 204 255 
3 71 83 9 6 0.568182 0.275556 0.590909 0.314921 0.545455 0.314921 204 204 204 255 
3 70 120 71 6 0.590909 0.236191 0.613637 0.275556 0.568182 0.275556 204 204 204 255 
3 69 121 70 6 0.613637 0.196826 0.636364 0.236191 0.590909 0.236191 204 204 204 255 
3 71 120 83 6 0.568182 0.275556 0.613637 0.275556 0.590909 0.314921 204 204 204 255 
3 120 82 83 6 0.613637 0.275556 0.636364 0.314921 0.590909 0.314921 204 204 204 255 
3 70 121 120 6 0.590909 0.236191 0.636364 0.236191 0.613637 0.275556 204 204 204 255 
3 121 122 120 6 0.636364 0.236191 0.659091 0.275556 0.613637 0.275556 204 204 204 255 
3 120 122 82 6 0.613637 0.275556 0.659091 0.275556 0.636364 0.314921 204 204 204 255 
3 122 81 82 6 0.659091 0.275556 0.681818 0.314921 0.636364 0.314921 204 204 204 255 
3 69 62 121 6 0.613637 0.196826 0.659091 0.196826 0.636364 0.236191 204 204 204 255 
3 62 61 121 6 0.659091 0.196826 0.681818 0.236191 0.636364 0.236191 204 204 204 255 
3 121 61 122 6 0.636364 0.236191 0.681818 0.236191 0.659091 0.275556 204 204 204 255 
3 61 60 122 6 0.681818 0.236191 0.704546 0.275556 0.659091 0.275556 204 204 204 255 
3 122 60 81 6 0.659091 0.275556 0.704546 0.275556 0.681818 0.314921 204 204 204 255 
3 60 8 81 6 0.704546 0.275556 0.727273 0.314921 0.681818 0.314921 204 204 204 255 
3 65 80 8 6 0.750000 0.275556 0.772727 0.314921 0.727273 0.314921 204 204 204 255 
3 64 123 65 6 0.772727 0.236191 0.795455 0.275556 0.750000 0.275556 204 204 204 255 
3 63 124 64 6 0.795455 0.196826 0.818182 0.236191 0.772727 0.236191 204 204 204 255 
3 65 123 80 6 0.750000 0.275556 0.795455 0.275556 0.772727 0.314921 204 204 204 255 
3 123 79 80 6 0.795455 0.275556 0.818182 0.314921 0.772727 0.314921 204 204 204 255 
3 64 124 123 6 0.772727 0.236191 0.818182 0.236191 0.795455 0.275556 204 204 204 255 
3 124 125 123 6 0.818182 0.236191 0.840909 0.275556 0.795455 0.275556 204 204 204 255 
3 123 125 79 6 0.795455 0.275556 0.840909 0.275556 0.818182 0.314921 204 204 204 255 
3 125 78 79 6 0.840909 0.275556 0.863636 0.314921 0.818182 0.314921 204 204 204 255 
3 63 56 124 6 0.795455 0.196826 0.840909 0.196826 0.818182 0.236191 204 204 204 255 
3 56 55 124 6 0.840909 0.196826 0.863636 0.236191 0.818182 0.236191 204 204 204 255 
3 124 55 125 6 0.818182 0.236191 0.863636 0.236191 0.840909 0.275556 204 204 204 255 
3 55 54 125 6 0.863636 0.236191 0.886364 0.275556 0.840909 0.275556 204 204 204 255 
3 125 54 78 6 0.840909 0.275556 0.886364 0.275556 0.863636 0.314921 204 204 204 255 
3 54 7 78 6 0.886364 0.275556 0.909091 0.314921 0.863636 0.314921 204 204 204 255 
3 59 77 7 6 0.022727 0.275556 0.045455 0.314921 0.000000 0.314921 204 204 204 255 
3 58 126 59 6 0.045455 0.236191 0.068182 0.275556 0.022727 0.275556 204 204 204 255 
3 57 127 58 6 0.068182 0.196826 0.090910 0.236191 0.045455 0.236191 204 204 204 255 
3 59 126 77 6 0.022727 0.275556 0.068182 0.275556 0.045455 0.314921 204 204 204 255 
3 126 76 77 6 0.068182 0.275556 0.090909 0.314921 0.045455 0.314921 204 204 204 255 
3 58 127 126 6 0.045455 0.236191 0.090910 0.236191 0.068182 0.275556 204 204 204 255 
3 127 128 126 6 0.090910 0.236191 0.113637 0.275556 0.068182 0.275556 204 204 204 255 
3 126 128 76 6 0.068182 0.275556 0.113637 0.275556 0.090909 0.314921 204 204 204 255 
3 128 75 76 6 0.113637 0.275556 0.136364 0.314921 0.090909 0.314921 204 204 204 255 
3 57 50 127 6 0.068182 0.196826 0.113637 0.196826 0.090910 0.236191 204 204 204 255 
3 50 49 127 6 0.113637 0.196826 0.136364 0.236191 0.090910 0.236191 204 204 204 255 
3 127 49 128 6 0.090910 0.236191 0.136364 0.236191 0.113637 0.275556 204 204 204 255 
3 49 48 128 6 0.136364 0.236191 0.159092 0.275556 0.113637 0.275556 204 204 204 255 
3 128 48 75 6 0.113637 0.275556 0.159092 0.275556 0.136364 0.314921 204 204 204 255 
3 48 6 75 6 0.159092 0.275556 0.181819 0.314921 0.136364 0.314921 204 204 204 255 
3 53 74 6 6 0.204546 0.275556 0.227273 0.314921 0.181819 0.314921 204 204 204 255 
3 52 129 53 6 0.227273 0.236191 0.250001 0.275556 0.204546 0.275556 204 204 204 255 
3 51 130 52 6 0.250001 0.196826 0.272728 0.236191 0.227273 0.236191 204 204 204 255 
3 53 129 74 6 0.204546 0.275556 0.250001 0.275556 0.227273 0.314921 204 204 204 255 
3 129 73 74 6 0.250001 0.275556 0.272728 0.314921 0.227273 0.314921 204 204 204 255 
3 52 130 129 6 0.227273 0.236191 0.272728 0.236191 0.250001 0.275556 204 204 204 255 
3 130 131 129 6 0.272728 0.236191 0.295455 0.275556 0.250001 0.275556 204 204 204 255 
3 129 131 73 6 0.250001 0.275556 0.295455 0.275556 0.272728 0.314921 204 204 204 255 
3 131 72 73 6 0.295455 0.275556 0.318182 0.314921 0.272728 0.314921 204 204 204 255 
3 51 44 130 6 0.250001 0.196826 0.295455 0.196826 0.272728 0.236191 204 204 204 255 
3 44 43 130 6 0.295455 0.196826 0.318182 0.236191 0.272728 0.236191 204 204 204 255 
3 130 43 131 6 0.272728 0.236191 0.318182 0.236191 0.295455 0.275556 204 204 204 255 
3 43 42 131 6 0.318182 0.236191 0.340910 0.275556 0.295455 0.275556 204 204 204 255 
3 131 42 72 6 0.295455 0.275556 0.340910 0.275556 0.318182 0.314921 204 204 204 255 
3 42 10 72 6 0.340910 0.275556 0.363637 0.314921 0.318182 0.314921 204 204 204 255 
3 66 71 9 6 0.522728 0.275556 0.568182 0.275556 0.545455 0.314921 204 204 204 255 
3 67 132 66 6 0.500000 0.236191 0.545455 0.236191 0.522728 0.275556 204 204 204 255 
3 68 133 67 6 0.477273 0.196826 0.522728 0.196826 0.500000 0.236191 204 204 204 255 
3 66 132 71 6 0.522728 0.275556 0.545455 0.236191 0.568182 0.275556 204 204 204 255 
3 132 70 71 6 0.545455 0.236191 0.590909 0.236191 0.568182 0.275556 204 204 204 255 
3 67 133 132 6 0.500000 0.236191 0.522728 0.196826 0.545455 0.236191 204 204 204 255 
3 133 134 132 6 0.522728 0.196826 0.568182 0.196826 0.545455 0.236191 204 204 204 255 
3 132 134 70 6 0.545455 0.236191 0.568182 0.196826 0.590909 0.236191 204 204 204 255 
3 134 69 70 6 0.568182 0.196826 0.613637 0.196826 0.590909 0.236191 204 204 204 255 
3 68 41 133 6 0.477273 0.196826 0.500000 0.157461 0.522728 0.196826 204 204 204 255 
3 41 40 133 6 0.500000 0.157461 0.545455 0.157461 0.522728 0.196826 204 204 204 255 
3 133 40 134 6 0.522728 0.196826 0.545455 0.157461 0.568182 0.196826 204 204 204 255 
3 40 39 134 6 0.545455 0.157461 0.590909 0.157461 0.568182 0.196826 204 204 204 255 
3 134 39 69 6 0.568182 0.196826 0.590909 0.157461 0.613637 0.196826 204 204 204 255 
3 39 4 69 6 0.590909 0.157461 0.636364 0.157461 0.613637 0.196826 204 204 204 255 
3 60 65 8 6 0.704546 0.275556 0.750000 0.275556 0.727273 0.314921 204 204 204 255 
3 61 135 60 6 0.681818 0.236191 0.727273 0.236191 0.704546 0.275556 204 204 204 255 
3 62 136 61 6 0.659091 0.196826 0.704546 0.196826 0.681818 0.236191 204 204 204 255 
3 60 135 65 6 0.704546 0.275556 0.727273 0.236191 0.750000 0.275556 204 204 204 255 
3 135 64 65 6 0.727273 0.236191 0.772727 0.236191 0.750000 0.275556 204 204 204 255 
3 61 136 135 6 0.681818 0.236191 0.704546 0.196826 0.727273 0.236191 204 204 204 255 
3 136 137 135 6 0.704546 0.196826 0.750000 0.196826 0.727273 0.236191 204 204 204 255 
3 135 137 64 6 0.727273 0.236191 0.750000 0.196826 0.772727 0.236191 204 204 204 255 
3 137 63 64 6 0.750000 0.196826 0.795455 0.196826 0.772727 0.236191 204 204 204 255 
3 62 38 136 6 0.659091 0.196826 0.681818 0.157461 0.704546 0.196826 204 204 204 255 
3 38 37 136 6 0.681818 0.157461 0.727273 0.157461 0.704546 0.196826 204 204 204 255 
3 136 37 137 6 0.704546 0.196826 0.727273 0.157461 0.750000 0.196826 204 204 204 255 
3 37 36 137 6 0.727273 0.157461 0.772727 0.157461 0.750000 0.196826 204 204 204 255 
3 137 36 63 6 0.750000 0.196826 0.772727 0.157461 0.795455 0.196826 204 204 204 255 
3 36 3 63 6 0.772727 0.157461 0.818182 0.157461 0.795455 0.196826 204 204 204 255 
3 54 59 7 6 0.886364 0.275556 0.931818 0.275556 0.909091 0.314921 204 204 204 255 
3 55 138 54 6 0.863636 0.236191 0.909091 0.236191 0.886364 0.275556 204 204 204 255 
3 56 139 55 6 0.840909 0.196826 0.886364 0.196826 0.863636 0.236191 204 204 204 255 
3 54 138 59 6 0.886364 0.275556 0.909091 0.236191 0.931818 0.275556 204 204 204 255 
3 138 58 59 6 0.909091 0.236191 0.954545 0.236191 0.931818 0.275556 204 204 204 255 
3 55 139 138 6 0.863636 0.236191 0.886364 0.196826 0.909091 0.236191 204 204 204 255 
3 139 140 138 6 0.886364 0.196826 0.931818 0.196826 0.909091 0.236191 204 204 204 255 
3 138 140 58 6 0.909091 0.236191 0.931818 0.196826 0.954545 0.236191 204 204 204 255 
3 140 57 58 6 0.931818 0.196826 0.977273 0.196826 0.954545 0.236191 204 204 204 255 
3 56 32 139 6 0.840909 0.196826 0.863636 0.157461 0.886364 0.196826 204 204 204 255 
3 32 31 139 6 0.863636 0.157461 0.909091 0.157461 0.886364 0.196826 204 204 204 255 
3 139 31 140 6 0.886364 0.196826 0.909091 0.157461 0.931818 0.196826 204 204 204 255 
3 31 30 140 6 0.909091 0.157461 0.954545 0.157461 0.931818 0.196826 204 204 204 255 
3 140 30 57 6 0.931818 0.196826 0.954545 0.157461 0.977273 0.196826 204 204 204 255 
3 30 2 57 6 0.954545 0.157461 1.000000 0.157461 0.977273 0.196826 204 204 204 255 
3 48 53 6 6 0.159092 0.275556 0.204546 0.275556 0.181819 0.314921 204 204 204 255 
3 49 141 48 6 0.136364 0.236191 0.181819 0.236191 0.159092 0.275556 204 204 204 255 
3 50 142 49 6 0.113637 0.196826 0.159092 0.196826 0.136364 0.236191 204 204 204 255 
3 48 141 53 6 0.159092 0.275556 0.181819 0.236191 0.204546 0.275556 204 204 204 255 
3 141 52 53 6 0.181819 0.236191 0.227273 0.236191 0.204546 0.275556 204 204 204 255 
3 49 142 141 6 0.136364 0.236191 0.159092 0.196826 0.181819 0.236191 204 204 204 255 
3 142 143 141 6 0.159092 0.196826 0.204546 0.196826 0.181819 0.236191 204 204 204 255 
3 141 143 52 6 0.181819 0.236191 0.204546 0.196826 0.227273 0.236191 204 204 204 255 
3 143 51 52 6 0.204546 0.196826 0.250001 0.196826 0.227273 0.236191 204 204 204 255 
3 50 20 142 6 0.113637 0.196826 0.136364 0.157461 0.159092 0.196826 204 204 204 255 
3 20 19 142 6 0.136364 0.157461 0.181819 0.157461 0.159092 0.196826 204 204 204 255 
3 142 19 143 6 0.159092 0.196826 0.181819 0.157461 0.204546 0.196826 204 204 204 255 
3 19 18 143 6 0.181819 0.157461 0.227274 0.157461 0.204546 0.196826 204 204 204 255 
3 143 18 51 6 0.204546 0.196826 0.227274 0.157461 0.250001 0.196826 204 204 204 255 
3 18 1 51 6 0.227274 0.157461 0.272728 0.157461 0.250001 0.196826 204 204 204 255 
3 42 47 10 6 0.340910 0.275556 0.386364 0.275556 0.363637 0.314921 204 204 204 255 
3 43 144 42 6 0.318182 0.236191 0.363637 0.236191 0.340910 0.275556 204 204 204 255 
3 44 145 43 6 0.295455 0.196826 0.340910 0.196826 0.318182 0.236191 204 204 204 255 
3 42 144 47 6 0.340910 0.275556 0.363637 0.236191 0.386364 0.275556 204 204 204 255 
3 144 46 47 6 0.363637 0.236191 0.409091 0.236191 0.386364 0.275556 204 204 204 255 
3 43 145 144 6 0.318182 0.236191 0.340910 0.196826 0.363637 0.236191 204 204 204 255 
3 145 146 144 6 0.340910 0.196826 0.386364 0.196826 0.363637 0.236191 204 204 204 255 
3 144 146 46 6 0.363637 0.236191 0.386364 0.196826 0.409091 0.236191 204 204 204 255 
3 146 45 46 6 0.386364 0.196826 0.431819 0.196826 0.409091 0.236191 204 204 204 255 
3 44 23 145 6 0.295455 0.196826 0.318182 0.157461 0.340910 0.196826 204 204 204 255 
3 23 22 145 6 0.318182 0.157461 0.363637 0.157461 0.340910 0.196826 204 204 204 255 
3 145 22 146 6 0.340910 0.196826 0.363637 0.157461 0.386364 0.196826 204 204 204 255 
3 22 21 146 6 0.363637 0.157461 0.409092 0.157461 0.386364 0.196826 204 204 204 255 
3 146 21 45 6 0.386364 0.196826 0.409092 0.157461 0.431819 0.196826 204 204 204 255 
3 21 5 45 6 0.409092 0.157461 0.454546 0.157461 0.431819 0.196826 204 204 204 255 
3 26 41 5 6 0.477273 0.118096 0.500000 0.157461 0.454546 0.157461 204 204 204 255 
3 25 147 26 6 0.500000 0.078731 0.522728 0.118096 0.477273 0.118096 204 204 204 255 
3 24 148 25 6 0.522728 0.039365 0.545455 0.078731 0.500000 0.078731 204 204 204 255 
3 26 147 41 6 0.477273 0.118096 0.522728 0.118096 0.500000 0.157461 204 204 204 255 
3 147 40 41 6 0.522728 0.118096 0.545455 0.157461 0.500000 0.157461 204 204 204 255 
3 25 148 147 6 0.500000 0.078731 0.545455 0.078731 0.522728 0.118096 204 204 204 255 
3 148 149 147 6 0.545455 0.078731 0.568182 0.118096 0.522728 0.118096 204 204 204 255 
3 147 149 40 6 0.522728 0.118096 0.568182 0.118096 0.545455 0.157461 204 204 204 255 
3 149 39 40 6 0.568182 0.118096 0.590909 0.157461 0.545455 0.157461 204 204 204 255 
3 24 35 148 6 0.522728 0.039365 0.568182 0.039365 0.545455 0.078731 204 204 204 255 
3 35 34 148 6 0.568182 0.039365 0.590909 0.078731 0.545455 0.078731 204 204 204 255 
3 148 34 149 6 0.545455 0.078731 0.590909 0.078731 0.568182 0.118096 204 204 204 255 
3 34 33 149 6 0.590909 0.078731 0.613637 0.118096 0.568182 0.118096 204 204 204 255 
3 149 33 39 6 0.568182 0.118096 0.613637 0.118096 0.590909 0.157461 204 204 204 255 
3 33 4 39 6 0.613637 0.118096 0.636364 0.157461 0.590909 0.157461 204 204 204 255 
3 33 38 4 6 0.659091 0.118096 0.681818 0.157461 0.636364 0.157461 204 204 204 255 
3 34 150 33 6 0.681818 0.078731 0.704546 0.118096 0.659091 0.118096 204 204 204 255 
3 35 151 34 6 0.704546 0.039365 0.727273 0.078731 0.681818 0.078731 204 204 204 255 
3 33 150 38 6 0.659091 0.118096 0.704546 0.118096 0.681818 0.157461 204 204 204 255 
3 150 37 38 6 0.704546 0.118096 0.727273 0.157461 0.681818 0.157461 204 204 204 255 
3 34 151 150 6 0.681818 0.078731 0.727273 0.078731 0.704546 0.118096 204 204 204 255 
3 151 152 150 6 0.727273 0.078731 0.750000 0.118096 0.704546 0.118096 204 204 204 255 
3 150 152 37 6 0.704546 0.118096 0.750000 0.118096 0.727273 0.157461 204 204 204 255 
3 152 36 37 6 0.750000 0.118096 0.772727 0.157461 0.727273 0.157461 204 204 204 255 
3 35 29 151 6 0.704546 0.039365 0.750000 0.039365 0.727273 0.078731 204 204 204 255 
3 29 28 151 6 0.750000 0.039365 0.772727 0.078731 0.727273 0.078731 204 204 204 255 
3 151 28 152 6 0.727273 0.078731 0.772727 0.078731 0.750000 0.118096 204 204 204 255 
3 28 27 152 6 0.772727 0.078731 0.795455 0.118096 0.750000 0.118096 204 204 204 255 
3 152 27 36 6 0.750000 0.118096 0.795455 0.118096 0.772727 0.157461 204 204 204 255 
3 27 3 36 6 0.795455 0.118096 0.818182 0.157461 0.772727 0.157461 204 204 204 255 
3 27 32 3 6 0.840909 0.118096 0.863636 0.157461 0.818182 0.157461 204 204 204 255 
3 28 153 27 6 0.863636 0.078731 0.886364 0.118096 0.840909 0.118096 204 204 204 255 
3 29 154 28 6 0.886364 0.039365 0.909091 0.078731 0.863636 0.078731 204 204 204 255 
3 27 153 32 6 0.840909 0.118096 0.886364 0.118096 0.863636 0.157461 204 204 204 255 
3 153 31 32 6 0.886364 0.118096 0.909091 0.157461 0.863636 0.157461 204 204 204 255 
3 28 154 153 6 0.863636 0.078731 0.909091 0.078731 0.886364 0.118096 204 204 204 255 
3 154 155 153 6 0.909091 0.078731 0.931818 0.118096 0.886364 0.118096 204 204 204 255 
3 153 155 31 6 0.886364 0.118096 0.931818 0.118096 0.909091 0.157461 204 204 204 255 
3 155 30 31 6 0.931818 0.118096 0.954545 0.157461 0.909091 0.157461 204 204 204 255 
3 29 14 154 6 0.886364 0.039365 0.931818 0.039365 0.909091 0.078731 204 204 204 255 
3 14 13 154 6 0.931818 0.039365 0.954545 0.078731 0.909091 0.078731 204 204 204 255 
3 154 13 155 6 0.909091 0.078731 0.954545 0.078731 0.931818 0.118096 204 204 204 255 
3 13 12 155 6 0.954545 0.078731 0.977273 0.118096 0.931818 0.118096 204 204 204 255 
3 155 12 30 6 0.931818 0.118096 0.977273 0.118096 0.954545 0.157461 204 204 204 255 
3 12 2 30 6 0.977273 0.118096 1.000000 0.157461 0.954545 0.157461 204 204 204 255 
3 21 26 5 6 0.409092 0.157461 0.431819 0.118096 0.454546 0.157461 204 204 204 255 
3 22 156 21 6 0.363637 0.157461 0.386364 0.118096 0.409092 0.157461 204 204 204 255 
3 23 157 22 6 0.318182 0.157461 0.340910 0.118096 0.363637 0.157461 204 204 204 255 
3 21 156 26 6 0.409092 0.157461 0.386364 0.118096 0.431819 0.118096 204 204 204 255 
3 156 25 26 6 0.386364 0.118096 0.409091 0.078731 0.431819 0.118096 204 204 204 255 
3 22 157 156 6 0.363637 0.157461 0.340910 0.118096 0.386364 0.118096 204 204 204 255 
3 157 158 156 6 0.340910 0.118096 0.363637 0.078730 0.386364 0.118096 204 204 204 255 
3 156 158 25 6 0.386364 0.118096 0.363637 0.078730 0.409091 0.078731 204 204 204 255 
3 158 24 25 6 0.363637 0.078730 0.386364 0.039365 0.409091 0.078731 204 204 204 255 
3 23 17 157 6 0.318182 0.157461 0.295455 0.118096 0.340910 0.118096 204 204 204 255 
3 17 16 157 6 0.295455 0.118096 0.318182 0.078731 0.340910 0.118096 204 204 204 255 
3 157 16 158 6 0.340910 0.118096 0.318182 0.078731 0.363637 0.078730 204 204 204 255 
3 16 15 158 6 0.318182 0.078731 0.340910 0.039365 0.363637 0.078730 204 204 204 255 
3 158 15 24 6 0.363637 0.078730 0.340910 0.039365 0.386364 0.039365 204 204 204 255 
3 15 0 24 6 0.340910 0.039365 0.363637 0.000000 0.386364 0.039365 204 204 204 255 
3 12 20 2 6 0.113637 0.118096 0.136364 0.157461 0.090910 0.157461 204 204 204 255 
3 13 159 12 6 0.136365 0.078731 0.159092 0.118096 0.113637 0.118096 204 204 204 255 
3 14 160 13 6 0.159092 0.039365 0.181819 0.078731 0.136365 0.078731 204 204 204 255 
3 12 159 20 6 0.113637 0.118096 0.159092 0.118096 0.136364 0.157461 204 204 204 255 
3 159 19 20 6 0.159092 0.118096 0.181819 0.157461 0.136364 0.157461 204 204 204 255 
3 13 160 159 6 0.136365 0.078731 0.181819 0.078731 0.159092 0.118096 204 204 204 255 
3 160 161 159 6 0.181819 0.078731 0.204546 0.118096 0.159092 0.118096 204 204 204 255 
3 159 161 19 6 0.159092 0.118096 0.204546 0.118096 0.181819 0.157461 204 204 204 255 
3 161 18 19 6 0.204546 0.118096 0.227274 0.157461 0.181819 0.157461 204 204 204 255 
3 14 15 160 6 0.159092 0.039365 0.204546 0.039365 0.181819 0.078731 204 204 204 255 
3 15 16 160 6 0.204546 0.039365 0.227273 0.078731 0.181819 0.078731 204 204 204 255 
3 160 16 161 6 0.181819 0.078731 0.227273 0.078731 0.204546 0.118096 204 204 204 255 
3 16 17 161 6 0.227273 0.078731 0.250001 0.118096 0.204546 0.118096 204 204 204 255 
3 161 17 18 6 0.204546 0.118096 0.250001 0.118096 0.227274 0.157461 204 204 204 255 
3 17 1 18 6 0.250001 0.118096 0.272728 0.157461 0.227274 0.157461 204 204 204 255 
3 164 163 166 6 0.795455 0.433017 0.840909 0.433017 0.840909 0.433017 204 204 204 255 
3 164 166 167 6 0.795455 0.433017 0.840909 0.433017 0.795455 0.433017 204 204 204 255 
3 178 173 164 6 0.636364 0.472382 0.659091 0.433017 0.659091 0.433017 204 204 204 255 
3 178 164 162 6 0.636364 0.472382 0.659091 0.433017 0.636364 0.472382 204 204 204 255 
3 172 178 162 6 0.068182 0.433017 0.090910 0.472382 0.090910 0.472382 204 204 204 255 
3 172 162 163 6 0.068182 0.433017 0.090910 0.472382 0.068182 0.433017 204 204 204 255 
3 167 166 165 6 0.795455 0.433017 0.840909 0.433017 0.818182 0.472382 204 204 204 255 
3 162 164 167 6 0.636364 0.472382 0.659091 0.433017 0.659091 0.433017 204 204 204 255 
3 162 167 165 6 0.636364 0.472382 0.659091 0.433017 0.636364 0.472382 204 204 204 255 
3 163 162 165 6 0.068182 0.433017 0.090910 0.472382 0.090910 0.472382 204 204 204 255 
3 163 165 166 6 0.068182 0.433017 0.090910 0.472382 0.068182 0.433017 204 204 204 255 
3 93 11 182 6 0.068182 0.433017 0.090910 0.472382 0.090910 0.472382 204 204 204 255 
3 93 182 168 6 0.068182 0.433017 0.090910 0.472382 0.068182 0.433017 204 204 204 255 
3 168 182 181 6 0.068182 0.433017 0.090910 0.472382 0.090910 0.472382 204 204 204 255 
3 168 181 169 6 0.068182 0.433017 0.090910 0.472382 0.068182 0.433017 204 204 204 255 
3 169 181 180 6 0.068182 0.433017 0.090910 0.472382 0.090910 0.472382 204 204 204 255 
3 169 180 170 6 0.068182 0.433017 0.090910 0.472382 0.068182 0.433017 204 204 204 255 
3 170 180 179 6 0.068182 0.433017 0.090910 0.472382 0.090910 0.472382 204 204 204 255 
3 170 179 171 6 0.068182 0.433017 0.090910 0.472382 0.068182 0.433017 204 204 204 255 
3 171 179 178 6 0.068182 0.433017 0.090910 0.472382 0.090910 0.472382 204 204 204 255 
3 171 178 172 6 0.068182 0.433017 0.090910 0.472382 0.068182 0.433017 204 204 204 255 
3 11 96 177 6 0.636364 0.472382 0.659091 0.433017 0.659091 0.433017 204 204 204 255 
3 11 177 182 6 0.636364 0.472382 0.659091 0.433017 0.636364 0.472382 204 204 204 255 
3 182 177 176 6 0.636364 0.472382 0.659091 0.433017 0.659091 0.433017 204 204 204 255 
3 182 176 181 6 0.636364 0.472382 0.659091 0.433017 0.636364 0.472382 204 204 204 255 
3 181 176 175 6 0.636364 0.472382 0.659091 0.433017 0.659091 0.433017 204 204 204 255 
3 181 175 180 6 0.636364 0.472382 0.659091 0.433017 0.636364 0.472382 204 204 204 255 
3 180 175 174 6 0.636364 0.472382 0.659091 0.433017 0.659091 0.433017 204 204 204 255 
3 180 174 179 6 0.636364 0.472382 0.659091 0.433017 0.636364 0.472382 204 204 204 255 
3 179 174 173 6 0.636364 0.472382 0.659091 0.433017 0.659091 0.433017 204 204 204 255 
3 179 173 178 6 0.636364 0.472382 0.659091 0.433017 0.636364 0.472382 204 204 204 255 
3 96 93 168 6 0.795455 0.433017 0.840909 0.433017 0.840909 0.433017 204 204 204 255 
3 96 168 177 6 0.795455 0.433017 0.840909 0.433017 0.795455 0.433017 204 204 204 255 
3 177 168 169 6 0.795455 0.433017 0.840909 0.433017 0.840909 0.433017 204 204 204 255 
3 177 169 176 6 0.795455 0.433017 0.840909 0.433017 0.795455 0.433017 204 204 204 255 
3 176 169 170 6 0.795455 0.433017 0.840909 0.433017 0.840909 0.433017 204 204 204 255 
3 176 170 175 6 0.795455 0.433017 0.840909 0.433017 0.795455 0.433017 204 204 204 255 
3 175 170 171 6 0.795455 0.433017 0.840909 0.433017 0.840909 0.433017 204 204 204 255 
3 175 171 174 6 0.795455 0.433017 0.840909 0.433017 0.795455 0.433017 204 204 204 255 
3 174 171 172 6 0.795455 0.433017 0.840909 0.433017 0.840909 0.433017 204 204 204 255 
3 174 172 173 6 0.795455 0.433017 0.840909 0.433017 0.795455 0.433017 204 204 204 255 
