ply
format ascii 1.0
comment Created by Blender 3.1.2 - www.blender.org
element vertex 262
property float x
property float y
property float z
element face 421
property list uchar uint vertex_indices
end_header
0.000000 -1.000000 0.000000
-0.203181 -0.967950 -0.147618
0.077607 -0.967950 -0.238853
-0.723607 -0.447220 -0.525725
-0.609547 -0.657519 -0.442856
-0.812729 -0.502301 -0.295238
0.251147 -0.967949 0.000000
0.077607 -0.967950 0.238853
-0.203181 -0.967950 0.147618
-0.860698 -0.251151 -0.442858
0.276388 -0.447220 -0.850649
0.029639 -0.502302 -0.864184
0.155215 -0.251152 -0.955422
0.894426 -0.447216 0.000000
0.831051 -0.502299 -0.238853
0.956626 -0.251149 -0.147618
0.276388 -0.447220 0.850649
0.483971 -0.502302 0.716565
0.436007 -0.251152 0.864188
-0.723607 -0.447220 0.525725
-0.531941 -0.502302 0.681712
-0.687159 -0.251152 0.681715
-0.687159 -0.251152 -0.681715
0.436007 -0.251152 -0.864188
0.956626 -0.251149 0.147618
0.155215 -0.251152 0.955422
-0.860698 -0.251151 0.442858
-0.276388 0.447220 -0.850649
-0.483971 0.502302 -0.716565
-0.232822 0.657519 -0.716563
0.723607 0.447220 -0.525725
0.531941 0.502302 -0.681712
0.609547 0.657519 -0.442856
0.723607 0.447220 0.525725
0.812729 0.502301 0.295238
0.609547 0.657519 0.442856
-0.276388 0.447220 0.850649
-0.029639 0.502302 0.864184
-0.232822 0.657519 0.716563
-0.894426 0.447216 0.000000
-0.831051 0.502299 0.238853
-0.753442 0.657515 0.000000
-0.525730 0.850652 0.000000
-0.361800 0.894429 0.262863
-0.152724 0.975377 0.055355
-0.638194 0.723610 0.262864
-0.099840 0.975377 0.128142
-0.162456 0.850654 0.499995
-0.447209 0.723612 0.525728
-0.688189 0.525736 0.499997
-0.483971 0.502302 0.716565
0.203181 0.967950 0.147618
-0.076190 0.985144 0.055355
0.138197 0.894430 0.425319
0.052790 0.723612 0.688185
0.425323 0.850654 0.309011
0.361804 0.723612 0.587778
0.262869 0.525738 0.809012
0.531941 0.502302 0.681712
0.203181 0.967950 -0.147618
0.447210 0.894429 0.000000
0.670817 0.723611 0.162457
0.425323 0.850654 -0.309011
0.670817 0.723611 -0.162457
0.850648 0.525736 0.000000
0.812729 0.502301 -0.295238
-0.077607 0.967950 -0.238853
0.138197 0.894430 -0.425319
0.361804 0.723612 -0.587778
-0.162456 0.850654 -0.499995
0.052790 0.723612 -0.688185
0.262869 0.525738 -0.809012
-0.029639 0.502302 -0.864184
-0.361800 0.894429 -0.262863
-0.447209 0.723612 -0.525728
-0.638194 0.723610 -0.262864
-0.688189 0.525736 -0.499997
-0.831051 0.502299 -0.238853
-0.956626 0.251149 0.147618
-0.951058 0.000000 0.309013
-0.861804 0.276396 0.425322
-0.809019 0.000000 0.587782
-0.670821 0.276397 0.688189
-0.587786 -0.000000 0.809017
-0.436007 0.251152 0.864188
-0.155215 0.251152 0.955422
0.000000 0.000000 1.000000
0.138199 0.276397 0.951055
0.309016 -0.000000 0.951057
0.447215 0.276397 0.850649
0.587786 -0.000000 0.809017
0.687159 0.251152 0.681715
0.860698 0.251151 0.442858
0.951058 0.000000 0.309013
0.947213 0.276396 0.162458
1.000000 0.000001 -0.000000
0.947213 0.276397 -0.162458
0.951058 -0.000000 -0.309013
0.860698 0.251151 -0.442858
0.687159 0.251152 -0.681715
0.587786 0.000000 -0.809017
0.447216 0.276397 -0.850648
0.309017 -0.000001 -0.951056
0.138199 0.276397 -0.951055
0.000000 -0.000000 -1.000000
-0.155215 0.251152 -0.955422
-0.436007 0.251152 -0.864188
-0.587786 0.000000 -0.809017
-0.670820 0.276396 -0.688190
-0.809019 -0.000002 -0.587783
-0.861804 0.276394 -0.425323
-0.951058 -0.000000 -0.309013
-0.956626 0.251149 -0.147618
-0.309017 -0.000000 0.951056
-0.447216 -0.276398 0.850648
-0.138199 -0.276398 0.951055
-0.262869 -0.525738 0.809012
0.029639 -0.502302 0.864184
0.809018 -0.000000 0.587783
0.670819 -0.276397 0.688191
0.861803 -0.276396 0.425324
0.688189 -0.525736 0.499997
0.831051 -0.502299 0.238853
0.809018 0.000000 -0.587783
0.861803 -0.276396 -0.425324
0.670819 -0.276397 -0.688191
0.688189 -0.525736 -0.499997
0.483971 -0.502302 -0.716565
-0.309017 0.000000 -0.951056
-0.138199 -0.276398 -0.951055
-0.447216 -0.276398 -0.850648
-0.262869 -0.525738 -0.809012
-0.531941 -0.502302 -0.681712
-1.000000 0.000000 0.000000
-0.947213 -0.276396 -0.162458
-0.947213 -0.276396 0.162458
-0.850648 -0.525736 0.000000
-0.812729 -0.502301 0.295238
-0.609547 -0.657519 0.442856
-0.425323 -0.850654 0.309011
-0.361803 -0.723612 0.587779
-0.138197 -0.894429 0.425321
-0.052789 -0.723611 0.688186
0.162456 -0.850654 0.499995
0.232822 -0.657519 0.716563
0.447211 -0.723612 0.525727
0.361801 -0.894429 0.262863
0.638195 -0.723609 0.262863
0.525730 -0.850652 0.000000
0.753442 -0.657515 0.000000
0.638195 -0.723609 -0.262864
0.361801 -0.894428 -0.262864
0.447211 -0.723610 -0.525729
0.162456 -0.850654 -0.499995
0.232822 -0.657519 -0.716563
-0.670817 -0.723611 0.162457
-0.670818 -0.723610 -0.162458
-0.447211 -0.894428 -0.000001
-0.425323 -0.850654 -0.309011
-0.052790 -0.723612 -0.688185
-0.138199 -0.894429 -0.425321
-0.361805 -0.723611 -0.587779
-0.610717 4.564126 0.388099
-0.557833 4.564126 0.460886
-0.572145 4.676274 0.471284
-0.625029 4.676274 0.398497
-0.592500 4.751567 0.426256
-0.534183 4.573893 0.388099
-0.548495 4.686041 0.398497
-0.167036 1.087525 0.065753
-0.090502 1.097293 0.065753
-0.181348 1.199674 0.076152
-0.104815 1.209441 0.076152
-0.195661 1.311822 0.086550
-0.119127 1.321589 0.086550
-0.209973 1.423971 0.096948
-0.133439 1.433738 0.096948
-0.224285 1.536119 0.107346
-0.147751 1.545886 0.107346
-0.238598 1.648268 0.117745
-0.162064 1.658035 0.117745
-0.252910 1.760416 0.128143
-0.176376 1.770183 0.128143
-0.267222 1.872564 0.138541
-0.190688 1.882331 0.138541
-0.281534 1.984713 0.148939
-0.205001 1.994480 0.148939
-0.295847 2.096861 0.159338
-0.219313 2.106628 0.159338
-0.310159 2.209010 0.169736
-0.233625 2.218777 0.169736
-0.324471 2.321158 0.180134
-0.247937 2.330925 0.180134
-0.338784 2.433306 0.190532
-0.262250 2.443073 0.190532
-0.353096 2.545455 0.200931
-0.276562 2.555222 0.200931
-0.367408 2.657603 0.211329
-0.290874 2.667370 0.211329
-0.381720 2.769752 0.221727
-0.305187 2.779519 0.221727
-0.396033 2.881900 0.232125
-0.319499 2.891667 0.232125
-0.410345 2.994048 0.242524
-0.333811 3.003815 0.242524
-0.424657 3.106197 0.252922
-0.348123 3.115964 0.252922
-0.438970 3.218345 0.263320
-0.362436 3.228112 0.263320
-0.453282 3.330493 0.273718
-0.376748 3.340261 0.273718
-0.467594 3.442642 0.284117
-0.391060 3.452409 0.284116
-0.481906 3.554790 0.294515
-0.405373 3.564557 0.294515
-0.496219 3.666939 0.304913
-0.419685 3.676706 0.304913
-0.510531 3.779088 0.315311
-0.433997 3.788854 0.315311
-0.524843 3.891236 0.325710
-0.448309 3.901002 0.325709
-0.539156 4.003385 0.336108
-0.462622 4.013151 0.336108
-0.553468 4.115533 0.346506
-0.476934 4.125299 0.346506
-0.567780 4.227681 0.356904
-0.491246 4.237447 0.356904
-0.582092 4.339829 0.367302
-0.505559 4.349596 0.367302
-0.596405 4.451978 0.377701
-0.519871 4.461744 0.377701
-0.114152 1.087526 0.138541
-0.128464 1.199674 0.148939
-0.142777 1.311823 0.159337
-0.157089 1.423971 0.169735
-0.171401 1.536119 0.180134
-0.185713 1.648268 0.190532
-0.200026 1.760416 0.200930
-0.214338 1.872565 0.211328
-0.228650 1.984713 0.221727
-0.242963 2.096861 0.232125
-0.257275 2.209010 0.242523
-0.271587 2.321158 0.252921
-0.285899 2.433306 0.263320
-0.300212 2.545455 0.273718
-0.314524 2.657603 0.284116
-0.328836 2.769752 0.294514
-0.343149 2.881900 0.304912
-0.357461 2.994048 0.315311
-0.371773 3.106197 0.325709
-0.386085 3.218345 0.336107
-0.400398 3.330493 0.346505
-0.414710 3.442642 0.356904
-0.429022 3.554790 0.367302
-0.443335 3.666939 0.377700
-0.457647 3.779087 0.388098
-0.471959 3.891235 0.398497
-0.486271 4.003384 0.408895
-0.500584 4.115532 0.419293
-0.514896 4.227680 0.429691
-0.529208 4.339828 0.440090
-0.543520 4.451977 0.450488
3 0 1 2
3 3 4 5
3 0 2 6
3 0 6 7
3 0 7 8
3 3 5 9
3 10 11 12
3 13 14 15
3 16 17 18
3 19 20 21
3 3 9 22
3 10 12 23
3 13 15 24
3 16 18 25
3 19 21 26
3 27 28 29
3 30 31 32
3 33 34 35
3 36 37 38
3 39 40 41
3 42 43 44
3 41 45 42
3 44 43 46
3 43 47 46
3 42 45 43
3 45 48 43
3 43 48 47
3 48 38 47
3 41 40 45
3 40 49 45
3 45 49 48
3 49 50 48
3 48 50 38
3 50 36 38
3 46 51 52
3 47 53 46
3 38 54 47
3 46 53 51
3 53 55 51
3 47 54 53
3 54 56 53
3 53 56 55
3 56 35 55
3 38 37 54
3 37 57 54
3 54 57 56
3 57 58 56
3 56 58 35
3 58 33 35
3 51 59 52
3 55 60 51
3 35 61 55
3 51 60 59
3 60 62 59
3 55 61 60
3 61 63 60
3 60 63 62
3 63 32 62
3 35 34 61
3 34 64 61
3 61 64 63
3 64 65 63
3 63 65 32
3 65 30 32
3 59 66 52
3 62 67 59
3 32 68 62
3 59 67 66
3 67 69 66
3 62 68 67
3 68 70 67
3 67 70 69
3 70 29 69
3 32 31 68
3 31 71 68
3 68 71 70
3 71 72 70
3 70 72 29
3 72 27 29
3 66 44 52
3 69 73 66
3 29 74 69
3 66 73 44
3 73 42 44
3 69 74 73
3 74 75 73
3 73 75 42
3 75 41 42
3 29 28 74
3 28 76 74
3 74 76 75
3 76 77 75
3 75 77 41
3 77 39 41
3 78 40 39
3 79 80 78
3 26 81 79
3 78 80 40
3 80 49 40
3 79 81 80
3 81 82 80
3 80 82 49
3 82 50 49
3 26 21 81
3 21 83 81
3 81 83 82
3 83 84 82
3 82 84 50
3 84 36 50
3 85 37 36
3 86 87 85
3 25 88 86
3 85 87 37
3 87 57 37
3 86 88 87
3 88 89 87
3 87 89 57
3 89 58 57
3 25 18 88
3 18 90 88
3 88 90 89
3 90 91 89
3 89 91 58
3 91 33 58
3 92 34 33
3 93 94 92
3 24 95 93
3 92 94 34
3 94 64 34
3 93 95 94
3 95 96 94
3 94 96 64
3 96 65 64
3 24 15 95
3 15 97 95
3 95 97 96
3 97 98 96
3 96 98 65
3 98 30 65
3 99 31 30
3 100 101 99
3 23 102 100
3 99 101 31
3 101 71 31
3 100 102 101
3 102 103 101
3 101 103 71
3 103 72 71
3 23 12 102
3 12 104 102
3 102 104 103
3 104 105 103
3 103 105 72
3 105 27 72
3 106 28 27
3 107 108 106
3 22 109 107
3 106 108 28
3 108 76 28
3 107 109 108
3 109 110 108
3 108 110 76
3 110 77 76
3 22 9 109
3 9 111 109
3 109 111 110
3 111 112 110
3 110 112 77
3 112 39 77
3 84 85 36
3 83 113 84
3 21 114 83
3 84 113 85
3 113 86 85
3 83 114 113
3 114 115 113
3 113 115 86
3 115 25 86
3 21 20 114
3 20 116 114
3 114 116 115
3 116 117 115
3 115 117 25
3 117 16 25
3 91 92 33
3 90 118 91
3 18 119 90
3 91 118 92
3 118 93 92
3 90 119 118
3 119 120 118
3 118 120 93
3 120 24 93
3 18 17 119
3 17 121 119
3 119 121 120
3 121 122 120
3 120 122 24
3 122 13 24
3 98 99 30
3 97 123 98
3 15 124 97
3 98 123 99
3 123 100 99
3 97 124 123
3 124 125 123
3 123 125 100
3 125 23 100
3 15 14 124
3 14 126 124
3 124 126 125
3 126 127 125
3 125 127 23
3 127 10 23
3 105 106 27
3 104 128 105
3 12 129 104
3 105 128 106
3 128 107 106
3 104 129 128
3 129 130 128
3 128 130 107
3 130 22 107
3 12 11 129
3 11 131 129
3 129 131 130
3 131 132 130
3 130 132 22
3 132 3 22
3 112 78 39
3 111 133 112
3 9 134 111
3 112 133 78
3 133 79 78
3 111 134 133
3 134 135 133
3 133 135 79
3 135 26 79
3 9 5 134
3 5 136 134
3 134 136 135
3 136 137 135
3 135 137 26
3 137 19 26
3 138 20 19
3 139 140 138
3 8 141 139
3 138 140 20
3 140 116 20
3 139 141 140
3 141 142 140
3 140 142 116
3 142 117 116
3 8 7 141
3 7 143 141
3 141 143 142
3 143 144 142
3 142 144 117
3 144 16 117
3 144 17 16
3 143 145 144
3 7 146 143
3 144 145 17
3 145 121 17
3 143 146 145
3 146 147 145
3 145 147 121
3 147 122 121
3 7 6 146
3 6 148 146
3 146 148 147
3 148 149 147
3 147 149 122
3 149 13 122
3 149 14 13
3 148 150 149
3 6 151 148
3 149 150 14
3 150 126 14
3 148 151 150
3 151 152 150
3 150 152 126
3 152 127 126
3 6 2 151
3 2 153 151
3 151 153 152
3 153 154 152
3 152 154 127
3 154 10 127
3 137 138 19
3 136 155 137
3 5 156 136
3 137 155 138
3 155 139 138
3 136 156 155
3 156 157 155
3 155 157 139
3 157 8 139
3 5 4 156
3 4 158 156
3 156 158 157
3 158 1 157
3 157 1 8
3 1 0 8
3 154 11 10
3 153 159 154
3 2 160 153
3 154 159 11
3 159 131 11
3 153 160 159
3 160 161 159
3 159 161 131
3 161 132 131
3 2 1 160
3 1 158 160
3 160 158 161
3 158 4 161
3 161 4 132
3 4 3 132
4 162 163 164 165
3 164 166 165
4 163 167 168 164
4 167 162 165 168
4 52 44 169 170
4 170 169 171 172
4 172 171 173 174
4 174 173 175 176
4 176 175 177 178
4 178 177 179 180
4 180 179 181 182
4 182 181 183 184
4 184 183 185 186
4 186 185 187 188
4 188 187 189 190
4 190 189 191 192
4 192 191 193 194
4 194 193 195 196
4 196 195 197 198
4 198 197 199 200
4 200 199 201 202
4 202 201 203 204
4 204 203 205 206
4 206 205 207 208
4 208 207 209 210
4 210 209 211 212
4 212 211 213 214
4 214 213 215 216
4 216 215 217 218
4 218 217 219 220
4 220 219 221 222
4 222 221 223 224
4 224 223 225 226
4 226 225 227 228
4 228 227 229 230
4 230 229 162 167
4 46 52 170 231
4 231 170 172 232
4 232 172 174 233
4 233 174 176 234
4 234 176 178 235
4 235 178 180 236
4 236 180 182 237
4 237 182 184 238
4 238 184 186 239
4 239 186 188 240
4 240 188 190 241
4 241 190 192 242
4 242 192 194 243
4 243 194 196 244
4 244 196 198 245
4 245 198 200 246
4 246 200 202 247
4 247 202 204 248
4 248 204 206 249
4 249 206 208 250
4 250 208 210 251
4 251 210 212 252
4 252 212 214 253
4 253 214 216 254
4 254 216 218 255
4 255 218 220 256
4 256 220 222 257
4 257 222 224 258
4 258 224 226 259
4 259 226 228 260
4 260 228 230 261
4 261 230 167 163
4 44 46 231 169
4 169 231 232 171
4 171 232 233 173
4 173 233 234 175
4 175 234 235 177
4 177 235 236 179
4 179 236 237 181
4 181 237 238 183
4 183 238 239 185
4 185 239 240 187
4 187 240 241 189
4 189 241 242 191
4 191 242 243 193
4 193 243 244 195
4 195 244 245 197
4 197 245 246 199
4 199 246 247 201
4 201 247 248 203
4 203 248 249 205
4 205 249 250 207
4 207 250 251 209
4 209 251 252 211
4 211 252 253 213
4 213 253 254 215
4 215 254 255 217
4 217 255 256 219
4 219 256 257 221
4 221 257 258 223
4 223 258 259 225
4 225 259 260 227
4 227 260 261 229
4 229 261 163 162
3 168 166 164
3 165 166 168
