ply
format ascii 1.0
comment Created by Blender 3.2.2 - www.blender.org
element vertex 702
property float x
property float y
property float z
element face 1300
property list uchar uint vertex_indices
end_header
0.160294 0.166654 0.575729
0.000038 0.166654 0.596729
0.149894 0.122654 0.538745
0.168194 0.221209 0.604229
0.000038 0.221209 0.626329
0.303249 0.166654 0.516345
0.283749 0.122654 0.483045
0.000038 0.122654 0.558329
-0.160217 0.166654 0.575729
-0.168217 0.221209 0.604229
-0.149940 0.122654 0.538745
0.139594 0.088655 0.501645
0.000038 0.088655 0.519945
-0.318295 0.221209 0.541845
-0.303295 0.166654 0.516345
0.171394 0.287163 0.615629
0.000038 0.287163 0.638129
0.318249 0.221209 0.541845
-0.171317 0.287163 0.615629
-0.324295 0.287163 0.552145
0.169694 0.360818 0.609629
0.000038 0.360818 0.631829
0.324249 0.287163 0.552145
-0.169617 0.360818 0.609629
-0.321095 0.360818 0.546645
0.164994 0.437873 0.592829
0.000038 0.437873 0.614529
0.321049 0.360818 0.546645
-0.165017 0.437873 0.592829
-0.312295 0.437873 0.531645
0.157994 0.517527 0.567529
0.000038 0.517527 0.588229
0.312249 0.437873 0.531645
-0.157917 0.517527 0.567529
-0.298895 0.517527 0.508945
0.000038 0.599182 0.555429
0.298949 0.517527 0.508945
0.149094 0.599182 0.535845
-0.149139 0.599182 0.535845
-0.282195 0.599182 0.480545
0.000038 0.682136 0.518145
-0.139140 0.682136 0.499845
0.131694 0.063900 0.473145
0.000038 0.063900 0.490445
0.123022 0.046795 0.442095
0.249172 0.063900 0.424261
0.232815 0.046795 0.396426
0.000037 0.046795 0.458260
-0.131639 0.063900 0.473145
-0.139639 0.088655 0.501645
0.000034 0.034180 0.419650
0.112698 0.034180 0.404902
-0.123065 0.046795 0.442095
0.103542 0.023795 0.372158
0.000033 0.023795 0.385705
-0.112649 0.034180 0.404902
-0.264195 0.088655 0.449861
-0.249195 0.063900 0.424261
0.396427 0.122654 0.396461
0.423727 0.166654 0.423661
0.264172 0.088655 0.449861
0.369127 0.088655 0.369177
-0.283695 0.122654 0.483045
-0.423751 0.166654 0.423661
-0.396473 0.122654 0.396461
-0.444651 0.221209 0.444661
0.444705 0.221209 0.444661
-0.453051 0.287163 0.453061
0.453105 0.287163 0.453061
-0.448651 0.360818 0.448661
0.448605 0.360818 0.448661
-0.436251 0.437873 0.436261
0.436327 0.437873 0.436261
-0.417651 0.517527 0.417661
0.282249 0.599182 0.480545
0.417627 0.517527 0.417661
-0.394373 0.599182 0.394361
0.139094 0.682136 0.499845
0.394327 0.599182 0.394361
0.263272 0.682136 0.448261
-0.263295 0.682136 0.448261
-0.367873 0.682136 0.367877
0.000038 0.765791 0.478645
0.128494 0.765791 0.461761
-0.128540 0.765791 0.461761
-0.243195 0.765791 0.414061
0.325375 0.046795 0.325306
0.348149 0.063900 0.348177
0.213272 0.034180 0.363092
0.297934 0.034180 0.297959
0.195978 0.023795 0.333720
0.273851 0.023795 0.273875
0.176335 0.015498 0.300206
0.246335 0.015498 0.246373
0.093128 0.015498 0.334736
0.000033 0.015498 0.346928
0.074181 0.008810 0.266424
0.140287 0.008810 0.238922
-0.103580 0.023795 0.372158
-0.093166 0.015498 0.334736
0.000033 0.008810 0.276161
-0.196015 0.023795 0.333720
-0.176288 0.015498 0.300206
-0.074116 0.008810 0.266424
-0.213203 0.034180 0.363092
-0.232837 0.046795 0.396426
-0.297954 0.034180 0.297959
-0.273804 0.023795 0.273875
-0.325302 0.046795 0.325306
-0.348173 0.063900 0.348177
-0.369173 0.088655 0.369177
0.483105 0.122654 0.283694
0.516305 0.166654 0.303277
0.449905 0.088655 0.264194
-0.516329 0.166654 0.303277
-0.483051 0.122654 0.283694
-0.541829 0.221209 0.318277
0.541883 0.221209 0.318277
-0.552129 0.287163 0.324277
0.552083 0.287163 0.324277
-0.546629 0.360818 0.321077
0.546683 0.360818 0.321077
-0.531629 0.437873 0.312277
0.531683 0.437873 0.312277
-0.508929 0.517527 0.298977
0.509005 0.517527 0.298977
-0.480551 0.599182 0.282194
0.480505 0.599182 0.282194
0.367827 0.682136 0.367877
-0.448251 0.682136 0.263294
0.243172 0.765791 0.414061
-0.339773 0.765791 0.339777
0.339849 0.765791 0.339777
0.396394 0.046795 0.232837
0.424327 0.063900 0.249194
0.363061 0.034180 0.213203
0.333691 0.023795 0.195997
0.300182 0.015498 0.176283
0.196063 0.008810 0.196082
0.043956 0.004407 0.157911
0.083156 0.004407 0.141570
0.000033 0.004407 0.163668
-0.140305 0.008810 0.238922
-0.043909 0.004407 0.157911
-0.246372 0.015498 0.246373
-0.363082 0.034180 0.213203
-0.333729 0.023795 0.195997
-0.396416 0.046795 0.232837
-0.424251 0.063900 0.249194
-0.449851 0.088655 0.264194
0.538683 0.122654 0.149910
0.575783 0.166654 0.160210
-0.604306 0.221209 0.168210
-0.575729 0.166654 0.160210
0.604283 0.221209 0.168210
-0.615706 0.287163 0.171310
0.615661 0.287163 0.171310
-0.609606 0.360818 0.169710
0.609583 0.360818 0.169710
-0.592906 0.437873 0.165010
0.592883 0.437873 0.165010
-0.567529 0.517527 0.158010
0.567583 0.517527 0.158010
-0.535829 0.599182 0.149110
0.448305 0.682136 0.263294
-0.414051 0.765791 0.243194
0.414027 0.765791 0.243194
0.442137 0.046795 0.123037
0.473205 0.063900 0.131710
0.404853 0.034180 0.112638
0.372129 0.023795 0.103569
0.334792 0.015498 0.093155
0.238884 0.008810 0.140300
0.116241 0.004407 0.116171
0.141641 0.004407 0.083165
-0.196100 0.008810 0.196082
-0.083175 0.004407 0.141570
-0.300201 0.015498 0.176283
-0.116195 0.004407 0.116171
-0.238922 0.008810 0.140300
-0.404893 0.034180 0.112638
-0.372149 0.023795 0.103569
-0.442085 0.046795 0.123037
-0.473151 0.063900 0.131710
-0.501629 0.088655 0.139610
0.501705 0.088655 0.139610
-0.538729 0.122654 0.149910
0.535883 0.599182 0.149110
-0.499929 0.682136 0.139110
0.499905 0.682136 0.139110
-0.461751 0.765791 0.128510
0.461805 0.765791 0.128510
0.458221 0.046795 0.000040
0.490405 0.063900 0.000042
0.419615 0.034180 0.000038
0.266400 0.008810 0.074190
0.157897 0.004407 0.043964
0.000033 0.002798 0.000036
-0.141575 0.004407 0.083165
-0.334745 0.015498 0.093155
-0.266438 0.008810 0.074190
-0.490451 0.063900 0.000042
-0.458169 0.046795 0.000040
-0.519929 0.088655 0.000042
0.558383 0.122654 0.000042
0.596783 0.166654 0.000042
0.520005 0.088655 0.000042
-0.558329 0.122654 0.000042
-0.596806 0.166654 0.000042
-0.625606 0.219909 0.000042
0.619961 0.238109 0.071826
0.615561 0.216809 0.063826
0.608883 0.198709 0.039842
-0.619406 0.283163 0.137210
-0.617706 0.235909 0.085926
0.624861 0.259564 0.063826
0.631161 0.277564 0.039842
0.638161 0.287163 0.000042
-0.613306 0.341718 0.154310
-0.619406 0.283163 0.137210
-0.700184 0.307763 0.133910
-0.711084 0.266964 0.083726
-0.613306 0.341718 0.154310
-0.617706 0.235909 0.085926
-0.686184 0.360818 0.150710
-0.787462 0.389318 0.117826
-0.803162 0.358118 0.073626
0.631861 0.360818 0.000042
-0.605106 0.399718 0.137310
-0.672084 0.413918 0.133910
-0.601006 0.444773 0.085726
-0.605106 0.399718 0.137310
-0.601006 0.444773 0.085726
-0.766962 0.429873 0.132510
-0.661206 0.454773 0.083726
-0.746484 0.470373 0.117826
0.614483 0.437873 0.000042
-0.588306 0.517527 0.000042
-0.809662 0.517527 0.108926
-0.832662 0.490073 0.096826
0.588283 0.517527 0.000042
-0.555429 0.599182 0.000042
0.555383 0.599182 0.000042
-0.518129 0.682136 0.000042
0.517605 0.664682 0.063826
0.508705 0.682136 0.071726
0.501705 0.699236 0.063826
0.498505 0.712536 0.039842
0.526705 0.651382 0.039842
-0.478551 0.765791 0.000042
0.478605 0.765791 0.000042
0.385657 0.023795 0.000036
0.346983 0.015498 0.000036
0.276137 0.008810 0.000036
0.163720 0.004407 0.000036
-0.157915 0.004407 0.043964
-0.276156 0.008810 0.000036
-0.163673 0.004407 0.000036
-0.346937 0.015498 0.000036
-0.385695 0.023795 0.000036
-0.419655 0.034180 0.000038
0.619961 0.238109 0.071826
0.615561 0.216809 0.063826
0.712638 0.287764 0.071826
0.711438 0.307364 0.063826
0.624861 0.259564 0.063826
0.713938 0.268263 0.063826
0.608883 0.198709 0.039842
-0.715384 0.250609 0.000042
-0.625606 0.219909 0.000042
0.794116 0.325063 0.063826
0.714938 0.253264 0.039842
0.855416 0.385318 0.063826
0.840516 0.400118 0.071826
0.785238 0.342118 0.071826
0.800816 0.311863 0.039842
0.776438 0.359218 0.063826
0.769638 0.372318 0.039842
0.710438 0.322363 0.039842
0.631161 0.277564 0.039842
-0.809462 0.345618 0.000042
0.898594 0.447773 0.063826
0.879194 0.459573 0.071826
0.866916 0.373918 0.039842
0.825616 0.414818 0.063826
0.859816 0.471273 0.063826
0.845016 0.480273 0.039842
0.814216 0.426173 0.039842
-0.850440 0.469073 0.060526
-0.857440 0.460673 0.000042
0.923994 0.511227 0.063826
0.901894 0.518327 0.071826
0.913394 0.438773 0.039842
0.879794 0.525427 0.063826
0.862816 0.530927 0.039842
-0.605906 0.463773 0.000042
-0.605906 0.463773 0.000042
-0.730684 0.501572 0.073626
-0.656906 0.471073 0.000042
-0.768862 0.565927 0.060526
-0.786562 0.544827 0.096826
-0.724384 0.514027 0.000042
-0.864640 0.595982 0.075826
-0.884340 0.584327 0.047326
-0.892240 0.579627 0.000042
0.932394 0.574327 0.063826
0.940994 0.505727 0.039842
0.909294 0.574327 0.071826
0.919794 0.626982 0.063826
0.897394 0.619682 0.071826
0.950094 0.574327 0.039842
0.886294 0.574327 0.063826
0.875094 0.612382 0.063826
0.857916 0.606782 0.039842
0.868516 0.574327 0.039842
-0.793762 0.637882 0.047326
-0.813462 0.626282 0.075826
-0.761762 0.574327 0.000042
-0.839040 0.611082 0.085226
-0.936517 0.688336 0.037242
-0.946417 0.686636 0.000042
0.882294 0.662282 0.063826
0.862016 0.650082 0.071826
0.936994 0.632582 0.039842
0.841916 0.637882 0.063826
0.803616 0.668582 0.071826
0.820016 0.683636 0.063826
0.897794 0.671636 0.039842
0.826316 0.628582 0.039842
0.787316 0.653382 0.063826
0.774738 0.641782 0.039842
0.712138 0.661382 0.063826
0.722638 0.678036 0.071826
0.704038 0.648582 0.039842
0.616861 0.664282 0.063826
0.614883 0.651082 0.039842
0.517605 0.664682 0.063826
0.526705 0.651382 0.039842
0.619461 0.681536 0.071826
0.508705 0.682136 0.071726
-0.847940 0.703536 0.059626
-0.785862 0.642582 0.000042
-0.823362 0.707736 0.037242
-0.879940 0.698036 0.067126
-0.911940 0.692536 0.059626
0.733138 0.694636 0.063826
0.832516 0.695336 0.039842
0.622061 0.698736 0.063826
0.741238 0.707436 0.039842
0.501705 0.699236 0.063826
0.624061 0.711936 0.039842
0.498505 0.712536 0.039842
-0.911140 0.765791 0.053226
-0.957217 0.765791 0.059826
-1.003320 0.765791 0.053226
-1.038700 0.765791 0.033242
-0.875640 0.765791 0.033242
0.442137 0.046795 -0.123052
0.473205 0.063900 -0.131726
0.404853 0.034180 -0.112652
0.372129 0.023795 -0.103581
0.334792 0.015498 -0.093167
0.266400 0.008810 -0.074117
0.157897 0.004407 -0.043976
-0.157915 0.004407 -0.043976
0.141641 0.004407 -0.083176
-0.141575 0.004407 -0.083176
-0.116195 0.004407 -0.116182
0.116241 0.004407 -0.116182
0.083156 0.004407 -0.141582
0.043956 0.004407 -0.157923
0.000033 0.004407 -0.163680
-0.043909 0.004407 -0.157923
-0.083175 0.004407 -0.141582
-0.266438 0.008810 -0.074117
-0.334745 0.015498 -0.093167
-0.372149 0.023795 -0.103581
-0.404893 0.034180 -0.112652
-0.442085 0.046795 -0.123052
-0.473151 0.063900 -0.131726
-0.501629 0.088654 -0.139626
0.538683 0.122654 -0.149926
0.611683 0.194209 0.000042
0.608883 0.198709 -0.039858
0.575783 0.166654 -0.160226
0.501705 0.088654 -0.139626
-0.538729 0.122654 -0.149926
-0.575729 0.166654 -0.160226
-0.604306 0.221209 -0.168226
0.715338 0.247209 0.000042
0.611683 0.194209 0.000042
0.608883 0.198709 -0.039858
0.714938 0.253264 -0.039858
0.803616 0.306664 0.000042
0.615461 0.216609 -0.063542
0.615461 0.216609 -0.063542
-0.617706 0.235909 -0.085942
-0.711084 0.266964 -0.083742
-0.617706 0.235909 -0.085942
-0.803162 0.358118 -0.073642
0.800816 0.311863 -0.039858
0.871416 0.369418 0.000042
0.713938 0.268263 -0.063842
0.866916 0.373918 -0.039858
0.794116 0.325063 -0.063842
0.710038 0.328364 0.000042
0.766938 0.377518 0.000042
0.710438 0.322363 -0.039858
0.769638 0.372318 -0.039858
0.638161 0.287163 0.000042
0.631161 0.277564 -0.039858
0.776438 0.359218 -0.063842
0.711438 0.307364 -0.063842
0.631161 0.277564 -0.039858
0.615661 0.287163 -0.171326
0.624861 0.259564 -0.063842
0.624861 0.259564 -0.063842
0.919394 0.435173 0.000042
0.913394 0.438773 -0.039858
0.855416 0.385318 -0.063842
0.814216 0.426173 -0.039858
0.825616 0.414818 -0.063842
0.809616 0.430773 0.000042
0.609583 0.360818 -0.169626
-0.850440 0.469073 -0.060442
0.947794 0.503627 0.000042
0.940994 0.505727 -0.039858
0.898594 0.447773 -0.063842
0.845016 0.480273 -0.039858
0.839016 0.483873 0.000042
0.862816 0.530927 -0.039858
0.879794 0.525427 -0.063842
0.859816 0.471273 -0.063842
0.856016 0.533127 0.000042
0.592883 0.437873 -0.165026
-0.601006 0.444773 -0.085742
-0.601006 0.444773 -0.085742
-0.661206 0.454773 -0.083742
-0.884340 0.584327 -0.047342
0.957194 0.574327 0.000042
0.950094 0.574327 -0.039858
0.943894 0.634782 0.000042
0.923994 0.511227 -0.063842
0.936994 0.632582 -0.039858
0.932394 0.574327 -0.063842
0.868516 0.574327 -0.039858
0.861516 0.574327 0.000042
0.857916 0.606782 -0.039858
0.875094 0.612382 -0.063842
0.886294 0.574327 -0.063842
0.851016 0.604582 0.000042
0.567583 0.517527 -0.157926
-0.535829 0.599182 -0.149126
-0.567529 0.517527 -0.157926
-0.730684 0.501572 -0.073642
-0.768862 0.565927 -0.060442
-0.936517 0.688336 -0.037258
0.903994 0.675336 0.000042
0.897794 0.671636 -0.039858
0.919794 0.626982 -0.063842
0.826316 0.628582 -0.039858
0.841916 0.637882 -0.063842
0.820116 0.624882 0.000042
0.769738 0.637082 0.000042
0.774738 0.641782 -0.039858
0.787316 0.653382 -0.063842
0.700738 0.643482 0.000042
0.704038 0.648582 -0.039858
0.712138 0.661382 -0.063842
0.614083 0.645782 0.000042
0.614883 0.651082 -0.039858
0.616861 0.664282 -0.063842
0.534283 0.645982 0.000042
0.526705 0.651382 -0.039858
0.517605 0.664682 -0.063842
0.534283 0.645982 0.000042
0.526705 0.651382 -0.039858
0.535883 0.599182 -0.149126
0.517605 0.664682 -0.063842
-0.499929 0.682136 -0.139126
-0.813462 0.709436 0.000042
-0.793762 0.637882 -0.047342
0.837516 0.699936 0.000042
0.832516 0.695336 -0.039858
0.882294 0.662282 -0.063842
0.744438 0.712536 0.000042
0.741238 0.707436 -0.039858
0.820016 0.683636 -0.063842
0.624861 0.717236 0.000042
0.624061 0.711936 -0.039858
0.733138 0.694636 -0.063842
0.501205 0.717836 0.000042
0.498505 0.712536 -0.039858
0.622061 0.698736 -0.063842
0.501205 0.717836 0.000042
0.498505 0.712536 -0.039858
0.501705 0.699236 -0.063842
0.499905 0.682136 -0.139126
0.501705 0.699236 -0.063842
-0.461751 0.765791 -0.128526
-0.823362 0.707736 -0.037258
-0.861440 0.765791 0.000042
-0.875640 0.765791 -0.033258
-0.813462 0.626282 -0.075742
-0.847940 0.703536 -0.059642
-1.052900 0.765791 0.000042
-1.038700 0.765791 -0.033258
-1.003320 0.765791 -0.053142
-0.911940 0.692536 -0.059642
0.461805 0.765791 -0.128526
-0.911140 0.765791 -0.053142
0.333691 0.023795 -0.196009
0.363061 0.034180 -0.213216
0.300182 0.015498 -0.176295
0.238884 0.008810 -0.140312
-0.238922 0.008810 -0.140312
-0.196100 0.008810 -0.196093
-0.300201 0.015498 -0.176295
-0.333729 0.023795 -0.196009
-0.363082 0.034180 -0.213216
-0.396416 0.046795 -0.232851
0.619961 0.238109 -0.071742
0.712638 0.287764 -0.071742
0.619961 0.238109 -0.071742
0.604283 0.221209 -0.168226
-0.619406 0.283163 -0.137226
-0.619406 0.283163 -0.137226
0.785238 0.342118 -0.071742
-0.787462 0.389318 -0.117742
-0.700184 0.307763 -0.133926
0.840516 0.400118 -0.071742
0.879194 0.459573 -0.071742
-0.832662 0.490073 -0.096742
-0.809662 0.517527 -0.108842
-0.766962 0.429873 -0.132526
0.901894 0.518327 -0.071742
-0.605106 0.399718 -0.137226
-0.592906 0.437873 -0.165026
-0.605106 0.399718 -0.137226
-0.672084 0.413918 -0.133926
-0.746484 0.470373 -0.117742
-0.786562 0.544827 -0.096742
-0.686184 0.360818 -0.150626
-0.864640 0.595982 -0.075742
-0.839040 0.611082 -0.085242
0.909294 0.574327 -0.071742
0.897394 0.619682 -0.071742
0.862016 0.650082 -0.071742
0.803616 0.668582 -0.071742
0.722638 0.678036 -0.071742
0.619461 0.681536 -0.071742
0.508705 0.682136 -0.071742
0.508705 0.682136 -0.071742
-0.879940 0.698036 -0.067142
-0.957217 0.765791 -0.059842
0.396394 0.046795 -0.232851
0.424327 0.063900 -0.249210
0.196063 0.008810 -0.196093
0.246335 0.015498 -0.246300
0.140287 0.008810 -0.238934
0.074181 0.008810 -0.266437
0.000033 0.008810 -0.276174
-0.074116 0.008810 -0.266437
-0.140305 0.008810 -0.238934
-0.246372 0.015498 -0.246300
-0.273804 0.023795 -0.273802
-0.424251 0.063900 -0.249210
-0.449851 0.088654 -0.264210
0.483105 0.122654 -0.283710
0.516305 0.166654 -0.303293
0.449905 0.088654 -0.264210
-0.483051 0.122654 -0.283710
-0.516329 0.166654 -0.303293
-0.541829 0.221209 -0.318294
0.541883 0.221209 -0.318294
-0.615706 0.287163 -0.171326
-0.552129 0.287163 -0.324293
0.552083 0.287163 -0.324293
-0.613306 0.341718 -0.154326
-0.609606 0.360818 -0.169626
-0.546629 0.360818 -0.321093
-0.613306 0.341718 -0.154326
0.546683 0.360818 -0.321093
-0.531629 0.437873 -0.312293
0.531683 0.437873 -0.312293
-0.508929 0.517527 -0.298894
0.509005 0.517527 -0.298894
-0.480551 0.599182 -0.282210
0.480505 0.599182 -0.282210
-0.448251 0.682136 -0.263310
0.448305 0.682136 -0.263310
-0.414051 0.765791 -0.243210
0.414027 0.765791 -0.243210
0.325375 0.046795 -0.325322
0.348149 0.063900 -0.348193
0.297934 0.034180 -0.297973
0.273851 0.023795 -0.273802
0.176335 0.015498 -0.300219
-0.176288 0.015498 -0.300219
-0.093166 0.015498 -0.334748
-0.196015 0.023795 -0.333732
-0.297954 0.034180 -0.297973
-0.325302 0.046795 -0.325322
-0.348173 0.063900 -0.348193
-0.369173 0.088654 -0.369193
0.369127 0.088654 -0.369193
0.396427 0.122654 -0.396477
-0.396473 0.122654 -0.396477
-0.423751 0.166654 -0.423677
0.417627 0.517527 -0.417677
0.394327 0.599182 -0.394377
-0.367873 0.682136 -0.367894
-0.394373 0.599182 -0.394377
0.367827 0.682136 -0.367894
-0.339773 0.765791 -0.339794
0.339849 0.765791 -0.339794
0.232815 0.046795 -0.396441
0.249172 0.063900 -0.424277
0.213272 0.034180 -0.363016
0.195978 0.023795 -0.333732
0.093128 0.015498 -0.334748
0.000033 0.015498 -0.346940
-0.103580 0.023795 -0.372085
-0.213203 0.034180 -0.363016
-0.232837 0.046795 -0.396441
-0.249195 0.063900 -0.424277
-0.264195 0.088654 -0.449877
0.423727 0.166654 -0.423677
0.264172 0.088654 -0.449877
-0.283695 0.122654 -0.483061
-0.444651 0.221209 -0.444677
0.444705 0.221209 -0.444677
-0.453051 0.287163 -0.453077
0.453105 0.287163 -0.453077
-0.448651 0.360818 -0.448577
0.448605 0.360818 -0.448577
-0.436251 0.437873 -0.436277
0.436327 0.437873 -0.436277
-0.417651 0.517527 -0.417677
0.282249 0.599182 -0.480561
0.263272 0.682136 -0.448277
-0.243195 0.765791 -0.414077
-0.263295 0.682136 -0.448277
0.243172 0.765791 -0.414077
0.123022 0.046795 -0.442110
0.131694 0.063900 -0.473161
0.112698 0.034180 -0.404827
0.103542 0.023795 -0.372085
0.000034 0.034180 -0.419663
0.000037 0.046795 -0.458179
0.000033 0.023795 -0.385717
-0.112649 0.034180 -0.404827
-0.123065 0.046795 -0.442110
-0.131639 0.063900 -0.473161
0.000038 0.063900 -0.490461
-0.139639 0.088654 -0.501661
0.283749 0.122654 -0.483061
0.303249 0.166654 -0.516361
0.139594 0.088654 -0.501661
-0.149940 0.122654 -0.538761
-0.303295 0.166654 -0.516361
-0.318295 0.221209 -0.541861
0.318249 0.221209 -0.541861
-0.324295 0.287163 -0.552061
0.324249 0.287163 -0.552061
-0.321095 0.360818 -0.546661
0.321049 0.360818 -0.546661
-0.312295 0.437873 -0.531661
0.312249 0.437873 -0.531661
-0.298895 0.517527 -0.508961
0.298949 0.517527 -0.508961
-0.282195 0.599182 -0.480561
0.149094 0.599182 -0.535861
0.139094 0.682136 -0.499861
-0.128540 0.765791 -0.461777
-0.139140 0.682136 -0.499861
0.128494 0.765791 -0.461777
0.000038 0.682136 -0.518061
0.000038 0.765791 -0.478561
0.000038 0.088654 -0.519961
0.149894 0.122654 -0.538761
0.160294 0.166654 -0.575745
0.000038 0.122654 -0.558345
-0.160217 0.166654 -0.575745
0.000038 0.166654 -0.596745
-0.168217 0.221209 -0.604245
0.168194 0.221209 -0.604245
-0.171317 0.287163 -0.615645
0.171394 0.287163 -0.615645
-0.169617 0.360818 -0.609645
0.169694 0.360818 -0.609645
-0.165017 0.437873 -0.592845
0.164994 0.437873 -0.592845
-0.157917 0.517527 -0.567545
0.157994 0.517527 -0.567545
-0.149139 0.599182 -0.535861
0.000038 0.517527 -0.588245
0.000038 0.599182 -0.555445
0.000038 0.221209 -0.626345
0.000038 0.287163 -0.638145
0.000038 0.360818 -0.631845
0.000038 0.437873 -0.614545
3 0 1 2
3 0 3 4
3 0 4 1
3 0 5 3
3 0 6 5
3 0 2 6
3 1 7 2
3 1 8 7
3 1 4 9
3 1 9 8
3 7 8 10
3 7 11 2
3 7 12 11
3 7 10 12
3 8 9 13
3 8 14 10
3 8 13 14
3 3 15 16
3 3 16 4
3 3 5 17
3 3 17 15
3 4 16 18
3 4 18 9
3 9 18 19
3 9 19 13
3 15 20 21
3 15 21 16
3 15 17 22
3 15 22 20
3 16 21 23
3 16 23 18
3 18 23 24
3 18 24 19
3 20 25 26
3 20 26 21
3 20 22 27
3 20 27 25
3 21 26 28
3 21 28 23
3 23 28 29
3 23 29 24
3 25 30 31
3 25 31 26
3 25 27 32
3 25 32 30
3 26 31 33
3 26 33 28
3 28 33 34
3 28 34 29
3 30 35 31
3 30 32 36
3 30 36 37
3 30 37 35
3 31 35 38
3 31 38 33
3 33 38 39
3 33 39 34
3 35 37 40
3 35 40 41
3 35 41 38
3 42 43 44
3 42 11 12
3 42 12 43
3 42 45 11
3 42 46 45
3 42 44 46
3 43 47 44
3 43 48 47
3 43 12 49
3 43 49 48
3 47 50 51
3 47 48 52
3 47 51 44
3 47 52 50
3 50 53 51
3 50 54 53
3 50 55 54
3 50 52 55
3 48 49 56
3 48 57 52
3 48 56 57
3 5 6 58
3 5 59 17
3 5 58 59
3 6 2 60
3 6 60 61
3 6 61 58
3 2 11 60
3 11 45 60
3 12 10 49
3 49 10 62
3 49 62 56
3 10 14 62
3 62 14 63
3 62 64 56
3 62 63 64
3 14 13 65
3 14 65 63
3 17 59 66
3 17 66 22
3 13 19 67
3 13 67 65
3 22 66 68
3 22 68 27
3 19 24 69
3 19 69 67
3 27 68 70
3 27 70 32
3 24 29 71
3 24 71 69
3 32 70 72
3 32 72 36
3 29 34 73
3 29 73 71
3 36 74 37
3 36 72 75
3 36 75 74
3 34 39 76
3 34 76 73
3 74 77 37
3 74 75 78
3 74 78 79
3 74 79 77
3 37 77 40
3 38 41 80
3 38 80 39
3 39 80 81
3 39 81 76
3 77 82 40
3 77 79 83
3 77 83 82
3 40 82 84
3 40 84 41
3 41 84 85
3 41 85 80
3 45 46 86
3 45 87 60
3 45 86 87
3 46 88 89
3 46 44 88
3 46 89 86
3 88 90 91
3 88 44 51
3 88 51 90
3 88 91 89
3 90 51 53
3 90 53 92
3 90 92 93
3 90 93 91
3 53 94 92
3 53 54 94
3 94 54 95
3 94 95 96
3 94 96 97
3 94 97 92
3 54 98 95
3 54 55 98
3 95 99 100
3 95 98 99
3 95 100 96
3 99 98 101
3 99 101 102
3 99 103 100
3 99 102 103
3 98 55 104
3 98 104 101
3 55 52 105
3 55 105 104
3 52 57 105
3 101 104 106
3 101 107 102
3 101 106 107
3 104 105 108
3 104 108 106
3 105 57 109
3 105 109 108
3 57 56 110
3 57 110 109
3 59 58 111
3 59 112 66
3 59 111 112
3 58 61 113
3 58 113 111
3 60 87 61
3 56 64 110
3 64 63 114
3 64 114 115
3 64 115 110
3 63 65 116
3 63 116 114
3 66 112 117
3 66 117 68
3 65 67 118
3 65 118 116
3 68 117 119
3 68 119 70
3 67 69 120
3 67 120 118
3 70 119 121
3 70 121 72
3 69 71 122
3 69 122 120
3 72 121 123
3 72 123 75
3 71 73 124
3 71 124 122
3 75 123 125
3 75 125 78
3 73 76 126
3 73 126 124
3 78 125 127
3 78 128 79
3 78 127 128
3 76 81 129
3 76 129 126
3 79 130 83
3 79 128 130
3 80 85 131
3 80 131 81
3 130 128 132
3 87 86 133
3 87 134 61
3 87 133 134
3 86 89 135
3 86 135 133
3 89 91 136
3 89 136 135
3 91 93 137
3 91 137 136
3 92 138 93
3 92 97 138
3 96 100 139
3 96 140 97
3 96 139 140
3 100 103 141
3 100 141 139
3 103 102 142
3 103 142 143
3 103 143 141
3 102 107 144
3 102 144 142
3 107 106 145
3 107 146 144
3 107 145 146
3 106 108 147
3 106 147 145
3 108 109 148
3 108 148 147
3 109 110 149
3 109 149 148
3 112 111 150
3 112 151 117
3 112 150 151
3 61 134 113
3 110 115 149
3 114 116 152
3 114 153 115
3 114 152 153
3 117 151 154
3 117 154 119
3 116 118 155
3 116 155 152
3 119 154 156
3 119 156 121
3 118 120 157
3 118 157 155
3 121 156 158
3 121 158 123
3 120 122 159
3 120 159 157
3 123 158 160
3 123 160 125
3 122 124 161
3 122 161 159
3 125 160 162
3 125 162 127
3 124 126 163
3 124 163 161
3 128 127 164
3 128 164 132
3 81 131 165
3 81 165 129
3 132 164 166
3 134 133 167
3 134 168 113
3 134 167 168
3 133 135 169
3 133 169 167
3 135 136 170
3 135 170 169
3 136 137 171
3 136 171 170
3 93 138 172
3 93 172 137
3 138 97 173
3 138 173 174
3 138 174 172
3 97 140 173
3 142 175 176
3 142 144 175
3 142 176 143
3 175 144 177
3 175 178 176
3 175 179 178
3 175 177 179
3 144 146 177
3 146 145 180
3 146 181 177
3 146 180 181
3 145 147 182
3 145 182 180
3 147 148 183
3 147 183 182
3 148 149 184
3 148 184 183
3 111 113 185
3 111 185 150
3 113 168 185
3 149 115 186
3 149 186 184
3 115 153 186
3 127 162 187
3 127 187 164
3 126 129 188
3 126 188 163
3 164 187 189
3 164 189 166
3 129 165 190
3 129 190 188
3 166 189 191
3 168 167 192
3 168 193 185
3 168 192 193
3 167 169 194
3 167 194 192
3 137 172 195
3 137 195 171
3 172 196 195
3 172 174 196
3 173 140 197
3 173 197 174
3 140 139 197
3 139 141 197
3 141 143 197
3 143 176 197
3 176 178 197
3 178 179 198
3 178 198 197
3 179 177 199
3 179 200 198
3 179 199 200
3 177 181 199
3 182 183 201
3 182 202 180
3 182 201 202
3 183 184 203
3 183 203 201
3 151 150 204
3 151 205 154
3 151 204 205
3 150 185 206
3 150 206 204
3 185 193 206
3 184 186 207
3 184 207 203
3 186 153 208
3 186 208 207
3 153 152 209
3 153 209 208
3 154 210 156
3 154 211 210
3 154 205 212
3 154 212 211
3 152 155 213
3 152 213 214
3 152 214 209
3 156 210 215
3 156 215 216
3 156 217 158
3 156 216 217
3 155 157 218
3 155 218 213
3 219 220 221
3 219 222 220
3 219 221 223
3 220 222 224
3 220 224 225
3 220 225 226
3 220 226 221
3 158 217 227
3 158 227 160
3 228 229 224
3 228 224 222
3 228 230 229
3 231 157 159
3 231 218 157
3 231 159 232
3 229 233 224
3 229 230 234
3 229 234 235
3 229 235 233
3 224 233 225
3 160 227 236
3 160 236 162
3 159 161 237
3 159 237 232
3 233 235 238
3 233 239 225
3 233 238 239
3 162 236 240
3 162 240 187
3 161 163 241
3 161 241 237
3 187 240 242
3 187 242 189
3 163 188 243
3 163 243 241
3 189 244 245
3 189 245 246
3 189 246 247
3 189 242 248
3 189 248 244
3 189 247 191
3 188 190 249
3 188 249 243
3 191 247 250
3 169 170 251
3 169 251 194
3 170 171 252
3 170 252 251
3 171 195 253
3 171 253 252
3 195 196 254
3 195 254 253
3 196 174 197
3 196 197 254
3 198 255 197
3 198 200 255
3 255 200 256
3 255 257 197
3 255 256 257
3 200 199 258
3 200 258 256
3 199 181 259
3 199 259 258
3 181 180 260
3 181 260 259
3 180 202 260
3 261 262 263
3 261 263 264
3 261 264 265
3 262 266 263
3 262 267 266
3 223 221 268
3 223 268 269
3 270 266 271
3 270 272 273
3 270 273 274
3 270 274 266
3 270 275 272
3 270 271 275
3 266 274 263
3 266 267 271
3 263 274 276
3 263 276 264
3 264 276 277
3 264 278 265
3 264 277 278
3 265 278 279
3 221 226 280
3 221 280 268
3 272 281 282
3 272 282 273
3 272 275 283
3 272 283 281
3 273 284 274
3 273 282 285
3 273 285 284
3 284 276 274
3 284 285 286
3 284 286 287
3 284 287 276
3 276 287 277
3 225 239 288
3 225 288 226
3 226 288 289
3 226 289 280
3 281 290 291
3 281 291 282
3 281 283 292
3 281 292 290
3 282 291 293
3 282 293 285
3 285 293 294
3 285 294 286
3 232 237 295
3 230 296 234
3 234 297 235
3 234 296 298
3 234 298 297
3 297 299 300
3 297 300 235
3 297 298 301
3 297 301 299
3 235 300 238
3 239 238 302
3 239 303 288
3 239 302 303
3 288 303 304
3 288 304 289
3 305 290 306
3 305 307 290
3 305 308 309
3 305 309 307
3 305 310 308
3 305 306 310
3 290 307 291
3 290 292 306
3 307 311 291
3 307 309 312
3 307 312 311
3 291 311 293
3 311 312 313
3 311 314 293
3 311 313 314
3 293 314 294
3 299 315 316
3 299 316 300
3 299 301 317
3 299 317 315
3 300 316 318
3 300 318 238
3 238 318 302
3 303 302 319
3 303 319 320
3 303 320 304
3 308 321 322
3 308 322 309
3 308 310 323
3 308 323 321
3 309 322 324
3 309 324 312
3 321 325 322
3 321 326 325
3 321 323 327
3 321 327 326
3 312 324 328
3 312 328 313
3 322 325 329
3 322 329 324
3 324 329 330
3 324 330 328
3 325 331 329
3 325 326 332
3 325 332 331
3 329 331 333
3 329 333 330
3 331 334 335
3 331 332 334
3 331 335 333
3 334 336 337
3 334 332 338
3 334 338 336
3 334 337 335
3 336 338 339
3 315 340 316
3 315 317 341
3 315 341 342
3 315 342 340
3 316 340 343
3 316 343 318
3 318 343 344
3 318 344 302
3 302 344 319
3 326 345 332
3 326 327 346
3 326 346 345
3 345 347 338
3 345 338 332
3 345 346 348
3 345 348 347
3 347 339 338
3 347 349 339
3 347 348 350
3 347 350 349
3 349 350 351
3 340 352 353
3 340 353 343
3 340 342 352
3 343 353 354
3 343 354 344
3 344 354 355
3 344 355 319
3 352 342 356
3 193 192 357
3 193 358 206
3 193 357 358
3 192 194 359
3 192 359 357
3 194 251 360
3 194 360 359
3 251 252 361
3 251 361 360
3 252 253 362
3 252 362 361
3 253 254 363
3 253 363 362
3 254 197 363
3 197 257 364
3 197 365 363
3 197 366 367
3 197 364 366
3 197 368 365
3 197 369 368
3 197 370 369
3 197 371 370
3 197 372 371
3 197 373 372
3 197 367 373
3 257 256 374
3 257 374 364
3 256 258 375
3 256 375 374
3 258 259 376
3 258 376 375
3 259 260 377
3 259 377 376
3 260 202 378
3 260 378 377
3 202 201 379
3 202 379 378
3 201 203 380
3 201 380 379
3 205 204 381
3 205 382 212
3 205 383 382
3 205 384 383
3 205 381 384
3 204 206 385
3 204 385 381
3 206 358 385
3 203 207 386
3 203 386 380
3 207 208 387
3 207 387 386
3 208 209 388
3 208 388 387
3 389 390 391
3 389 391 392
3 389 393 275
3 389 275 271
3 389 271 390
3 389 392 393
3 390 271 267
3 383 384 394
3 391 395 392
3 209 396 388
3 269 268 397
3 269 397 398
3 268 280 399
3 268 399 397
3 393 400 401
3 393 392 400
3 393 401 283
3 393 283 275
3 400 392 402
3 400 403 401
3 400 404 403
3 400 402 404
3 392 395 402
3 278 405 279
3 278 277 406
3 278 406 405
3 407 405 408
3 407 409 405
3 407 410 409
3 407 408 411
3 407 412 410
3 407 411 412
3 405 409 279
3 405 406 408
3 217 413 414
3 217 414 227
3 410 412 415
3 413 416 414
3 401 403 417
3 401 417 292
3 401 292 283
3 403 418 417
3 403 404 419
3 403 419 418
3 408 406 420
3 408 420 421
3 408 421 411
3 277 287 422
3 277 422 406
3 406 422 420
3 227 414 423
3 227 423 236
3 280 289 424
3 280 424 399
3 417 418 425
3 417 425 306
3 417 306 292
3 418 426 425
3 418 419 427
3 418 427 426
3 428 429 430
3 428 420 422
3 428 422 429
3 428 430 431
3 428 432 420
3 428 431 432
3 286 429 287
3 286 294 433
3 286 433 429
3 429 422 287
3 429 433 430
3 420 432 421
3 236 423 434
3 236 434 240
3 296 435 298
3 295 237 436
3 298 435 437
3 298 437 301
3 289 304 438
3 289 438 424
3 439 310 425
3 439 440 441
3 439 425 426
3 439 426 440
3 439 441 323
3 439 323 310
3 310 306 425
3 440 426 442
3 440 443 441
3 440 444 443
3 440 442 444
3 426 427 442
3 445 430 433
3 445 446 447
3 445 433 446
3 445 447 448
3 445 449 430
3 445 448 449
3 314 446 294
3 314 313 450
3 314 450 446
3 430 449 431
3 294 446 433
3 446 450 447
3 240 434 451
3 240 451 242
3 237 241 452
3 237 453 436
3 237 452 453
3 301 437 454
3 301 454 317
3 317 454 455
3 317 455 341
3 304 456 438
3 304 320 456
3 441 443 457
3 441 457 327
3 441 327 323
3 443 458 457
3 443 444 459
3 443 459 458
3 447 450 460
3 447 460 461
3 447 461 448
3 313 328 462
3 313 462 450
3 450 462 460
3 328 330 463
3 328 463 462
3 460 462 464
3 460 464 465
3 460 465 461
3 462 463 464
3 330 333 466
3 330 466 463
3 464 463 467
3 464 467 468
3 464 468 465
3 463 466 467
3 333 335 469
3 333 469 466
3 467 466 470
3 467 470 471
3 467 471 468
3 466 469 470
3 335 472 469
3 335 337 472
3 470 469 473
3 470 473 474
3 470 474 471
3 469 472 473
3 242 475 248
3 242 476 475
3 242 451 477
3 242 477 476
3 476 477 478
3 241 243 479
3 241 479 452
3 341 480 342
3 341 455 481
3 341 481 480
3 457 458 482
3 457 482 346
3 457 346 327
3 458 483 482
3 458 459 484
3 458 484 483
3 482 483 485
3 482 485 348
3 482 348 346
3 483 486 485
3 483 484 487
3 483 487 486
3 485 486 488
3 485 488 350
3 485 350 348
3 486 489 488
3 486 487 490
3 486 490 489
3 488 489 491
3 488 491 351
3 488 351 350
3 489 492 491
3 489 490 493
3 489 493 492
3 494 495 250
3 494 250 247
3 495 496 497
3 495 497 250
3 492 493 498
3 243 249 499
3 243 499 479
3 480 500 501
3 480 501 356
3 480 356 342
3 480 481 500
3 500 502 501
3 500 481 503
3 500 503 504
3 500 504 502
3 319 355 505
3 319 505 320
3 456 320 506
3 456 506 507
3 456 508 438
3 456 507 508
3 320 505 506
3 250 497 509
3 502 504 510
3 359 360 511
3 359 512 357
3 359 511 512
3 360 361 513
3 360 513 511
3 361 362 514
3 361 514 513
3 362 363 365
3 362 365 514
3 365 368 514
3 366 364 515
3 366 515 516
3 366 516 367
3 364 374 515
3 374 375 517
3 374 517 515
3 375 376 518
3 375 518 517
3 376 377 519
3 376 519 518
3 377 378 520
3 377 520 519
3 521 402 395
3 521 522 402
3 521 415 522
3 523 394 524
3 523 524 416
3 394 384 524
3 398 397 525
3 396 526 388
3 404 402 522
3 404 522 527
3 404 527 419
3 522 412 527
3 522 415 412
3 412 411 527
3 416 524 414
3 397 528 529
3 397 399 528
3 397 529 525
3 419 530 427
3 419 527 530
3 530 421 531
3 530 527 411
3 530 411 421
3 530 531 427
3 421 432 531
3 528 399 532
3 528 532 533
3 528 533 534
3 528 534 529
3 399 424 532
3 427 531 442
3 531 432 535
3 531 535 442
3 432 431 535
3 435 536 437
3 436 537 538
3 436 453 537
3 437 536 539
3 437 539 454
3 454 540 455
3 454 539 540
3 540 541 455
3 540 539 542
3 540 542 534
3 540 534 541
3 532 424 543
3 532 544 533
3 532 543 544
3 424 438 543
3 444 442 535
3 444 545 459
3 444 535 545
3 545 535 431
3 545 449 546
3 545 431 449
3 545 546 459
3 449 448 546
3 455 541 481
3 541 533 503
3 541 503 481
3 541 534 533
3 533 544 503
3 438 508 543
3 459 546 484
3 546 448 547
3 546 547 484
3 484 547 487
3 448 461 547
3 547 461 548
3 547 548 487
3 461 465 548
3 548 465 549
3 548 490 487
3 548 549 490
3 465 468 549
3 468 471 550
3 468 550 549
3 471 474 551
3 471 551 550
3 478 477 497
3 478 497 552
3 503 544 504
3 544 543 553
3 544 553 504
3 543 508 553
3 490 549 493
3 549 550 493
3 493 550 498
3 550 551 498
3 552 497 496
3 504 553 510
3 553 508 554
3 553 554 510
3 508 507 554
3 358 357 555
3 358 556 385
3 358 555 556
3 357 512 555
3 513 514 557
3 513 558 511
3 513 557 558
3 514 368 557
3 368 369 557
3 369 370 559
3 369 559 557
3 370 371 560
3 370 560 559
3 371 372 561
3 371 561 560
3 372 373 562
3 372 562 561
3 373 367 563
3 373 563 562
3 367 516 563
3 515 517 564
3 515 564 516
3 517 518 565
3 517 565 564
3 378 379 566
3 378 566 520
3 379 380 567
3 379 567 566
3 384 381 568
3 384 568 569
3 384 569 524
3 381 385 570
3 381 570 568
3 385 556 570
3 380 386 571
3 380 571 567
3 386 387 572
3 386 572 571
3 387 388 573
3 387 573 572
3 524 569 574
3 524 574 414
3 388 575 576
3 388 526 575
3 388 576 573
3 414 574 577
3 414 577 423
3 575 526 578
3 575 579 580
3 575 578 579
3 575 580 576
3 525 529 581
3 529 542 581
3 529 534 542
3 423 577 582
3 423 582 434
3 538 579 578
3 538 537 579
3 536 581 542
3 536 542 539
3 579 537 583
3 579 583 580
3 434 582 584
3 434 584 451
3 537 453 585
3 537 585 583
3 451 584 586
3 451 586 477
3 453 452 587
3 453 587 585
3 477 588 497
3 477 586 588
3 452 479 589
3 452 589 587
3 497 588 590
3 497 590 509
3 479 499 591
3 479 591 589
3 509 590 592
3 556 555 593
3 556 594 570
3 556 593 594
3 555 512 595
3 555 595 593
3 512 511 596
3 512 596 595
3 511 558 596
3 558 557 559
3 558 559 597
3 558 597 596
3 559 560 597
3 563 516 598
3 563 598 599
3 563 599 562
3 516 564 598
3 564 565 600
3 564 600 598
3 518 519 601
3 518 601 565
3 519 520 602
3 519 602 601
3 520 566 603
3 520 603 602
3 566 567 604
3 566 604 603
3 568 570 605
3 568 605 606
3 568 606 569
3 570 594 605
3 567 571 607
3 567 607 604
3 571 572 608
3 571 608 607
3 588 586 609
3 588 609 610
3 588 610 590
3 587 589 611
3 587 611 612
3 587 612 585
3 590 613 592
3 590 610 613
3 589 591 614
3 589 614 611
3 592 613 615
3 594 593 616
3 594 617 605
3 594 616 617
3 593 595 618
3 593 618 616
3 595 596 619
3 595 619 618
3 596 597 619
3 597 560 620
3 597 620 619
3 560 561 620
3 561 562 621
3 561 621 620
3 562 599 621
3 598 622 599
3 598 600 622
3 565 601 623
3 565 623 600
3 601 602 624
3 601 624 623
3 602 603 625
3 602 625 624
3 603 604 626
3 603 626 625
3 569 627 574
3 569 606 627
3 605 617 628
3 605 628 606
3 604 607 629
3 604 629 626
3 572 573 630
3 572 630 608
3 574 627 631
3 574 631 577
3 573 576 632
3 573 632 630
3 577 631 633
3 577 633 582
3 576 580 634
3 576 634 632
3 582 633 635
3 582 635 584
3 580 583 636
3 580 636 634
3 584 635 637
3 584 637 586
3 583 585 638
3 583 638 636
3 586 637 609
3 585 612 638
3 613 610 639
3 613 640 615
3 613 639 640
3 611 614 641
3 611 642 612
3 611 641 642
3 615 640 643
3 617 616 644
3 617 644 645
3 617 645 628
3 616 618 646
3 616 646 644
3 618 619 647
3 618 647 646
3 619 620 647
3 644 646 648
3 644 649 645
3 644 648 649
3 646 647 650
3 646 650 648
3 647 620 621
3 647 621 650
3 650 621 599
3 650 599 622
3 650 622 648
3 622 651 648
3 622 600 651
3 651 652 649
3 651 600 623
3 651 623 652
3 651 649 648
3 652 623 624
3 652 624 653
3 652 654 649
3 652 653 654
3 624 625 653
3 625 626 655
3 625 655 653
3 627 606 656
3 627 657 631
3 627 656 657
3 606 628 656
3 628 645 658
3 628 658 656
3 626 659 655
3 626 629 659
3 607 608 660
3 607 660 629
3 608 630 661
3 608 661 660
3 631 657 662
3 631 662 633
3 630 632 663
3 630 663 661
3 633 662 664
3 633 664 635
3 632 634 665
3 632 665 663
3 635 664 666
3 635 666 637
3 634 636 667
3 634 667 665
3 637 666 668
3 637 668 609
3 636 638 669
3 636 669 667
3 609 668 670
3 609 670 610
3 638 612 671
3 638 671 669
3 610 670 639
3 612 642 671
3 640 639 672
3 640 672 673
3 640 673 643
3 642 674 675
3 642 641 674
3 642 675 671
3 643 673 676
3 676 673 677
3 676 677 678
3 674 678 675
3 645 654 658
3 645 649 654
3 654 653 679
3 654 679 658
3 653 655 679
3 657 656 680
3 657 680 681
3 657 681 662
3 656 658 680
3 680 658 679
3 680 679 682
3 680 682 681
3 679 655 682
3 655 659 682
3 659 629 683
3 659 684 682
3 659 683 684
3 629 660 683
3 660 661 685
3 660 685 683
3 662 681 686
3 662 686 664
3 661 663 687
3 661 687 685
3 664 686 688
3 664 688 666
3 663 665 689
3 663 689 687
3 666 688 690
3 666 690 668
3 665 667 691
3 665 691 689
3 668 690 692
3 668 692 670
3 667 669 693
3 667 693 691
3 670 692 694
3 670 694 639
3 669 695 693
3 669 671 695
3 639 694 672
3 672 694 696
3 672 696 697
3 672 697 673
3 695 671 675
3 695 677 697
3 695 675 677
3 695 697 693
3 673 697 677
3 677 675 678
3 681 684 686
3 681 682 684
3 684 683 698
3 684 698 686
3 683 685 698
3 686 698 688
3 698 685 699
3 698 699 688
3 685 687 699
3 688 699 690
3 699 687 700
3 699 700 690
3 687 689 700
3 690 700 692
3 700 689 701
3 700 701 692
3 689 691 701
3 692 701 694
3 701 691 696
3 701 696 694
3 691 693 696
3 696 693 697
