ply
format ascii 1.0
comment VCGLIB generated
element vertex 164
property float x
property float y
property float z
element face 324
property list uchar int vertex_indices
property list uchar float texcoord
property uchar red
property uchar green
property uchar blue
property uchar alpha
end_header
-10.0001 -9.99999 19.99995 
-5.833517 -9.999984 15.83332 
-5.000142 -10.00004 19.99998 
-10.00007 -9.999954 14.99994 
-10.00006 -9.999995 9.999939 
-6.111283 -9.999984 12.77778 
-10.00004 -10.00004 4.999936 
-5.833374 -9.999984 5.833375 
-7.314924 -9.999984 9.537045 
-10.00235 -9.999989 2.76566e-05 
-5.003535 -9.999954 5.72205e-05 
-2.592483 -9.999984 2.037102 
4.996471 -10.00003 -1.71661e-05 
0.7408531 -9.999984 2.037051 
-0.003531768 -9.999994 2.00272e-05 
5.247046 -9.999984 2.345637 
9.997649 -9.999989 4.7684e-06 
1.663282 -9.999984 4.92112 
-2.777804 -9.999984 6.111149 
9.99997 -10.00004 15 
5.833247 -9.999984 12.49995 
10.00001 -9.999994 10 
9.999904 -9.999989 20 
6.944337 -9.999984 15.83325 
4.999865 -9.999954 19.99995 
0.4936626 -9.999984 17.40736 
4.259136 -9.999984 16.11104 
-2.777971 -9.999984 16.1111 
10.00005 -9.999954 4.999997 
7.026798 -9.999984 6.61516 
-0.0001388589 -9.999995 19.99997 
-2.50022 -9.999984 12.50003 
-4.197649 -9.999984 9.382742 
1.665437 -9.999984 9.9737 
1.141451 -9.999984 12.86159 
3.451839 -9.999984 7.169993 
-10.00251 10.00002 6.86646e-05 
-5.84067 5.833531 -9.537e-07 
-10.00365 5.000018 5.72205e-05 
-5.003754 10.00009 2.09808e-05 
-0.003750554 10.00007 3.43323e-05 
-2.785124 6.111299 0 
4.996253 10.00006 4.76837e-05 
4.159281 5.83339 9.537e-07 
0.455611 7.31494 0 
9.997431 10.00002 4.57764e-05 
9.996268 5.000018 2.09808e-05 
7.955553 2.5925 9.537e-07 
9.996345 -4.999989 4.76837e-05 
7.955604 -0.7408361 9.537e-07 
9.996307 1.43051e-05 3.43323e-05 
7.647019 -5.24703 9.537e-07 
5.071535 -1.663266 9.537e-07 
3.881506 2.777822 9.537e-07 
-2.50729 -5.833231 0 
-5.840596 -6.944322 -9.537e-07 
-10.00362 -4.999989 -1.71661e-05 
-7.414701 -0.4936466 -9.537e-07 
-6.118387 -4.25912 -9.537e-07 
-6.118441 2.777987 -9.537e-07 
3.377496 -7.026782 0 
-10.00364 1.43051e-05 1.90735e-05 
-2.507378 2.500236 0 
0.6099129 4.197665 0 
0.01895576 -1.665421 0 
-2.868937 -1.141435 0 
2.822662 -3.451822 0 
10.00006 10.00002 19.99997 
5.833325 5.833531 20 
9.999979 5.000016 19.99994 
5.000083 10.00009 20.00002 
8.0168e-05 10.00007 19.99998 
2.777779 6.111299 20 
-4.999924 10.00005 19.99994 
-4.166625 5.833389 20 
-0.4629556 7.314939 20 
-9.999878 10.00002 19.99993 
-9.999943 5.000017 19.99998 
-7.962898 2.592498 20 
-10.00002 -4.99999 19.99995 
-7.962949 -0.7408371 20 
-9.999979 1.43051e-05 19.99997 
-7.654362 -5.247031 20 
-5.07888 -1.663266 20 
-3.88885 2.77782 20 
2.499945 -5.833232 20 
5.833251 -6.944323 20 
9.999953 -4.99999 20.00002 
7.407357 -0.4936476 20 
6.111042 -4.259121 20 
6.111096 2.777986 20 
-3.38484 -7.026783 20 
9.999967 1.33514e-05 19.99998 
2.500034 2.500235 20 
-0.6172574 4.197665 20 
-0.02630035 -1.665421 20 
2.861592 -1.141436 20 
-2.830007 -3.451823 20 
9.999999 5.833531 4.166676 
9.999969 10.00009 5.000058 
10.00001 10.00007 10.00006 
9.999999 6.111299 7.222222 
10.00005 10.00005 15.00006 
10 5.833389 14.16663 
10 7.314939 10.46296 
10 2.592498 17.9629 
10 -0.7408371 17.96295 
10 -5.24703 17.65436 
10 -1.663267 15.07888 
10 2.77782 13.88885 
10 -5.833231 7.500056 
10 -6.944322 4.166749 
10 -0.4936476 2.592644 
10 -4.25912 3.888958 
9.999999 2.777986 3.888905 
10 -7.026783 13.38484 
9.999999 2.500235 7.499967 
10 4.197665 10.61726 
10 -1.665421 10.0263 
10 -1.141436 7.138409 
10 -3.451823 12.83001 
-10 5.833532 15.83332 
-10.00004 10.00009 15 
-10.00006 10.00007 10 
-10 6.111299 12.77778 
-10.00008 10.00005 4.999997 
-10 5.83339 5.833375 
-10 7.31494 9.537045 
-10 2.592499 2.037101 
-10 -0.7408371 2.037052 
-10 -5.24703 2.345638 
-10 -1.663266 4.921119 
-10 2.777821 6.111149 
-9.999999 -5.833231 12.49994 
-9.999999 -6.944322 15.83325 
-9.999999 -0.4936466 17.40736 
-9.999999 -4.25912 16.11104 
-10 2.777987 16.1111 
-10 -7.026783 6.61516 
-10 2.500236 12.50003 
-10 4.197665 9.382743 
-9.999999 -1.665421 9.9737 
-9.999999 -1.141435 12.86159 
-10 -3.451823 7.169993 
-5.833516 10.00002 4.166675 
-6.111283 10.00002 7.222221 
-5.833374 10.00002 14.16663 
-7.314924 10.00002 10.46296 
-2.592482 10.00002 17.9629 
0.7408533 10.00002 17.96295 
5.247046 10.00002 17.65436 
1.663282 10.00002 15.07888 
-2.777804 10.00002 13.88885 
5.833247 10.00002 7.500055 
6.944338 10.00002 4.16675 
0.4936619 10.00002 2.592644 
4.259137 10.00002 3.888958 
-2.777971 10.00002 3.888905 
7.026798 10.00002 13.38484 
-2.50022 10.00002 7.499967 
-4.197649 10.00002 10.61726 
1.665437 10.00002 10.0263 
1.141451 10.00002 7.138409 
3.451839 10.00002 12.83001 
3 0 1 2 6 1.000000 1.000000 0.791668 0.791670 0.999999 0.750004 192 192 192 255 
3 3 4 5 6 0.750001 0.999998 0.500002 0.999997 0.638891 0.805559 192 192 192 255 
3 6 7 8 6 0.250003 0.999995 0.291673 0.791663 0.476855 0.865740 192 192 192 255 
3 6 9 10 6 0.250003 0.999995 0.000015 0.999982 0.000011 0.749987 192 192 192 255 
3 7 10 11 6 0.291673 0.791663 0.000011 0.749987 0.101860 0.629622 192 192 192 255 
3 12 13 14 6 0.000004 0.249995 0.101857 0.462958 0.000007 0.499991 192 192 192 255 
3 15 12 16 6 0.117287 0.237653 0.000004 0.249995 0.000000 0.000000 192 192 192 255 
3 13 17 18 6 0.101857 0.462958 0.246060 0.416837 0.305561 0.638888 192 192 192 255 
3 19 20 21 6 0.749997 0.000012 0.625000 0.208343 0.499998 0.000008 192 192 192 255 
3 22 23 19 6 0.999995 0.000018 0.791664 0.152789 0.749997 0.000012 192 192 192 255 
3 24 25 26 6 0.999996 0.250013 0.870369 0.475317 0.805554 0.287047 192 192 192 255 
3 2 1 27 6 0.999999 0.750004 0.791668 0.791670 0.805556 0.638896 192 192 192 255 
3 3 5 1 6 0.750001 0.999998 0.638891 0.805559 0.791668 0.791670 192 192 192 255 
3 28 29 15 6 0.249999 0.000004 0.330762 0.148667 0.117287 0.237653 192 192 192 255 
3 24 26 23 6 0.999996 0.250013 0.805554 0.287047 0.791664 0.152789 192 192 192 255 
3 7 11 18 6 0.291673 0.791663 0.101860 0.629622 0.305561 0.638888 192 192 192 255 
3 0 3 1 6 1.000000 1.000000 0.750001 0.999998 0.791668 0.791670 192 192 192 255 
3 2 27 30 6 0.999999 0.750004 0.805556 0.638896 0.999997 0.500009 192 192 192 255 
3 31 1 5 6 0.625004 0.625009 0.791668 0.791670 0.638891 0.805559 192 192 192 255 
3 7 18 32 6 0.291673 0.791663 0.305561 0.638888 0.469140 0.709879 192 192 192 255 
3 6 10 7 6 0.250003 0.999995 0.000011 0.749987 0.291673 0.791663 192 192 192 255 
3 6 8 4 6 0.250003 0.999995 0.476855 0.865740 0.500002 0.999997 192 192 192 255 
3 5 4 8 6 0.638891 0.805559 0.500002 0.999997 0.476855 0.865740 192 192 192 255 
3 5 32 31 6 0.638891 0.805559 0.469140 0.709879 0.625004 0.625009 192 192 192 255 
3 7 32 8 6 0.291673 0.791663 0.469140 0.709879 0.476855 0.865740 192 192 192 255 
3 33 34 31 6 0.498688 0.416730 0.643082 0.442928 0.625004 0.625009 192 192 192 255 
3 11 13 18 6 0.101860 0.629622 0.101857 0.462958 0.305561 0.638888 192 192 192 255 
3 10 14 11 6 0.000011 0.749987 0.000007 0.499991 0.101860 0.629622 192 192 192 255 
3 11 14 13 6 0.101860 0.629622 0.000007 0.499991 0.101857 0.462958 192 192 192 255 
3 20 33 35 6 0.625000 0.208343 0.498688 0.416730 0.358503 0.327411 192 192 192 255 
3 15 16 28 6 0.117287 0.237653 0.000000 0.000000 0.249999 0.000004 192 192 192 255 
3 13 12 15 6 0.101857 0.462958 0.000004 0.249995 0.117287 0.237653 192 192 192 255 
3 29 28 21 6 0.330762 0.148667 0.249999 0.000004 0.499998 0.000008 192 192 192 255 
3 34 25 27 6 0.643082 0.442928 0.870369 0.475317 0.805556 0.638896 192 192 192 255 
3 22 24 23 6 0.999995 0.000018 0.999996 0.250013 0.791664 0.152789 192 192 192 255 
3 20 19 23 6 0.625000 0.208343 0.749997 0.000012 0.791664 0.152789 192 192 192 255 
3 20 23 26 6 0.625000 0.208343 0.791664 0.152789 0.805554 0.287047 192 192 192 255 
3 34 33 20 6 0.643082 0.442928 0.498688 0.416730 0.625000 0.208343 192 192 192 255 
3 34 26 25 6 0.643082 0.442928 0.805554 0.287047 0.870369 0.475317 192 192 192 255 
3 1 31 27 6 0.791668 0.791670 0.625004 0.625009 0.805556 0.638896 192 192 192 255 
3 17 13 15 6 0.246060 0.416837 0.101857 0.462958 0.117287 0.237653 192 192 192 255 
3 29 21 20 6 0.330762 0.148667 0.499998 0.000008 0.625000 0.208343 192 192 192 255 
3 32 18 33 6 0.469140 0.709879 0.305561 0.638888 0.498688 0.416730 192 192 192 255 
3 35 17 15 6 0.358503 0.327411 0.246060 0.416837 0.117287 0.237653 192 192 192 255 
3 5 8 32 6 0.638891 0.805559 0.476855 0.865740 0.469140 0.709879 192 192 192 255 
3 32 33 31 6 0.469140 0.709879 0.498688 0.416730 0.625004 0.625009 192 192 192 255 
3 20 35 29 6 0.625000 0.208343 0.358503 0.327411 0.330762 0.148667 192 192 192 255 
3 33 18 17 6 0.498688 0.416730 0.305561 0.638888 0.246060 0.416837 192 192 192 255 
3 34 27 31 6 0.643082 0.442928 0.805556 0.638896 0.625004 0.625009 192 192 192 255 
3 34 20 26 6 0.643082 0.442928 0.625000 0.208343 0.805554 0.287047 192 192 192 255 
3 35 15 29 6 0.358503 0.327411 0.117287 0.237653 0.330762 0.148667 192 192 192 255 
3 33 17 35 6 0.498688 0.416730 0.246060 0.416837 0.358503 0.327411 192 192 192 255 
3 30 27 25 6 0.999997 0.500009 0.805556 0.638896 0.870369 0.475317 192 192 192 255 
3 24 30 25 6 0.999996 0.250013 0.999997 0.500009 0.870369 0.475317 192 192 192 255 
3 36 37 38 6 1.000000 1.000000 0.791668 0.791670 0.999999 0.750004 192 192 192 255 
3 39 40 41 6 0.750001 0.999998 0.500002 0.999997 0.638891 0.805559 192 192 192 255 
3 42 43 44 6 0.250003 0.999995 0.291673 0.791663 0.476855 0.865740 192 192 192 255 
3 42 45 46 6 0.250003 0.999995 0.000015 0.999982 0.000011 0.749987 192 192 192 255 
3 43 46 47 6 0.291673 0.791663 0.000011 0.749987 0.101860 0.629622 192 192 192 255 
3 48 49 50 6 0.000004 0.249995 0.101857 0.462958 0.000007 0.499991 192 192 192 255 
3 51 48 16 6 0.117287 0.237653 0.000004 0.249995 0.000000 0.000000 192 192 192 255 
3 49 52 53 6 0.101857 0.462958 0.246060 0.416837 0.305561 0.638888 192 192 192 255 
3 10 54 14 6 0.749997 0.000012 0.625000 0.208343 0.499998 0.000008 192 192 192 255 
3 9 55 10 6 0.999995 0.000018 0.791664 0.152789 0.749997 0.000012 192 192 192 255 
3 56 57 58 6 0.999996 0.250013 0.870369 0.475317 0.805554 0.287047 192 192 192 255 
3 38 37 59 6 0.999999 0.750004 0.791668 0.791670 0.805556 0.638896 192 192 192 255 
3 39 41 37 6 0.750001 0.999998 0.638891 0.805559 0.791668 0.791670 192 192 192 255 
3 12 60 51 6 0.249999 0.000004 0.330762 0.148667 0.117287 0.237653 192 192 192 255 
3 56 58 55 6 0.999996 0.250013 0.805554 0.287047 0.791664 0.152789 192 192 192 255 
3 43 47 53 6 0.291673 0.791663 0.101860 0.629622 0.305561 0.638888 192 192 192 255 
3 36 39 37 6 1.000000 1.000000 0.750001 0.999998 0.791668 0.791670 192 192 192 255 
3 38 59 61 6 0.999999 0.750004 0.805556 0.638896 0.999997 0.500009 192 192 192 255 
3 62 37 41 6 0.625004 0.625009 0.791668 0.791670 0.638891 0.805559 192 192 192 255 
3 43 53 63 6 0.291673 0.791663 0.305561 0.638888 0.469140 0.709879 192 192 192 255 
3 42 46 43 6 0.250003 0.999995 0.000011 0.749987 0.291673 0.791663 192 192 192 255 
3 42 44 40 6 0.250003 0.999995 0.476855 0.865740 0.500002 0.999997 192 192 192 255 
3 41 40 44 6 0.638891 0.805559 0.500002 0.999997 0.476855 0.865740 192 192 192 255 
3 41 63 62 6 0.638891 0.805559 0.469140 0.709879 0.625004 0.625009 192 192 192 255 
3 43 63 44 6 0.291673 0.791663 0.469140 0.709879 0.476855 0.865740 192 192 192 255 
3 64 65 62 6 0.498688 0.416730 0.643082 0.442928 0.625004 0.625009 192 192 192 255 
3 47 49 53 6 0.101860 0.629622 0.101857 0.462958 0.305561 0.638888 192 192 192 255 
3 46 50 47 6 0.000011 0.749987 0.000007 0.499991 0.101860 0.629622 192 192 192 255 
3 47 50 49 6 0.101860 0.629622 0.000007 0.499991 0.101857 0.462958 192 192 192 255 
3 54 64 66 6 0.625000 0.208343 0.498688 0.416730 0.358503 0.327411 192 192 192 255 
3 51 16 12 6 0.117287 0.237653 0.000000 0.000000 0.249999 0.000004 192 192 192 255 
3 49 48 51 6 0.101857 0.462958 0.000004 0.249995 0.117287 0.237653 192 192 192 255 
3 60 12 14 6 0.330762 0.148667 0.249999 0.000004 0.499998 0.000008 192 192 192 255 
3 65 57 59 6 0.643082 0.442928 0.870369 0.475317 0.805556 0.638896 192 192 192 255 
3 9 56 55 6 0.999995 0.000018 0.999996 0.250013 0.791664 0.152789 192 192 192 255 
3 54 10 55 6 0.625000 0.208343 0.749997 0.000012 0.791664 0.152789 192 192 192 255 
3 54 55 58 6 0.625000 0.208343 0.791664 0.152789 0.805554 0.287047 192 192 192 255 
3 65 64 54 6 0.643082 0.442928 0.498688 0.416730 0.625000 0.208343 192 192 192 255 
3 65 58 57 6 0.643082 0.442928 0.805554 0.287047 0.870369 0.475317 192 192 192 255 
3 37 62 59 6 0.791668 0.791670 0.625004 0.625009 0.805556 0.638896 192 192 192 255 
3 52 49 51 6 0.246060 0.416837 0.101857 0.462958 0.117287 0.237653 192 192 192 255 
3 60 14 54 6 0.330762 0.148667 0.499998 0.000008 0.625000 0.208343 192 192 192 255 
3 63 53 64 6 0.469140 0.709879 0.305561 0.638888 0.498688 0.416730 192 192 192 255 
3 66 52 51 6 0.358503 0.327411 0.246060 0.416837 0.117287 0.237653 192 192 192 255 
3 41 44 63 6 0.638891 0.805559 0.476855 0.865740 0.469140 0.709879 192 192 192 255 
3 63 64 62 6 0.469140 0.709879 0.498688 0.416730 0.625004 0.625009 192 192 192 255 
3 54 66 60 6 0.625000 0.208343 0.358503 0.327411 0.330762 0.148667 192 192 192 255 
3 64 53 52 6 0.498688 0.416730 0.305561 0.638888 0.246060 0.416837 192 192 192 255 
3 65 59 62 6 0.643082 0.442928 0.805556 0.638896 0.625004 0.625009 192 192 192 255 
3 65 54 58 6 0.643082 0.442928 0.625000 0.208343 0.805554 0.287047 192 192 192 255 
3 66 51 60 6 0.358503 0.327411 0.117287 0.237653 0.330762 0.148667 192 192 192 255 
3 64 52 66 6 0.498688 0.416730 0.246060 0.416837 0.358503 0.327411 192 192 192 255 
3 61 59 57 6 0.999997 0.500009 0.805556 0.638896 0.870369 0.475317 192 192 192 255 
3 56 61 57 6 0.999996 0.250013 0.999997 0.500009 0.870369 0.475317 192 192 192 255 
3 67 68 69 6 1.000000 1.000000 0.791668 0.791670 0.999999 0.750004 192 192 192 255 
3 70 71 72 6 0.750001 0.999998 0.500002 0.999997 0.638891 0.805559 192 192 192 255 
3 73 74 75 6 0.250003 0.999995 0.291673 0.791663 0.476855 0.865740 192 192 192 255 
3 73 76 77 6 0.250003 0.999995 0.000015 0.999982 0.000011 0.749987 192 192 192 255 
3 74 77 78 6 0.291673 0.791663 0.000011 0.749987 0.101860 0.629622 192 192 192 255 
3 79 80 81 6 0.000004 0.249995 0.101857 0.462958 0.000007 0.499991 192 192 192 255 
3 82 79 0 6 0.117287 0.237653 0.000004 0.249995 0.000000 0.000000 192 192 192 255 
3 80 83 84 6 0.101857 0.462958 0.246060 0.416837 0.305561 0.638888 192 192 192 255 
3 24 85 30 6 0.749997 0.000012 0.625000 0.208343 0.499998 0.000008 192 192 192 255 
3 22 86 24 6 0.999995 0.000018 0.791664 0.152789 0.749997 0.000012 192 192 192 255 
3 87 88 89 6 0.999996 0.250013 0.870369 0.475317 0.805554 0.287047 192 192 192 255 
3 69 68 90 6 0.999999 0.750004 0.791668 0.791670 0.805556 0.638896 192 192 192 255 
3 70 72 68 6 0.750001 0.999998 0.638891 0.805559 0.791668 0.791670 192 192 192 255 
3 2 91 82 6 0.249999 0.000004 0.330762 0.148667 0.117287 0.237653 192 192 192 255 
3 87 89 86 6 0.999996 0.250013 0.805554 0.287047 0.791664 0.152789 192 192 192 255 
3 74 78 84 6 0.291673 0.791663 0.101860 0.629622 0.305561 0.638888 192 192 192 255 
3 67 70 68 6 1.000000 1.000000 0.750001 0.999998 0.791668 0.791670 192 192 192 255 
3 69 90 92 6 0.999999 0.750004 0.805556 0.638896 0.999997 0.500009 192 192 192 255 
3 93 68 72 6 0.625004 0.625009 0.791668 0.791670 0.638891 0.805559 192 192 192 255 
3 74 84 94 6 0.291673 0.791663 0.305561 0.638888 0.469140 0.709879 192 192 192 255 
3 73 77 74 6 0.250003 0.999995 0.000011 0.749987 0.291673 0.791663 192 192 192 255 
3 73 75 71 6 0.250003 0.999995 0.476855 0.865740 0.500002 0.999997 192 192 192 255 
3 72 71 75 6 0.638891 0.805559 0.500002 0.999997 0.476855 0.865740 192 192 192 255 
3 72 94 93 6 0.638891 0.805559 0.469140 0.709879 0.625004 0.625009 192 192 192 255 
3 74 94 75 6 0.291673 0.791663 0.469140 0.709879 0.476855 0.865740 192 192 192 255 
3 95 96 93 6 0.498688 0.416730 0.643082 0.442928 0.625004 0.625009 192 192 192 255 
3 78 80 84 6 0.101860 0.629622 0.101857 0.462958 0.305561 0.638888 192 192 192 255 
3 77 81 78 6 0.000011 0.749987 0.000007 0.499991 0.101860 0.629622 192 192 192 255 
3 78 81 80 6 0.101860 0.629622 0.000007 0.499991 0.101857 0.462958 192 192 192 255 
3 85 95 97 6 0.625000 0.208343 0.498688 0.416730 0.358503 0.327411 192 192 192 255 
3 82 0 2 6 0.117287 0.237653 0.000000 0.000000 0.249999 0.000004 192 192 192 255 
3 80 79 82 6 0.101857 0.462958 0.000004 0.249995 0.117287 0.237653 192 192 192 255 
3 91 2 30 6 0.330762 0.148667 0.249999 0.000004 0.499998 0.000008 192 192 192 255 
3 96 88 90 6 0.643082 0.442928 0.870369 0.475317 0.805556 0.638896 192 192 192 255 
3 22 87 86 6 0.999995 0.000018 0.999996 0.250013 0.791664 0.152789 192 192 192 255 
3 85 24 86 6 0.625000 0.208343 0.749997 0.000012 0.791664 0.152789 192 192 192 255 
3 85 86 89 6 0.625000 0.208343 0.791664 0.152789 0.805554 0.287047 192 192 192 255 
3 96 95 85 6 0.643082 0.442928 0.498688 0.416730 0.625000 0.208343 192 192 192 255 
3 96 89 88 6 0.643082 0.442928 0.805554 0.287047 0.870369 0.475317 192 192 192 255 
3 68 93 90 6 0.791668 0.791670 0.625004 0.625009 0.805556 0.638896 192 192 192 255 
3 83 80 82 6 0.246060 0.416837 0.101857 0.462958 0.117287 0.237653 192 192 192 255 
3 91 30 85 6 0.330762 0.148667 0.499998 0.000008 0.625000 0.208343 192 192 192 255 
3 94 84 95 6 0.469140 0.709879 0.305561 0.638888 0.498688 0.416730 192 192 192 255 
3 97 83 82 6 0.358503 0.327411 0.246060 0.416837 0.117287 0.237653 192 192 192 255 
3 72 75 94 6 0.638891 0.805559 0.476855 0.865740 0.469140 0.709879 192 192 192 255 
3 94 95 93 6 0.469140 0.709879 0.498688 0.416730 0.625004 0.625009 192 192 192 255 
3 85 97 91 6 0.625000 0.208343 0.358503 0.327411 0.330762 0.148667 192 192 192 255 
3 95 84 83 6 0.498688 0.416730 0.305561 0.638888 0.246060 0.416837 192 192 192 255 
3 96 90 93 6 0.643082 0.442928 0.805556 0.638896 0.625004 0.625009 192 192 192 255 
3 96 85 89 6 0.643082 0.442928 0.625000 0.208343 0.805554 0.287047 192 192 192 255 
3 97 82 91 6 0.358503 0.327411 0.117287 0.237653 0.330762 0.148667 192 192 192 255 
3 95 83 97 6 0.498688 0.416730 0.246060 0.416837 0.358503 0.327411 192 192 192 255 
3 92 90 88 6 0.999997 0.500009 0.805556 0.638896 0.870369 0.475317 192 192 192 255 
3 87 92 88 6 0.999996 0.250013 0.999997 0.500009 0.870369 0.475317 192 192 192 255 
3 45 98 46 6 1.000000 1.000000 0.791668 0.791670 0.999999 0.750004 192 192 192 255 
3 99 100 101 6 0.750001 0.999998 0.500002 0.999997 0.638891 0.805559 192 192 192 255 
3 102 103 104 6 0.250003 0.999995 0.291673 0.791663 0.476855 0.865740 192 192 192 255 
3 102 67 69 6 0.250003 0.999995 0.000015 0.999982 0.000011 0.749987 192 192 192 255 
3 103 69 105 6 0.291673 0.791663 0.000011 0.749987 0.101860 0.629622 192 192 192 255 
3 87 106 92 6 0.000004 0.249995 0.101857 0.462958 0.000007 0.499991 192 192 192 255 
3 107 87 22 6 0.117287 0.237653 0.000004 0.249995 0.000000 0.000000 192 192 192 255 
3 106 108 109 6 0.101857 0.462958 0.246060 0.416837 0.305561 0.638888 192 192 192 255 
3 28 110 21 6 0.749997 0.000012 0.625000 0.208343 0.499998 0.000008 192 192 192 255 
3 16 111 28 6 0.999995 0.000018 0.791664 0.152789 0.749997 0.000012 192 192 192 255 
3 48 112 113 6 0.999996 0.250013 0.870369 0.475317 0.805554 0.287047 192 192 192 255 
3 46 98 114 6 0.999999 0.750004 0.791668 0.791670 0.805556 0.638896 192 192 192 255 
3 99 101 98 6 0.750001 0.999998 0.638891 0.805559 0.791668 0.791670 192 192 192 255 
3 19 115 107 6 0.249999 0.000004 0.330762 0.148667 0.117287 0.237653 192 192 192 255 
3 48 113 111 6 0.999996 0.250013 0.805554 0.287047 0.791664 0.152789 192 192 192 255 
3 103 105 109 6 0.291673 0.791663 0.101860 0.629622 0.305561 0.638888 192 192 192 255 
3 45 99 98 6 1.000000 1.000000 0.750001 0.999998 0.791668 0.791670 192 192 192 255 
3 46 114 50 6 0.999999 0.750004 0.805556 0.638896 0.999997 0.500009 192 192 192 255 
3 116 98 101 6 0.625004 0.625009 0.791668 0.791670 0.638891 0.805559 192 192 192 255 
3 103 109 117 6 0.291673 0.791663 0.305561 0.638888 0.469140 0.709879 192 192 192 255 
3 102 69 103 6 0.250003 0.999995 0.000011 0.749987 0.291673 0.791663 192 192 192 255 
3 102 104 100 6 0.250003 0.999995 0.476855 0.865740 0.500002 0.999997 192 192 192 255 
3 101 100 104 6 0.638891 0.805559 0.500002 0.999997 0.476855 0.865740 192 192 192 255 
3 101 117 116 6 0.638891 0.805559 0.469140 0.709879 0.625004 0.625009 192 192 192 255 
3 103 117 104 6 0.291673 0.791663 0.469140 0.709879 0.476855 0.865740 192 192 192 255 
3 118 119 116 6 0.498688 0.416730 0.643082 0.442928 0.625004 0.625009 192 192 192 255 
3 105 106 109 6 0.101860 0.629622 0.101857 0.462958 0.305561 0.638888 192 192 192 255 
3 69 92 105 6 0.000011 0.749987 0.000007 0.499991 0.101860 0.629622 192 192 192 255 
3 105 92 106 6 0.101860 0.629622 0.000007 0.499991 0.101857 0.462958 192 192 192 255 
3 110 118 120 6 0.625000 0.208343 0.498688 0.416730 0.358503 0.327411 192 192 192 255 
3 107 22 19 6 0.117287 0.237653 0.000000 0.000000 0.249999 0.000004 192 192 192 255 
3 106 87 107 6 0.101857 0.462958 0.000004 0.249995 0.117287 0.237653 192 192 192 255 
3 115 19 21 6 0.330762 0.148667 0.249999 0.000004 0.499998 0.000008 192 192 192 255 
3 119 112 114 6 0.643082 0.442928 0.870369 0.475317 0.805556 0.638896 192 192 192 255 
3 16 48 111 6 0.999995 0.000018 0.999996 0.250013 0.791664 0.152789 192 192 192 255 
3 110 28 111 6 0.625000 0.208343 0.749997 0.000012 0.791664 0.152789 192 192 192 255 
3 110 111 113 6 0.625000 0.208343 0.791664 0.152789 0.805554 0.287047 192 192 192 255 
3 119 118 110 6 0.643082 0.442928 0.498688 0.416730 0.625000 0.208343 192 192 192 255 
3 119 113 112 6 0.643082 0.442928 0.805554 0.287047 0.870369 0.475317 192 192 192 255 
3 98 116 114 6 0.791668 0.791670 0.625004 0.625009 0.805556 0.638896 192 192 192 255 
3 108 106 107 6 0.246060 0.416837 0.101857 0.462958 0.117287 0.237653 192 192 192 255 
3 115 21 110 6 0.330762 0.148667 0.499998 0.000008 0.625000 0.208343 192 192 192 255 
3 117 109 118 6 0.469140 0.709879 0.305561 0.638888 0.498688 0.416730 192 192 192 255 
3 120 108 107 6 0.358503 0.327411 0.246060 0.416837 0.117287 0.237653 192 192 192 255 
3 101 104 117 6 0.638891 0.805559 0.476855 0.865740 0.469140 0.709879 192 192 192 255 
3 117 118 116 6 0.469140 0.709879 0.498688 0.416730 0.625004 0.625009 192 192 192 255 
3 110 120 115 6 0.625000 0.208343 0.358503 0.327411 0.330762 0.148667 192 192 192 255 
3 118 109 108 6 0.498688 0.416730 0.305561 0.638888 0.246060 0.416837 192 192 192 255 
3 119 114 116 6 0.643082 0.442928 0.805556 0.638896 0.625004 0.625009 192 192 192 255 
3 119 110 113 6 0.643082 0.442928 0.625000 0.208343 0.805554 0.287047 192 192 192 255 
3 120 107 115 6 0.358503 0.327411 0.117287 0.237653 0.330762 0.148667 192 192 192 255 
3 118 108 120 6 0.498688 0.416730 0.246060 0.416837 0.358503 0.327411 192 192 192 255 
3 50 114 112 6 0.999997 0.500009 0.805556 0.638896 0.870369 0.475317 192 192 192 255 
3 48 50 112 6 0.999996 0.250013 0.999997 0.500009 0.870369 0.475317 192 192 192 255 
3 76 121 77 6 1.000000 1.000000 0.791668 0.791670 0.999999 0.750004 192 192 192 255 
3 122 123 124 6 0.750001 0.999998 0.500002 0.999997 0.638891 0.805559 192 192 192 255 
3 125 126 127 6 0.250003 0.999995 0.291673 0.791663 0.476855 0.865740 192 192 192 255 
3 125 36 38 6 0.250003 0.999995 0.000015 0.999982 0.000011 0.749987 192 192 192 255 
3 126 38 128 6 0.291673 0.791663 0.000011 0.749987 0.101860 0.629622 192 192 192 255 
3 56 129 61 6 0.000004 0.249995 0.101857 0.462958 0.000007 0.499991 192 192 192 255 
3 130 56 9 6 0.117287 0.237653 0.000004 0.249995 0.000000 0.000000 192 192 192 255 
3 129 131 132 6 0.101857 0.462958 0.246060 0.416837 0.305561 0.638888 192 192 192 255 
3 3 133 4 6 0.749997 0.000012 0.625000 0.208343 0.499998 0.000008 192 192 192 255 
3 0 134 3 6 0.999995 0.000018 0.791664 0.152789 0.749997 0.000012 192 192 192 255 
3 79 135 136 6 0.999996 0.250013 0.870369 0.475317 0.805554 0.287047 192 192 192 255 
3 77 121 137 6 0.999999 0.750004 0.791668 0.791670 0.805556 0.638896 192 192 192 255 
3 122 124 121 6 0.750001 0.999998 0.638891 0.805559 0.791668 0.791670 192 192 192 255 
3 6 138 130 6 0.249999 0.000004 0.330762 0.148667 0.117287 0.237653 192 192 192 255 
3 79 136 134 6 0.999996 0.250013 0.805554 0.287047 0.791664 0.152789 192 192 192 255 
3 126 128 132 6 0.291673 0.791663 0.101860 0.629622 0.305561 0.638888 192 192 192 255 
3 76 122 121 6 1.000000 1.000000 0.750001 0.999998 0.791668 0.791670 192 192 192 255 
3 77 137 81 6 0.999999 0.750004 0.805556 0.638896 0.999997 0.500009 192 192 192 255 
3 139 121 124 6 0.625004 0.625009 0.791668 0.791670 0.638891 0.805559 192 192 192 255 
3 126 132 140 6 0.291673 0.791663 0.305561 0.638888 0.469140 0.709879 192 192 192 255 
3 125 38 126 6 0.250003 0.999995 0.000011 0.749987 0.291673 0.791663 192 192 192 255 
3 125 127 123 6 0.250003 0.999995 0.476855 0.865740 0.500002 0.999997 192 192 192 255 
3 124 123 127 6 0.638891 0.805559 0.500002 0.999997 0.476855 0.865740 192 192 192 255 
3 124 140 139 6 0.638891 0.805559 0.469140 0.709879 0.625004 0.625009 192 192 192 255 
3 126 140 127 6 0.291673 0.791663 0.469140 0.709879 0.476855 0.865740 192 192 192 255 
3 141 142 139 6 0.498688 0.416730 0.643082 0.442928 0.625004 0.625009 192 192 192 255 
3 128 129 132 6 0.101860 0.629622 0.101857 0.462958 0.305561 0.638888 192 192 192 255 
3 38 61 128 6 0.000011 0.749987 0.000007 0.499991 0.101860 0.629622 192 192 192 255 
3 128 61 129 6 0.101860 0.629622 0.000007 0.499991 0.101857 0.462958 192 192 192 255 
3 133 141 143 6 0.625000 0.208343 0.498688 0.416730 0.358503 0.327411 192 192 192 255 
3 130 9 6 6 0.117287 0.237653 0.000000 0.000000 0.249999 0.000004 192 192 192 255 
3 129 56 130 6 0.101857 0.462958 0.000004 0.249995 0.117287 0.237653 192 192 192 255 
3 138 6 4 6 0.330762 0.148667 0.249999 0.000004 0.499998 0.000008 192 192 192 255 
3 142 135 137 6 0.643082 0.442928 0.870369 0.475317 0.805556 0.638896 192 192 192 255 
3 0 79 134 6 0.999995 0.000018 0.999996 0.250013 0.791664 0.152789 192 192 192 255 
3 133 3 134 6 0.625000 0.208343 0.749997 0.000012 0.791664 0.152789 192 192 192 255 
3 133 134 136 6 0.625000 0.208343 0.791664 0.152789 0.805554 0.287047 192 192 192 255 
3 142 141 133 6 0.643082 0.442928 0.498688 0.416730 0.625000 0.208343 192 192 192 255 
3 142 136 135 6 0.643082 0.442928 0.805554 0.287047 0.870369 0.475317 192 192 192 255 
3 121 139 137 6 0.791668 0.791670 0.625004 0.625009 0.805556 0.638896 192 192 192 255 
3 131 129 130 6 0.246060 0.416837 0.101857 0.462958 0.117287 0.237653 192 192 192 255 
3 138 4 133 6 0.330762 0.148667 0.499998 0.000008 0.625000 0.208343 192 192 192 255 
3 140 132 141 6 0.469140 0.709879 0.305561 0.638888 0.498688 0.416730 192 192 192 255 
3 143 131 130 6 0.358503 0.327411 0.246060 0.416837 0.117287 0.237653 192 192 192 255 
3 124 127 140 6 0.638891 0.805559 0.476855 0.865740 0.469140 0.709879 192 192 192 255 
3 140 141 139 6 0.469140 0.709879 0.498688 0.416730 0.625004 0.625009 192 192 192 255 
3 133 143 138 6 0.625000 0.208343 0.358503 0.327411 0.330762 0.148667 192 192 192 255 
3 141 132 131 6 0.498688 0.416730 0.305561 0.638888 0.246060 0.416837 192 192 192 255 
3 142 137 139 6 0.643082 0.442928 0.805556 0.638896 0.625004 0.625009 192 192 192 255 
3 142 133 136 6 0.643082 0.442928 0.625000 0.208343 0.805554 0.287047 192 192 192 255 
3 143 130 138 6 0.358503 0.327411 0.117287 0.237653 0.330762 0.148667 192 192 192 255 
3 141 131 143 6 0.498688 0.416730 0.246060 0.416837 0.358503 0.327411 192 192 192 255 
3 81 137 135 6 0.999997 0.500009 0.805556 0.638896 0.870369 0.475317 192 192 192 255 
3 79 81 135 6 0.999996 0.250013 0.999997 0.500009 0.870369 0.475317 192 192 192 255 
3 36 144 39 6 1.000000 1.000000 0.791668 0.791670 0.999999 0.750004 192 192 192 255 
3 125 123 145 6 0.750001 0.999998 0.500002 0.999997 0.638891 0.805559 192 192 192 255 
3 122 146 147 6 0.250003 0.999995 0.291673 0.791663 0.476855 0.865740 192 192 192 255 
3 122 76 73 6 0.250003 0.999995 0.000015 0.999982 0.000011 0.749987 192 192 192 255 
3 146 73 148 6 0.291673 0.791663 0.000011 0.749987 0.101860 0.629622 192 192 192 255 
3 70 149 71 6 0.000004 0.249995 0.101857 0.462958 0.000007 0.499991 192 192 192 255 
3 150 70 67 6 0.117287 0.237653 0.000004 0.249995 0.000000 0.000000 192 192 192 255 
3 149 151 152 6 0.101857 0.462958 0.246060 0.416837 0.305561 0.638888 192 192 192 255 
3 99 153 100 6 0.749997 0.000012 0.625000 0.208343 0.499998 0.000008 192 192 192 255 
3 45 154 99 6 0.999995 0.000018 0.791664 0.152789 0.749997 0.000012 192 192 192 255 
3 42 155 156 6 0.999996 0.250013 0.870369 0.475317 0.805554 0.287047 192 192 192 255 
3 39 144 157 6 0.999999 0.750004 0.791668 0.791670 0.805556 0.638896 192 192 192 255 
3 125 145 144 6 0.750001 0.999998 0.638891 0.805559 0.791668 0.791670 192 192 192 255 
3 102 158 150 6 0.249999 0.000004 0.330762 0.148667 0.117287 0.237653 192 192 192 255 
3 42 156 154 6 0.999996 0.250013 0.805554 0.287047 0.791664 0.152789 192 192 192 255 
3 146 148 152 6 0.291673 0.791663 0.101860 0.629622 0.305561 0.638888 192 192 192 255 
3 36 125 144 6 1.000000 1.000000 0.750001 0.999998 0.791668 0.791670 192 192 192 255 
3 39 157 40 6 0.999999 0.750004 0.805556 0.638896 0.999997 0.500009 192 192 192 255 
3 159 144 145 6 0.625004 0.625009 0.791668 0.791670 0.638891 0.805559 192 192 192 255 
3 146 152 160 6 0.291673 0.791663 0.305561 0.638888 0.469140 0.709879 192 192 192 255 
3 122 73 146 6 0.250003 0.999995 0.000011 0.749987 0.291673 0.791663 192 192 192 255 
3 122 147 123 6 0.250003 0.999995 0.476855 0.865740 0.500002 0.999997 192 192 192 255 
3 145 123 147 6 0.638891 0.805559 0.500002 0.999997 0.476855 0.865740 192 192 192 255 
3 145 160 159 6 0.638891 0.805559 0.469140 0.709879 0.625004 0.625009 192 192 192 255 
3 146 160 147 6 0.291673 0.791663 0.469140 0.709879 0.476855 0.865740 192 192 192 255 
3 161 162 159 6 0.498688 0.416730 0.643082 0.442928 0.625004 0.625009 192 192 192 255 
3 148 149 152 6 0.101860 0.629622 0.101857 0.462958 0.305561 0.638888 192 192 192 255 
3 73 71 148 6 0.000011 0.749987 0.000007 0.499991 0.101860 0.629622 192 192 192 255 
3 148 71 149 6 0.101860 0.629622 0.000007 0.499991 0.101857 0.462958 192 192 192 255 
3 153 161 163 6 0.625000 0.208343 0.498688 0.416730 0.358503 0.327411 192 192 192 255 
3 150 67 102 6 0.117287 0.237653 0.000000 0.000000 0.249999 0.000004 192 192 192 255 
3 149 70 150 6 0.101857 0.462958 0.000004 0.249995 0.117287 0.237653 192 192 192 255 
3 158 102 100 6 0.330762 0.148667 0.249999 0.000004 0.499998 0.000008 192 192 192 255 
3 162 155 157 6 0.643082 0.442928 0.870369 0.475317 0.805556 0.638896 192 192 192 255 
3 45 42 154 6 0.999995 0.000018 0.999996 0.250013 0.791664 0.152789 192 192 192 255 
3 153 99 154 6 0.625000 0.208343 0.749997 0.000012 0.791664 0.152789 192 192 192 255 
3 153 154 156 6 0.625000 0.208343 0.791664 0.152789 0.805554 0.287047 192 192 192 255 
3 162 161 153 6 0.643082 0.442928 0.498688 0.416730 0.625000 0.208343 192 192 192 255 
3 162 156 155 6 0.643082 0.442928 0.805554 0.287047 0.870369 0.475317 192 192 192 255 
3 144 159 157 6 0.791668 0.791670 0.625004 0.625009 0.805556 0.638896 192 192 192 255 
3 151 149 150 6 0.246060 0.416837 0.101857 0.462958 0.117287 0.237653 192 192 192 255 
3 158 100 153 6 0.330762 0.148667 0.499998 0.000008 0.625000 0.208343 192 192 192 255 
3 160 152 161 6 0.469140 0.709879 0.305561 0.638888 0.498688 0.416730 192 192 192 255 
3 163 151 150 6 0.358503 0.327411 0.246060 0.416837 0.117287 0.237653 192 192 192 255 
3 145 147 160 6 0.638891 0.805559 0.476855 0.865740 0.469140 0.709879 192 192 192 255 
3 160 161 159 6 0.469140 0.709879 0.498688 0.416730 0.625004 0.625009 192 192 192 255 
3 153 163 158 6 0.625000 0.208343 0.358503 0.327411 0.330762 0.148667 192 192 192 255 
3 161 152 151 6 0.498688 0.416730 0.305561 0.638888 0.246060 0.416837 192 192 192 255 
3 162 157 159 6 0.643082 0.442928 0.805556 0.638896 0.625004 0.625009 192 192 192 255 
3 162 153 156 6 0.643082 0.442928 0.625000 0.208343 0.805554 0.287047 192 192 192 255 
3 163 150 158 6 0.358503 0.327411 0.117287 0.237653 0.330762 0.148667 192 192 192 255 
3 161 151 163 6 0.498688 0.416730 0.246060 0.416837 0.358503 0.327411 192 192 192 255 
3 40 157 155 6 0.999997 0.500009 0.805556 0.638896 0.870369 0.475317 192 192 192 255 
3 42 40 155 6 0.999996 0.250013 0.999997 0.500009 0.870369 0.475317 192 192 192 255 
