ply
format ascii 1.0
comment Created by Blender 3.2.2 - www.blender.org
element vertex 16
property float x
property float y
property float z
element face 14
property list uchar uint vertex_indices
end_header
5.115470 -0.109928 -5.115470
5.115470 -0.109928 5.115470
-5.115470 -0.109928 5.115470
-5.115470 -0.109928 -5.115470
5.141421 9.987221 5.141421
-5.141421 9.987221 5.141421
-5.141421 9.987221 -5.141421
5.141421 9.987221 -5.141421
5.000000 0.000000 -5.000000
-5.000000 0.000000 -5.000000
-5.000000 0.000000 5.000000
5.000000 0.000000 5.000000
-5.000000 9.987221 5.000000
5.000000 9.987221 5.000000
5.000000 9.987221 -5.000000
-5.000000 9.987221 -5.000000
4 0 1 2 3
4 2 1 4 5
4 0 3 6 7
4 3 2 5 6
4 1 0 7 4
4 8 9 10 11
4 10 12 13 11
4 8 14 15 9
4 9 15 12 10
4 11 13 14 8
4 4 7 14 13
4 7 6 15 14
4 6 5 12 15
4 5 4 13 12
