v   7.0000  12.0000   0.0000
v   4.9700  12.0000  -4.9700
v   4.9811  12.4922  -4.9811
v   7.0156  12.4922   0.0000
v   5.3250  12.0000  -5.3250
v   7.5000  12.0000   0.0000
v   0.0000  12.0000  -7.0000
v   0.0000  12.4922  -7.0156
v   0.0000  12.0000  -7.5000
v  -5.1387  12.0000  -4.9700
v  -5.0022  12.4922  -4.9811
v  -5.3250  12.0000  -5.3250
v  -7.0000  12.0000   0.0000
v  -7.0156  12.4922   0.0000
v  -7.5000  12.0000   0.0000
v  -4.9700  12.0000   4.9700
v  -4.9811  12.4922   4.9811
v  -5.3250  12.0000   5.3250
v   0.0000  12.0000   7.0000
v   0.0000  12.4922   7.0156
v   0.0000  12.0000   7.5000
v   4.9700  12.0000   4.9700
v   4.9811  12.4922   4.9811
v   5.3250  12.0000   5.3250
v   6.5453   8.1094  -6.5453
v   9.2188   8.1094   0.0000
v   7.1000   4.5000  -7.1000
v  10.0000   4.5000   0.0000
v   0.0000   8.1094  -9.2188
v   0.0000   4.5000 -10.0000
v  -6.5453   8.1094  -6.5453
v  -7.1000   4.5000  -7.1000
v  -9.2188   8.1094   0.0000
v -10.0000   4.5000   0.0000
v  -6.5453   8.1094   6.5453
v  -7.1000   4.5000   7.1000
v   0.0000   8.1094   9.2188
v   0.0000   4.5000  10.0000
v   6.5453   8.1094   6.5453
v   7.1000   4.5000   7.1000
v   6.2125   1.9219  -6.2125
v   8.7500   1.9219   0.0000
v   5.3250   0.7500  -5.3250
v   7.5000   0.7500   0.0000
v   0.0000   1.9219  -8.7500
v   0.0000   0.7500  -7.5000
v  -6.2125   1.9219  -6.2125
v  -5.3250   0.7500  -5.3250
v  -8.7500   1.9219   0.0000
v  -7.5000   0.7500   0.0000
v  -6.2125   1.9219   6.2125
v  -5.3250   0.7500   5.3250
v   0.0000   1.9219   8.7500
v   0.0000   0.7500   7.5000
v   6.2125   1.9219   6.2125
v   5.3250   0.7500   5.3250
v   4.5595   0.2344  -4.5595
v   6.4219   0.2344   0.0000
v   0.0000   0.0000   0.0000
v   0.0000   0.2344  -6.4219
v  -4.5595   0.2344  -4.5595
v  -6.4219   0.2344   0.0000
v  -4.5595   0.2344   4.5595
v   0.0000   0.2344   6.4219
v   4.5595   0.2344   4.5595
v  -8.0000  10.1250   0.0000
v  -7.7500  10.6875  -1.1250
v -12.5938  10.4766  -1.1250
v -12.0625   9.9844   0.0000
v -14.2500   9.0000  -1.1250
v -13.5000   9.0000   0.0000
v  -7.5000  11.2500   0.0000
v -13.1250  10.9688   0.0000
v -15.0000   9.0000   0.0000
v  -7.7500  10.6875   1.1250
v -12.5938  10.4766   1.1250
v -14.2500   9.0000   1.1250
v -13.1719   6.2695  -1.1250
v -12.6875   6.7500   0.0000
v  -9.7500   3.7500  -1.1250
v -13.6563   5.7891   0.0000
v  -9.5000   3.0000   0.0000
v -13.1719   6.2695   1.1250
v  -9.7500   3.7500   1.1250
v   8.5000   7.1250   0.0000
v   8.5000   5.0625  -2.4750
v  12.6875   8.1094  -1.7062
v  11.9375   9.0000   0.0000
v  15.0000  12.0000  -0.9375
v  13.5000  12.0000   0.0000
v   8.5000   3.0000   0.0000
v  13.4375   7.2187   0.0000
v  16.5000  12.0000   0.0000
v   8.5000   5.0625   2.4750
v  12.6875   8.1094   1.7062
v  15.0000  12.0000   0.9375
v  15.6328  12.3340  -0.7500
v  14.1250  12.2813   0.0000
v  15.0000  12.0000  -0.5625
v  14.0000  12.0000   0.0000
v  17.1406  12.3867   0.0000
v  16.0000  12.0000   0.0000
v  15.6328  12.3340   0.7500
v  15.0000  12.0000   0.5625
v   1.1552  14.9063  -1.1552
v   1.6250  14.9063   0.0000
v   0.0000  15.7500   0.0000
v   0.7100  13.5000  -0.7100
v   1.0000  13.5000   0.0000
v   0.0000  14.9063  -1.6250
v   0.0000  13.5000  -1.0000
v  -1.1552  14.9063  -1.1552
v  -0.7100  13.5000  -0.7100
v  -1.6250  14.9063   0.0000
v  -1.0000  13.5000   0.0000
v  -1.1552  14.9063   1.1552
v  -0.7100  13.5000   0.7100
v   0.0000  14.9063   1.6250
v   0.0000  13.5000   1.0000
v   1.1552  14.9063   1.1552
v   0.7100  13.5000   0.7100
v   2.9288  12.7500  -2.9288
v   4.1250  12.7500   0.0000
v   4.6150  12.0000  -4.6150
v   6.5000  12.0000   0.0000
v   0.0000  12.7500  -4.1250
v   0.0000  12.0000  -6.5000
v  -2.9288  12.7500  -2.9288
v  -4.6150  12.0000  -4.6150
v  -4.1250  12.7500   0.0000
v  -6.5000  12.0000   0.0000
v  -2.9288  12.7500   2.9288
v  -4.6150  12.0000   4.6150
v   0.0000  12.7500   4.1250
v   0.0000  12.0000   6.5000
v   2.9288  12.7500   2.9288
v   4.6150  12.0000   4.6150

vn -0.9995  0.0317 -0.0000
vn -0.7067  0.0319  0.7067
vn -0.0966  0.9906  0.0966
vn -0.1416  0.9899  0.0000
vn  0.5936  0.5435 -0.5936
vn  0.8400  0.5425  0.0000
vn -0.0010  0.0283  0.9996
vn -0.0008  0.9899  0.1421
vn  0.0000  0.5425 -0.8400
vn  0.7268 -0.1773  0.6636
vn  0.0816  0.9729  0.2165
vn -0.5949  0.5381 -0.5971
vn  0.9994  0.0317 -0.0148
vn  0.1496  0.9886 -0.0134
vn -0.8403  0.5422  0.0004
vn  0.7067  0.0319 -0.7067
vn  0.0966  0.9906 -0.0966
vn -0.5936  0.5435  0.5936
vn  0.0000  0.0317 -0.9995
vn -0.0000  0.9899 -0.1416
vn -0.0000  0.5425  0.8400
vn -0.7067  0.0319 -0.7067
vn -0.0966  0.9906 -0.0966
vn  0.5936  0.5435  0.5936
vn  0.6738  0.3034 -0.6738
vn  0.9532  0.3025 -0.0000
vn  0.7028 -0.1107 -0.7028
vn  0.9939 -0.1105 -0.0000
vn -0.0000  0.3025 -0.9532
vn -0.0000 -0.1105 -0.9939
vn -0.6738  0.3034 -0.6738
vn -0.7028 -0.1107 -0.7028
vn -0.9532  0.3025  0.0000
vn -0.9939 -0.1105  0.0000
vn -0.6738  0.3034  0.6738
vn -0.7028 -0.1107  0.7028
vn  0.0000  0.3025  0.9532
vn  0.0000 -0.1105  0.9939
vn  0.6738  0.3034  0.6738
vn  0.7028 -0.1107  0.7028
vn  0.5792 -0.5735 -0.5792
vn  0.8198 -0.5726  0.0000
vn  0.4157 -0.8089 -0.4157
vn  0.5888 -0.8083 -0.0000
vn  0.0000 -0.5726 -0.8198
vn -0.0000 -0.8083 -0.5888
vn -0.5792 -0.5735 -0.5792
vn -0.4157 -0.8089 -0.4157
vn -0.8198 -0.5726 -0.0000
vn -0.5888 -0.8083  0.0000
vn -0.5792 -0.5735  0.5792
vn -0.4157 -0.8089  0.4157
vn -0.0000 -0.5726  0.8198
vn  0.0000 -0.8083  0.5888
vn  0.5792 -0.5735  0.5792
vn  0.4157 -0.8089  0.4157
vn  0.2016 -0.9585 -0.2016
vn  0.2850 -0.9585 -0.0000
vn  0.0000 -1.0000 -0.0000
vn -0.0000 -0.9585 -0.2850
vn -0.2016 -0.9585 -0.2016
vn -0.2850 -0.9585  0.0000
vn -0.2016 -0.9585  0.2016
vn  0.0000 -0.9585  0.2850
vn  0.2016 -0.9585  0.2016
vn  0.0384 -0.9993  0.0031
vn -0.0182  0.2727 -0.9619
vn -0.0190  0.2047 -0.9786
vn  0.2817 -0.9594  0.0145
vn -0.2938  0.1264 -0.9475
vn  0.9324 -0.3590  0.0422
vn -0.0473  0.9989 -0.0015
vn -0.4420  0.8969 -0.0127
vn -0.9859  0.1669 -0.0106
vn -0.0177  0.2685  0.9631
vn -0.0097  0.1786  0.9839
vn -0.2735  0.1013  0.9565
vn -0.1217 -0.0998 -0.9875
vn  0.8176  0.5756  0.0138
vn -0.3352 -0.5061 -0.7946
vn  0.6216  0.7828  0.0294
vn -0.7747 -0.6322 -0.0079
vn -0.5711 -0.8208 -0.0076
vn -0.1055 -0.0889  0.9904
vn -0.3009 -0.4869  0.8200
vn -0.4862  0.8738  0.0074
vn  0.3271 -0.2382 -0.9145
vn  0.1595  0.0246 -0.9869
vn -0.6970  0.7167 -0.0236
vn -0.0062  0.3812 -0.9245
vn -0.7234  0.6881 -0.0562
vn  0.6538 -0.7567  0.0025
vn  0.7677 -0.6406  0.0173
vn  0.6465 -0.7616  0.0447
vn  0.3456 -0.2343  0.9087
vn  0.1845  0.0081  0.9828
vn  0.0506  0.3154  0.9476
vn  0.2319  0.7793 -0.5821
vn  0.0415  0.9967 -0.0704
vn  0.3158 -0.0454  0.9477
vn  0.9011 -0.4334 -0.0135
vn  0.9533  0.2997  0.0371
vn -0.3219  0.9468  0.0032
vn  0.3655  0.7294  0.5783
vn  0.3394 -0.1174 -0.9333
vn  0.6774  0.2871 -0.6773
vn  0.9576  0.2882 -0.0001
vn  0.0000  1.0000  0.0000
vn  0.5955  0.5396 -0.5952
vn  0.8436  0.5370 -0.0002
vn -0.0001  0.2882 -0.9576
vn -0.0002  0.5370 -0.8436
vn -0.6773  0.2871 -0.6774
vn -0.5952  0.5396 -0.5955
vn -0.9576  0.2882  0.0001
vn -0.8436  0.5370  0.0002
vn -0.6774  0.2871  0.6773
vn -0.5955  0.5396  0.5952
vn  0.0001  0.2882  0.9576
vn  0.0002  0.5370  0.8436
vn  0.6773  0.2871  0.6774
vn  0.5952  0.5396  0.5955
vn  0.1942  0.9616 -0.1942
vn  0.2754  0.9613  0.0000
vn  0.2121  0.9539 -0.2121
vn  0.3011  0.9536  0.0000
vn  0.0000  0.9613 -0.2754
vn  0.0000  0.9536 -0.3011
vn -0.1942  0.9616 -0.1942
vn -0.2121  0.9539 -0.2121
vn -0.2754  0.9613 -0.0000
vn -0.3011  0.9536 -0.0000
vn -0.1942  0.9616  0.1942
vn -0.2121  0.9539  0.2121
vn -0.0000  0.9613  0.2754
vn -0.0000  0.9536  0.3011
vn  0.1942  0.9616  0.1942
vn  0.2121  0.9539  0.2121

vt 2.0000 2.0000 0.0000
vt 1.5000 2.0000 0.0000
vt 1.5000 1.9500 0.0000
vt 2.0000 1.9500 0.0000
vt 1.5000 1.9000 0.0000
vt 2.0000 1.9000 0.0000
vt 1.0000 2.0000 0.0000
vt 1.0000 1.9500 0.0000
vt 1.0000 1.9000 0.0000
vt 0.5000 2.0000 0.0000
vt 0.5000 1.9500 0.0000
vt 0.5000 1.9000 0.0000
vt 0.0000 2.0000 0.0000
vt 0.0000 1.9500 0.0000
vt 0.0000 1.9000 0.0000
vt 1.5000 1.4500 0.0000
vt 2.0000 1.4500 0.0000
vt 1.5000 1.0000 0.0000
vt 2.0000 1.0000 0.0000
vt 1.0000 1.4500 0.0000
vt 1.0000 1.0000 0.0000
vt 0.5000 1.4500 0.0000
vt 0.5000 1.0000 0.0000
vt 0.0000 1.4500 0.0000
vt 0.0000 1.0000 0.0000
vt 1.5000 0.7000 0.0000
vt 2.0000 0.7000 0.0000
vt 1.5000 0.4000 0.0000
vt 2.0000 0.4000 0.0000
vt 1.0000 0.7000 0.0000
vt 1.0000 0.4000 0.0000
vt 0.5000 0.7000 0.0000
vt 0.5000 0.4000 0.0000
vt 0.0000 0.7000 0.0000
vt 0.0000 0.4000 0.0000
vt 1.5000 0.2000 0.0000
vt 2.0000 0.2000 0.0000
vt 1.5000 0.0000 0.0000
vt 1.0000 0.2000 0.0000
vt 1.0000 0.0000 0.0000
vt 0.5000 0.2000 0.0000
vt 0.5000 0.0000 0.0000
vt 0.0000 0.2000 0.0000
vt 0.0000 0.0000 0.0000
vt 0.7500 1.0000 0.0000
vt 0.7500 0.7500 0.0000
vt 1.0000 0.7500 0.0000
vt 0.7500 0.5000 0.0000
vt 1.0000 0.5000 0.0000
vt 0.5000 0.7500 0.0000
vt 0.5000 0.5000 0.0000
vt 0.2500 1.0000 0.0000
vt 0.2500 0.7500 0.0000
vt 0.2500 0.5000 0.0000
vt 0.0000 0.7500 0.0000
vt 0.0000 0.5000 0.0000
vt 0.7500 0.2500 0.0000
vt 1.0000 0.2500 0.0000
vt 0.7500 0.0000 0.0000
vt 0.5000 0.2500 0.0000
vt 0.2500 0.2500 0.0000
vt 0.2500 0.0000 0.0000
vt 0.0000 0.2500 0.0000
vt 0.7500 0.4500 0.0000
vt 0.5000 0.4500 0.0000
vt 0.7500 0.9000 0.0000
vt 0.5000 0.9000 0.0000
vt 1.0000 0.4500 0.0000
vt 1.0000 0.9000 0.0000
vt 0.2500 0.4500 0.0000
vt 0.0000 0.4500 0.0000
vt 0.2500 0.9000 0.0000
vt 0.0000 0.9000 0.0000
vt 0.7500 0.9500 0.0000
vt 0.5000 0.9500 0.0000
vt 1.0000 0.9500 0.0000
vt 0.2500 0.9500 0.0000
vt 0.0000 0.9500 0.0000

f 1/1/1      4/4/4      3/3/3      2/2/2     
f 4/4/4      6/6/6      5/5/5      3/3/3     
f 2/2/2      3/3/3      8/8/8      7/7/7     
f 3/3/3      5/5/5      9/9/9      8/8/8     
f 7/7/7      8/8/8      11/11/11   10/10/10  
f 8/8/8      9/9/9      12/12/12   11/11/11  
f 10/10/10   11/11/11   14/14/14   13/13/13  
f 11/11/11   12/12/12   15/15/15   14/14/14  
f 13/1/13    14/4/14    17/3/17    16/2/16   
f 14/4/14    15/6/15    18/5/18    17/3/17   
f 16/2/16    17/3/17    20/8/20    19/7/19   
f 17/3/17    18/5/18    21/9/21    20/8/20   
f 19/7/19    20/8/20    23/11/23   22/10/22  
f 20/8/20    21/9/21    24/12/24   23/11/23  
f 22/10/22   23/11/23   4/14/4     1/13/1    
f 23/11/23   24/12/24   6/15/6     4/14/4    
f 6/6/6      26/17/26   25/16/25   5/5/5     
f 26/17/26   28/19/28   27/18/27   25/16/25  
f 5/5/5      25/16/25   29/20/29   9/9/9     
f 25/16/25   27/18/27   30/21/30   29/20/29  
f 9/9/9      29/20/29   31/22/31   12/12/12  
f 29/20/29   30/21/30   32/23/32   31/22/31  
f 12/12/12   31/22/31   33/24/33   15/15/15  
f 31/22/31   32/23/32   34/25/34   33/24/33  
f 15/6/15    33/17/33   35/16/35   18/5/18   
f 33/17/33   34/19/34   36/18/36   35/16/35  
f 18/5/18    35/16/35   37/20/37   21/9/21   
f 35/16/35   36/18/36   38/21/38   37/20/37  
f 21/9/21    37/20/37   39/22/39   24/12/24  
f 37/20/37   38/21/38   40/23/40   39/22/39  
f 24/12/24   39/22/39   26/24/26   6/15/6    
f 39/22/39   40/23/40   28/25/28   26/24/26  
f 28/19/28   42/27/42   41/26/41   27/18/27  
f 42/27/42   44/29/44   43/28/43   41/26/41  
f 27/18/27   41/26/41   45/30/45   30/21/30  
f 41/26/41   43/28/43   46/31/46   45/30/45  
f 30/21/30   45/30/45   47/32/47   32/23/32  
f 45/30/45   46/31/46   48/33/48   47/32/47  
f 32/23/32   47/32/47   49/34/49   34/25/34  
f 47/32/47   48/33/48   50/35/50   49/34/49  
f 34/19/34   49/27/49   51/26/51   36/18/36  
f 49/27/49   50/29/50   52/28/52   51/26/51  
f 36/18/36   51/26/51   53/30/53   38/21/38  
f 51/26/51   52/28/52   54/31/54   53/30/53  
f 38/21/38   53/30/53   55/32/55   40/23/40  
f 53/30/53   54/31/54   56/33/56   55/32/55  
f 40/23/40   55/32/55   42/34/42   28/25/28  
f 55/32/55   56/33/56   44/35/44   42/34/42  
f 44/29/44   58/37/58   57/36/57   43/28/43  
f 43/28/43   57/36/57   60/39/60   46/31/46  
f 46/31/46   60/39/60   61/41/61   48/33/48  
f 48/33/48   61/41/61   62/43/62   50/35/50  
f 50/29/50   62/37/62   63/36/63   52/28/52  
f 52/28/52   63/36/63   64/39/64   54/31/54  
f 54/31/54   64/39/64   65/41/65   56/33/56  
f 56/33/56   65/41/65   58/43/58   44/35/44  
f 66/21/66   69/47/69   68/46/68   67/45/67  
f 69/47/69   71/49/71   70/48/70   68/46/68  
f 67/45/67   68/46/68   73/50/73   72/23/72  
f 68/46/68   70/48/70   74/51/74   73/50/73  
f 72/23/72   73/50/73   76/53/76   75/52/75  
f 73/50/73   74/51/74   77/54/77   76/53/76  
f 75/52/75   76/53/76   69/55/69   66/25/66  
f 76/53/76   77/54/77   71/56/71   69/55/69  
f 71/49/71   79/58/79   78/57/78   70/48/70  
f 79/58/79   34/40/81   80/59/80   78/57/78  
f 70/48/70   78/57/78   81/60/82   74/51/74  
f 78/57/78   80/59/80   82/42/83   81/60/82  
f 74/51/74   81/60/82   83/61/84   77/54/77  
f 81/60/82   82/42/83   84/62/85   83/61/84  
f 77/54/77   83/61/84   79/63/79   71/56/71  
f 83/61/84   84/62/85   34/44/81   79/63/79  
f 85/42/86   88/65/89   87/64/88   86/59/87  
f 88/65/89   90/67/91   89/66/90   87/64/88  
f 86/59/87   87/64/88   92/68/93   91/40/92  
f 87/64/88   89/66/90   93/69/94   92/68/93  
f 91/44/92   92/71/93   95/70/96   94/62/95  
f 92/71/93   93/73/94   96/72/97   95/70/96  
f 94/62/95   95/70/96   88/65/89   85/42/86  
f 95/70/96   96/72/97   90/67/91   88/65/89  
f 90/67/91   98/75/99   97/74/98   89/66/90  
f 98/75/99   100/23/101 99/45/100  97/74/98   
f 89/66/90   97/74/98   101/76/102 93/69/94  
f 97/74/98   99/45/100  102/21/103 101/76/102
f 93/73/94   101/78/102 103/77/104 96/72/97   
f 101/78/102 102/25/103 104/52/105 103/77/104 
f 96/72/97   103/77/104 98/75/99   90/67/91   
f 103/77/104 104/52/105 100/23/101 98/75/99   
f 106/49/107 109/40/110 108/59/109 105/48/106 
f 105/48/106 108/59/109 111/42/112 110/51/111 
f 110/51/111 111/42/112 113/62/114 112/54/113 
f 112/54/113 113/62/114 115/44/116 114/56/115 
f 114/49/115 115/40/116 117/59/118 116/48/117 
f 116/48/117 117/59/118 119/42/120 118/51/119 
f 118/51/119 119/42/120 121/62/122 120/54/121 
f 120/54/121 121/62/122 109/44/110 106/56/107 
f 109/21/110 123/49/124 122/48/123 108/45/109 
f 123/49/124 125/40/126 124/59/125 122/48/123 
f 108/45/109 122/48/123 126/51/127 111/23/112 
f 122/48/123 124/59/125 127/42/128 126/51/127 
f 111/23/112 126/51/127 128/54/129 113/52/114 
f 126/51/127 127/42/128 129/62/130 128/54/129 
f 113/52/114 128/54/129 130/56/131 115/25/116 
f 128/54/129 129/62/130 131/44/132 130/56/131 
f 115/21/116 130/49/131 132/48/133 117/45/118 
f 130/49/131 131/40/132 133/59/134 132/48/133 
f 117/45/118 132/48/133 134/51/135 119/23/120 
f 132/48/133 133/59/134 135/42/136 134/51/135 
f 119/23/120 134/51/135 136/54/137 121/52/122 
f 134/51/135 135/42/136 137/62/138 136/54/137 
f 121/52/122 136/54/137 123/56/124 109/25/110 
f 136/54/137 137/62/138 125/44/126 123/56/124 

f 58/37/58   59/38/59   57/36/57   
f 57/36/57   59/40/59   60/39/60   
f 60/39/60   59/42/59   61/41/61   
f 61/41/61   59/44/59   62/43/62   
f 62/37/62   59/38/59   63/36/63   
f 63/36/63   59/40/59   64/39/64   
f 64/39/64   59/42/59   65/41/65   
f 65/41/65   59/44/59   58/43/58   
f 105/48/106 107/21/108 106/49/107  
f 110/51/111 107/45/108 105/48/106  
f 112/54/113 107/23/108 110/51/111  
f 114/56/115 107/52/108 112/54/113  
f 116/48/117 107/21/108 114/49/115  
f 118/51/119 107/45/108 116/48/117  
f 120/54/121 107/23/108 118/51/119  
f 106/56/107 107/52/108 120/54/121  
