ply
format ascii 1.0
comment Created by Blender 3.1.2 - www.blender.org
element vertex 54
property float x
property float y
property float z
property float nx
property float ny
property float nz
property float s
property float t
element face 26
property list uchar uint vertex_indices
end_header
-3.542241 1.000000 1.000000 0.000000 0.707107 0.707107 0.833333 0.500000
-5.313361 1.000000 1.000000 -0.577350 0.577350 0.577350 0.875000 0.500000
-5.313361 -1.000000 1.000000 -0.577350 -0.577350 0.577350 0.875000 0.750000
-3.542241 -1.000000 1.000000 0.000000 -0.707107 0.707107 0.833333 0.750000
-3.542241 -1.000000 -1.000000 0.000000 -0.707107 -0.707107 0.375000 0.958333
-3.542241 -1.000000 1.000000 0.000000 -0.707107 0.707107 0.625000 0.958333
-5.313361 -1.000000 1.000000 -0.577350 -0.577350 0.577350 0.625000 1.000000
-5.313361 -1.000000 -1.000000 -0.577350 -0.577350 -0.577350 0.375000 1.000000
-5.313361 -1.000000 -1.000000 -0.577350 -0.577350 -0.577350 0.375000 0.000000
-5.313361 -1.000000 1.000000 -0.577350 -0.577350 0.577350 0.625000 0.000000
-5.313361 1.000000 1.000000 -0.577350 0.577350 0.577350 0.625000 0.250000
-5.313361 1.000000 -1.000000 -0.577350 0.577350 -0.577350 0.375000 0.250000
3.542241 1.000000 -1.000000 0.000000 0.707107 -0.707107 0.333333 0.500000
5.313361 1.000000 -1.000000 0.577350 0.577350 -0.577350 0.375000 0.500000
5.313361 -1.000000 -1.000000 0.577350 -0.577350 -0.577350 0.375000 0.750000
3.542241 -1.000000 -1.000000 0.000000 -0.707107 -0.707107 0.333333 0.750000
5.313361 1.000000 1.000000 0.577350 0.577350 0.577350 0.625000 0.500000
5.313361 -1.000000 1.000000 0.577350 -0.577350 0.577350 0.625000 0.750000
3.542241 1.000000 -1.000000 0.000000 0.707107 -0.707107 0.375000 0.458333
3.542241 1.000000 1.000000 0.000000 0.707107 0.707107 0.625000 0.458333
-3.542241 1.000000 1.000000 0.000000 0.707107 0.707107 0.625000 0.291667
-3.542241 1.000000 -1.000000 0.000000 0.707107 -0.707107 0.375000 0.291667
-1.771120 1.000000 1.000000 0.000000 0.707107 0.707107 0.625000 0.333333
-1.771121 1.000000 -1.000000 0.000000 0.707107 -0.707107 0.375000 0.333333
0.000000 1.000000 1.000000 0.000000 0.707107 0.707107 0.625000 0.375000
-0.000000 1.000000 -1.000000 0.000000 0.707107 -0.707107 0.375000 0.375000
1.771121 1.000000 1.000000 0.000000 0.707107 0.707107 0.625000 0.416667
1.771120 1.000000 -1.000000 0.000000 0.707107 -0.707107 0.375000 0.416667
-5.313361 1.000000 -1.000000 -0.577350 0.577350 -0.577350 0.125000 0.500000
-3.542241 1.000000 -1.000000 0.000000 0.707107 -0.707107 0.166667 0.500000
-3.542241 -1.000000 -1.000000 0.000000 -0.707107 -0.707107 0.166667 0.750000
-5.313361 -1.000000 -1.000000 -0.577350 -0.577350 -0.577350 0.125000 0.750000
-1.771121 1.000000 -1.000000 0.000000 0.707107 -0.707107 0.208333 0.500000
-1.771120 -1.000000 -1.000000 0.000000 -0.707107 -0.707107 0.208333 0.750000
-0.000000 1.000000 -1.000000 0.000000 0.707107 -0.707107 0.250000 0.500000
0.000000 -1.000000 -1.000000 0.000000 -0.707107 -0.707107 0.250000 0.750000
1.771120 1.000000 -1.000000 0.000000 0.707107 -0.707107 0.291667 0.500000
1.771121 -1.000000 -1.000000 0.000000 -0.707107 -0.707107 0.291667 0.750000
3.542241 -1.000000 1.000000 0.000000 -0.707107 0.707107 0.625000 0.791667
3.542241 -1.000000 -1.000000 0.000000 -0.707107 -0.707107 0.375000 0.791667
1.771120 -1.000000 1.000000 0.000000 -0.707107 0.707107 0.625000 0.833333
1.771121 -1.000000 -1.000000 0.000000 -0.707107 -0.707107 0.375000 0.833333
-0.000000 -1.000000 1.000000 0.000000 -0.707107 0.707107 0.625000 0.875000
0.000000 -1.000000 -1.000000 0.000000 -0.707107 -0.707107 0.375000 0.875000
-1.771121 -1.000000 1.000000 0.000000 -0.707107 0.707107 0.625000 0.916667
-1.771120 -1.000000 -1.000000 0.000000 -0.707107 -0.707107 0.375000 0.916667
3.542241 1.000000 1.000000 0.000000 0.707107 0.707107 0.666667 0.500000
3.542241 -1.000000 1.000000 0.000000 -0.707107 0.707107 0.666667 0.750000
1.771121 1.000000 1.000000 0.000000 0.707107 0.707107 0.708333 0.500000
1.771120 -1.000000 1.000000 0.000000 -0.707107 0.707107 0.708333 0.750000
0.000000 1.000000 1.000000 0.000000 0.707107 0.707107 0.750000 0.500000
-0.000000 -1.000000 1.000000 0.000000 -0.707107 0.707107 0.750000 0.750000
-1.771120 1.000000 1.000000 0.000000 0.707107 0.707107 0.791667 0.500000
-1.771121 -1.000000 1.000000 0.000000 -0.707107 0.707107 0.791667 0.750000
4 0 1 2 3
4 4 5 6 7
4 8 9 10 11
4 12 13 14 15
4 13 16 17 14
4 18 19 16 13
4 11 10 20 21
4 21 20 22 23
4 23 22 24 25
4 25 24 26 27
4 27 26 19 18
4 28 29 30 31
4 29 32 33 30
4 32 34 35 33
4 34 36 37 35
4 36 12 15 37
4 14 17 38 39
4 39 38 40 41
4 41 40 42 43
4 43 42 44 45
4 45 44 5 4
4 16 46 47 17
4 46 48 49 47
4 48 50 51 49
4 50 52 53 51
4 52 0 3 53
