ply
format ascii 1.0
comment Created by Blender 3.1.2 - www.blender.org
element vertex 54
property float x
property float y
property float z
property float nx
property float ny
property float nz
property float s
property float t
element face 52
property list uchar uint vertex_indices
end_header
-5.313361 1.000000 1.000000 -0.577350 0.577350 0.577350 0.875000 0.500000
-3.542241 -1.000000 1.000000 0.000000 -0.707107 0.707107 0.833333 0.750000
-3.542241 1.000000 1.000000 0.000000 0.707107 0.707107 0.833333 0.500000
-3.542241 -1.000000 1.000000 0.000000 -0.707107 0.707107 0.625000 0.958333
-5.313361 -1.000000 -1.000000 -0.577350 -0.577350 -0.577350 0.375000 1.000000
-3.542241 -1.000000 -1.000000 0.000000 -0.707107 -0.707107 0.375000 0.958333
-5.313361 -1.000000 1.000000 -0.577350 -0.577350 0.577350 0.625000 0.000000
-5.313361 1.000000 -1.000000 -0.577350 0.577350 -0.577350 0.375000 0.250000
-5.313361 -1.000000 -1.000000 -0.577350 -0.577350 -0.577350 0.375000 0.000000
5.313361 1.000000 -1.000000 0.577350 0.577350 -0.577350 0.375000 0.500000
3.542241 -1.000000 -1.000000 0.000000 -0.707107 -0.707107 0.333333 0.750000
3.542241 1.000000 -1.000000 0.000000 0.707107 -0.707107 0.333333 0.500000
5.313361 1.000000 1.000000 0.577350 0.577350 0.577350 0.625000 0.500000
5.313361 -1.000000 -1.000000 0.577350 -0.577350 -0.577350 0.375000 0.750000
3.542241 1.000000 1.000000 0.000000 0.707107 0.707107 0.625000 0.458333
3.542241 1.000000 -1.000000 0.000000 0.707107 -0.707107 0.375000 0.458333
-5.313361 1.000000 1.000000 -0.577350 0.577350 0.577350 0.625000 0.250000
-3.542241 1.000000 -1.000000 0.000000 0.707107 -0.707107 0.375000 0.291667
-3.542241 1.000000 1.000000 0.000000 0.707107 0.707107 0.625000 0.291667
-1.771121 1.000000 -1.000000 0.000000 0.707107 -0.707107 0.375000 0.333333
-1.771120 1.000000 1.000000 0.000000 0.707107 0.707107 0.625000 0.333333
-0.000000 1.000000 -1.000000 0.000000 0.707107 -0.707107 0.375000 0.375000
0.000000 1.000000 1.000000 0.000000 0.707107 0.707107 0.625000 0.375000
1.771120 1.000000 -1.000000 0.000000 0.707107 -0.707107 0.375000 0.416667
1.771121 1.000000 1.000000 0.000000 0.707107 0.707107 0.625000 0.416667
-3.542241 1.000000 -1.000000 0.000000 0.707107 -0.707107 0.166667 0.500000
-5.313361 -1.000000 -1.000000 -0.577350 -0.577350 -0.577350 0.125000 0.750000
-5.313361 1.000000 -1.000000 -0.577350 0.577350 -0.577350 0.125000 0.500000
-1.771121 1.000000 -1.000000 0.000000 0.707107 -0.707107 0.208333 0.500000
-3.542241 -1.000000 -1.000000 0.000000 -0.707107 -0.707107 0.166667 0.750000
-0.000000 1.000000 -1.000000 0.000000 0.707107 -0.707107 0.250000 0.500000
-1.771120 -1.000000 -1.000000 0.000000 -0.707107 -0.707107 0.208333 0.750000
1.771120 1.000000 -1.000000 0.000000 0.707107 -0.707107 0.291667 0.500000
0.000000 -1.000000 -1.000000 0.000000 -0.707107 -0.707107 0.250000 0.750000
1.771121 -1.000000 -1.000000 0.000000 -0.707107 -0.707107 0.291667 0.750000
5.313361 -1.000000 1.000000 0.577350 -0.577350 0.577350 0.625000 0.750000
3.542241 -1.000000 -1.000000 0.000000 -0.707107 -0.707107 0.375000 0.791667
3.542241 -1.000000 1.000000 0.000000 -0.707107 0.707107 0.625000 0.791667
1.771121 -1.000000 -1.000000 0.000000 -0.707107 -0.707107 0.375000 0.833333
1.771120 -1.000000 1.000000 0.000000 -0.707107 0.707107 0.625000 0.833333
0.000000 -1.000000 -1.000000 0.000000 -0.707107 -0.707107 0.375000 0.875000
-0.000000 -1.000000 1.000000 0.000000 -0.707107 0.707107 0.625000 0.875000
-1.771120 -1.000000 -1.000000 0.000000 -0.707107 -0.707107 0.375000 0.916667
-1.771121 -1.000000 1.000000 0.000000 -0.707107 0.707107 0.625000 0.916667
3.542241 1.000000 1.000000 0.000000 0.707107 0.707107 0.666667 0.500000
1.771121 1.000000 1.000000 0.000000 0.707107 0.707107 0.708333 0.500000
3.542241 -1.000000 1.000000 0.000000 -0.707107 0.707107 0.666667 0.750000
0.000000 1.000000 1.000000 0.000000 0.707107 0.707107 0.750000 0.500000
1.771120 -1.000000 1.000000 0.000000 -0.707107 0.707107 0.708333 0.750000
-1.771120 1.000000 1.000000 0.000000 0.707107 0.707107 0.791667 0.500000
-0.000000 -1.000000 1.000000 0.000000 -0.707107 0.707107 0.750000 0.750000
-1.771121 -1.000000 1.000000 0.000000 -0.707107 0.707107 0.791667 0.750000
-5.313361 -1.000000 1.000000 -0.577350 -0.577350 0.577350 0.875000 0.750000
-5.313361 -1.000000 1.000000 -0.577350 -0.577350 0.577350 0.625000 1.000000
3 0 1 2
3 3 4 5
3 6 7 8
3 9 10 11
3 12 13 9
3 14 9 15
3 16 17 7
3 18 19 17
3 20 21 19
3 22 23 21
3 24 15 23
3 25 26 27
3 28 29 25
3 30 31 28
3 32 33 30
3 11 34 32
3 35 36 13
3 37 38 36
3 39 40 38
3 41 42 40
3 43 5 42
3 44 35 12
3 45 46 44
3 47 48 45
3 49 50 47
3 2 51 49
3 0 52 1
3 3 53 4
3 6 16 7
3 9 13 10
3 12 35 13
3 14 12 9
3 16 18 17
3 18 20 19
3 20 22 21
3 22 24 23
3 24 14 15
3 25 29 26
3 28 31 29
3 30 33 31
3 32 34 33
3 11 10 34
3 35 37 36
3 37 39 38
3 39 41 40
3 41 43 42
3 43 3 5
3 44 46 35
3 45 48 46
3 47 50 48
3 49 51 50
3 2 1 51
