ply
format ascii 1.0
comment VCGLIB generated
element vertex 1017
property float x
property float y
property float z
element face 1792
property list uchar int vertex_indices
end_header
-1 0.019163 1 
0.395894 -1 1 
0.395894 0.019163 1 
0.395894 -1 1 
-1 -1 0 
0.395894 -1 0 
-1 0.019163 1 
-1 1 0 
-1 0.019163 0 
7.375365 0.019163 -1 
5.979471 -1 -1 
5.979471 0.019163 -1 
7.375365 0.019163 1 
7.375365 -1 0 
7.375365 0.019163 0 
5.979471 1 1 
7.375365 1 0 
5.979471 1 0 
7.375365 1 -1 
5.979471 1 -1 
7.375365 -1 -1 
-1 1 -1 
-1 0.019163 -1 
-1 -1 -1 
0.395894 -1 -1 
-1 -1 0 
-1 -1 -1 
7.375365 1 1 
5.979471 1 -1 
-1 -1 1 
-1 1 1 
0.395894 1 1 
5.979471 1 1 
4.583577 1 1 
5.979471 0.019163 1 
3.187683 1 1 
4.583577 0.019163 1 
1.791789 1 1 
3.187683 0.019163 1 
1.791789 0.019163 1 
0.395894 1 -1 
-1 0.019163 -1 
-1 1 -1 
1.791788 1 -1 
0.395894 0.019163 -1 
3.187683 1 -1 
1.791788 0.019163 -1 
4.583577 1 -1 
3.187683 0.019163 -1 
4.583577 0.019163 -1 
5.979471 -1 -1 
5.979471 -1 0 
4.583577 -1 -1 
3.187683 -1 0 
3.187683 -1 -1 
1.791789 -1 -1 
1.791788 -1 0 
0.395894 1 -1 
0.395894 1 0 
1.791788 1 -1 
1.791789 1 0 
3.187683 1 -1 
4.583577 1 0 
4.583577 1 -1 
-1 1 1 
0.395894 1 1 
1.791789 1 1 
3.187683 1 0 
3.187683 1 1 
4.583577 1 1 
-1 -1 -1 
0.395894 -1 -1 
1.791789 -1 -1 
3.187683 -1 -1 
4.583577 -1 -1 
7.375365 -1 1 
5.979471 -1 1 
4.583577 -1 0 
4.583577 -1 1 
3.187683 -1 1 
1.791788 -1 1 
5.979471 -1 1 
4.583577 -1 1 
3.187683 -1 1 
1.791788 -1 1 
-1 -1 1 
-1 -1 1 
-0.302053 -0.4904185 1 
0.395894 -0.4904185 1 
-0.302053 0.019163 1 
-0.302053 -1 0.5 
-0.302053 -1 0 
0.395894 -1 0.5 
-1 0.5095815 0.5 
-1 0.5095815 0 
-1 0.019163 0.5 
6.677418 -0.4904185 -1 
5.979471 -0.4904185 -1 
6.677418 0.019163 -1 
7.375365 -0.4904185 0.5 
7.375365 -0.4904185 0 
7.375365 0.019163 0.5 
6.677418 1 0.5 
6.677418 1 0 
5.979471 1 0.5 
6.677418 1 -0.5 
6.677418 1 -1 
5.979471 1 -0.5 
7.375365 -0.4904185 -0.5 
7.375365 -0.4904185 -1 
7.375365 0.019163 -0.5 
-1 0.5095815 -0.5 
-1 0.5095815 -1 
-1 0.019163 -0.5 
-0.302053 -1 -0.5 
-0.302053 -1 -1 
0.395894 -1 -0.5 
-1 -0.4904185 -0.5 
-1 -0.4904185 -1 
-1 -1 -0.5 
7.375365 0.5095815 -0.5 
7.375365 0.5095815 -1 
7.375365 1 -0.5 
7.375365 0.5095815 0.5 
7.375365 0.5095815 0 
7.375365 1 0.5 
6.677418 0.5095815 -1 
5.979471 0.5095815 -1 
6.677418 1 -1 
-1 -0.4904185 0.5 
-1 -0.4904185 0 
-1 -1 0.5 
-0.302053 0.5095815 1 
0.395894 0.5095815 1 
-0.302053 1 1 
6.677418 0.5095815 1 
7.375365 0.5095815 1 
6.677418 1 1 
5.281524 0.5095815 1 
5.979471 0.5095815 1 
5.281524 1 1 
3.88563 0.5095815 1 
4.583577 0.5095815 1 
3.88563 1 1 
2.489736 0.5095815 1 
3.187683 0.5095815 1 
2.489736 1 1 
1.093842 0.5095815 1 
1.791789 0.5095815 1 
1.093842 1 1 
-0.302053 0.5095815 -1 
-1 0.5095815 -1 
-0.302053 1 -1 
1.093841 0.5095815 -1 
0.395894 0.5095815 -1 
1.093841 1 -1 
2.489736 0.5095815 -1 
1.791788 0.5095815 -1 
2.489736 1 -1 
3.88563 0.5095815 -1 
3.187683 0.5095815 -1 
3.88563 1 -1 
5.281524 0.5095815 -1 
4.583577 0.5095815 -1 
5.281524 1 -1 
6.677418 -1 -0.5 
6.677418 -1 -1 
7.375365 -1 -0.5 
5.281524 -1 -0.5 
5.281524 -1 -1 
5.979471 -1 -0.5 
3.88563 -1 -0.5 
3.187683 -1 -0.5 
3.88563 -1 -1 
2.489736 -1 -0.5 
2.489736 -1 -1 
1.093841 -1 -0.5 
1.093842 -1 -1 
1.791789 -1 -0.5 
-0.302053 1 -0.5 
-0.302053 1 -1 
-1 1 -0.5 
1.093841 1 -0.5 
1.093841 1 -1 
0.395894 1 -0.5 
2.489736 1 -0.5 
2.489736 1 -1 
1.791789 1 -0.5 
3.88563 1 -0.5 
4.583577 1 -0.5 
3.88563 1 -1 
5.281524 1 -0.5 
5.281524 1 -1 
-0.302053 1 0.5 
-0.302053 1 0 
-1 1 0.5 
1.093842 1 0.5 
1.093842 1 0 
0.395894 1 0.5 
2.489736 1 0.5 
2.489736 1 0 
1.791789 1 0.5 
3.88563 1 0.5 
3.88563 1 0 
3.187683 1 0.5 
5.281524 1 0.5 
5.281524 1 0 
4.583577 1 0.5 
-0.302053 -0.4904185 -1 
-1 -0.4904185 -1 
-0.302053 0.019163 -1 
1.093841 -0.4904185 -1 
0.395894 -0.4904185 -1 
1.093841 0.019163 -1 
2.489736 -0.4904185 -1 
1.791789 -0.4904185 -1 
2.489736 0.019163 -1 
3.88563 -0.4904185 -1 
3.187683 -0.4904185 -1 
3.88563 0.019163 -1 
5.281524 -0.4904185 -1 
4.583577 -0.4904185 -1 
5.281524 0.019163 -1 
6.677418 -1 0.5 
6.677418 -1 0 
7.375365 -1 0.5 
5.281524 -1 0.5 
5.281524 -1 0 
5.979471 -1 0.5 
3.88563 -1 0.5 
3.88563 -1 0 
4.583577 -1 0.5 
2.489736 -1 0.5 
2.489736 -1 0 
3.187683 -1 0.5 
1.093841 -1 0.5 
1.093841 -1 0 
1.791788 -1 0.5 
6.677418 -0.4904185 1 
7.375365 -0.4904185 1 
6.677418 0.019163 1 
5.281524 -0.4904185 1 
5.979471 -0.4904185 1 
5.281524 0.019163 1 
3.88563 -0.4904185 1 
4.583577 -0.4904185 1 
3.88563 0.019163 1 
2.489736 -0.4904185 1 
3.187683 -0.4904185 1 
2.489736 0.019163 1 
1.093841 -0.4904185 1 
1.791789 -0.4904185 1 
1.093842 0.019163 1 
-1 -0.4904185 1 
-0.302053 -1 1 
-0.302053 -1 1 
-1 -1 0.5 
-1 0.5095815 1 
6.677418 -1 -1 
6.677418 1 1 
-1 -1 -0.5 
-1 -0.4904185 1 
-1 0.5095815 1 
4.583577 -1 -0.5 
3.187683 1 -0.5 
-0.302053 1 1 
1.093842 1 1 
2.489736 1 1 
3.88563 1 1 
5.281524 1 1 
-0.302053 -1 -1 
1.093842 -1 -1 
2.489736 -1 -1 
3.88563 -1 -1 
5.281524 -1 -1 
6.677418 -1 1 
5.281524 -1 1 
3.88563 -1 1 
2.489736 -1 1 
1.093841 -1 1 
6.677418 -1 1 
5.281524 -1 1 
3.88563 -1 1 
2.489736 -1 1 
1.093841 -1 1 
0.04692049 -0.4904185 1 
0.04692049 -0.2356277 1 
-0.302053 -0.2356277 1 
-0.302053 -1 0.25 
0.04692049 -1 0.25 
0.04692049 -1 0.5 
-1 0.5095815 0.25 
-1 0.2643723 0.25 
-1 0.2643723 0.5 
6.328444 -0.4904185 -1 
6.328444 -0.2356277 -1 
6.677418 -0.2356277 -1 
7.375365 -0.4904185 0.25 
7.375365 -0.2356277 0.25 
7.375365 -0.2356277 0.5 
6.677418 1 0.25 
6.328444 1 0.25 
6.328444 1 0.5 
6.677418 1 -0.75 
6.328444 1 -0.75 
6.328444 1 -0.5 
7.375365 -0.4904185 -0.75 
7.375365 -0.2356277 -0.75 
7.375365 -0.2356277 -0.5 
-1 0.5095815 -0.75 
-1 0.2643723 -0.75 
-1 0.2643723 -0.5 
-0.302053 -1 -0.75 
0.04692049 -1 -0.75 
0.04692049 -1 -0.5 
-1 -0.4904185 -0.75 
-1 -0.7452092 -0.75 
-1 -0.7452092 -0.5 
7.375365 0.5095815 -0.75 
7.375365 0.7547908 -0.75 
7.375365 0.7547908 -0.5 
7.375365 0.5095815 0.25 
7.375365 0.7547908 0.25 
7.375365 0.7547908 0.5 
6.328444 0.5095815 -1 
6.328444 0.7547908 -1 
6.677418 0.7547908 -1 
-1 -0.4904185 0.25 
-1 -0.7452092 0.25 
-1 -0.7452092 0.5 
0.04692049 0.5095815 1 
0.04692049 0.7547908 1 
-0.302053 0.7547908 1 
7.026391 0.5095815 1 
7.026391 0.7547908 1 
6.677418 0.7547908 1 
5.630498 0.5095815 1 
5.630498 0.7547908 1 
5.281524 0.7547908 1 
4.234604 0.5095815 1 
4.234604 0.7547908 1 
3.88563 0.7547908 1 
2.83871 0.5095815 1 
2.83871 0.7547908 1 
2.489736 0.7547908 1 
1.442815 0.5095815 1 
1.442815 0.7547908 1 
1.093842 0.7547908 1 
-0.6510265 0.5095815 -1 
-0.6510265 0.7547908 -1 
-0.302053 0.7547908 -1 
0.7448674 0.5095815 -1 
0.7448674 0.7547908 -1 
1.093841 0.7547908 -1 
2.140762 0.5095815 -1 
2.140762 0.7547908 -1 
2.489736 0.7547908 -1 
3.536657 0.5095815 -1 
3.536657 0.7547908 -1 
3.88563 0.7547908 -1 
4.93255 0.5095815 -1 
4.93255 0.7547908 -1 
5.281524 0.7547908 -1 
6.677418 -1 -0.75 
7.026391 -1 -0.75 
7.026391 -1 -0.5 
5.281524 -1 -0.75 
5.630498 -1 -0.75 
5.630498 -1 -0.5 
3.536657 -1 -0.5 
3.536657 -1 -0.75 
3.88563 -1 -0.75 
2.489736 -1 -0.75 
2.83871 -1 -0.75 
2.83871 -1 -0.5 
1.093841 -1 -0.75 
1.442815 -1 -0.75 
1.442815 -1 -0.5 
-0.302053 1 -0.75 
-0.6510265 1 -0.75 
-0.6510265 1 -0.5 
1.093841 1 -0.75 
0.7448674 1 -0.75 
0.7448674 1 -0.5 
2.489736 1 -0.75 
2.140762 1 -0.75 
2.140762 1 -0.5 
4.234604 1 -0.5 
4.234604 1 -0.75 
3.88563 1 -0.75 
5.281524 1 -0.75 
4.93255 1 -0.75 
4.93255 1 -0.5 
-0.302053 1 0.25 
-0.6510265 1 0.25 
-0.6510265 1 0.5 
1.093842 1 0.25 
0.7448678 1 0.25 
0.7448678 1 0.5 
2.489736 1 0.25 
2.140763 1 0.25 
2.140763 1 0.5 
3.88563 1 0.25 
3.536657 1 0.25 
3.536657 1 0.5 
5.281524 1 0.25 
4.93255 1 0.25 
4.93255 1 0.5 
-0.6510265 -0.4904185 -1 
-0.6510265 -0.2356277 -1 
-0.302053 -0.2356277 -1 
0.7448674 -0.4904185 -1 
0.7448674 -0.2356277 -1 
1.093841 -0.2356277 -1 
2.140762 -0.4904185 -1 
2.140762 -0.2356277 -1 
2.489736 -0.2356277 -1 
3.536657 -0.4904185 -1 
3.536657 -0.2356277 -1 
3.88563 -0.2356277 -1 
4.93255 -0.4904185 -1 
4.93255 -0.2356277 -1 
5.281524 -0.2356277 -1 
6.677418 -1 0.25 
7.026391 -1 0.25 
7.026391 -1 0.5 
5.281524 -1 0.25 
5.630498 -1 0.25 
5.630498 -1 0.5 
3.88563 -1 0.25 
4.234604 -1 0.25 
4.234604 -1 0.5 
2.489736 -1 0.25 
2.838709 -1 0.25 
2.838709 -1 0.5 
1.093841 -1 0.25 
1.442814 -1 0.25 
1.442814 -1 0.5 
7.026391 -0.4904185 1 
7.026391 -0.2356277 1 
6.677418 -0.2356277 1 
5.630498 -0.4904185 1 
5.630498 -0.2356277 1 
5.281524 -0.2356277 1 
4.234604 -0.4904185 1 
4.234604 -0.2356277 1 
3.88563 -0.2356277 1 
2.83871 -0.4904185 1 
2.83871 -0.2356277 1 
2.489736 -0.2356277 1 
1.442815 -0.4904185 1 
1.442815 -0.2356277 1 
1.093841 -0.2356277 1 
-0.6510265 -0.7452092 1 
-0.302053 -0.7452092 1 
-0.6510265 -0.4904185 1 
-0.6510265 -1 0.75 
-0.6510265 -1 0.5 
-0.302053 -1 0.75 
-1 0.7547908 0.75 
-1 0.7547908 0.5 
-1 0.5095815 0.75 
7.026391 -0.7452092 -1 
6.677418 -0.7452092 -1 
7.026391 -0.4904185 -1 
7.375365 -0.7452092 0.75 
7.375365 -0.7452092 0.5 
7.375365 -0.4904185 0.75 
7.026391 1 0.75 
7.026391 1 0.5 
6.677418 1 0.75 
7.026391 1 -0.25 
7.026391 1 -0.5 
6.677418 1 -0.25 
7.375365 -0.7452092 -0.25 
7.375365 -0.7452092 -0.5 
7.375365 -0.4904185 -0.25 
-1 0.7547908 -0.25 
-1 0.7547908 -0.5 
-1 0.5095815 -0.25 
-0.6510265 -1 -0.25 
-0.6510265 -1 -0.5 
-0.302053 -1 -0.25 
-1 -0.2356277 -0.25 
-1 -0.2356277 -0.5 
-1 -0.4904185 -0.25 
7.375365 0.2643723 -0.25 
7.375365 0.2643723 -0.5 
7.375365 0.5095815 -0.25 
7.375365 0.2643723 0.75 
7.375365 0.2643723 0.5 
7.375365 0.5095815 0.75 
7.026391 0.2643723 -1 
6.677418 0.2643723 -1 
7.026391 0.5095815 -1 
-1 -0.2356277 0.75 
-1 -0.2356277 0.5 
-1 -0.4904185 0.75 
-0.6510265 0.2643723 1 
-0.302053 0.2643723 1 
-0.6510265 0.5095815 1 
6.328444 0.2643723 1 
6.677418 0.2643723 1 
6.328444 0.5095815 1 
4.93255 0.2643723 1 
5.281524 0.2643723 1 
4.93255 0.5095815 1 
3.536657 0.2643723 1 
3.88563 0.2643723 1 
3.536657 0.5095815 1 
2.140763 0.2643723 1 
2.489736 0.2643723 1 
2.140763 0.5095815 1 
0.7448678 0.2643723 1 
1.093842 0.2643723 1 
0.7448678 0.5095815 1 
0.04692049 0.2643723 -1 
-0.302053 0.2643723 -1 
0.04692049 0.5095815 -1 
1.442814 0.2643723 -1 
1.093841 0.2643723 -1 
1.442814 0.5095815 -1 
2.838709 0.2643723 -1 
2.489736 0.2643723 -1 
2.838709 0.5095815 -1 
4.234604 0.2643723 -1 
3.88563 0.2643723 -1 
4.234604 0.5095815 -1 
5.630498 0.2643723 -1 
5.281524 0.2643723 -1 
5.630498 0.5095815 -1 
6.328444 -1 -0.25 
6.328444 -1 -0.5 
6.677418 -1 -0.25 
4.93255 -1 -0.25 
4.93255 -1 -0.5 
5.281524 -1 -0.25 
4.234604 -1 -0.25 
3.88563 -1 -0.25 
4.234604 -1 -0.5 
2.140762 -1 -0.25 
2.140762 -1 -0.5 
2.489736 -1 -0.25 
0.7448674 -1 -0.25 
0.7448674 -1 -0.5 
1.093841 -1 -0.25 
0.04692049 1 -0.25 
0.04692049 1 -0.5 
-0.302053 1 -0.25 
1.442815 1 -0.25 
1.442815 1 -0.5 
1.093841 1 -0.25 
2.83871 1 -0.25 
2.83871 1 -0.5 
2.489736 1 -0.25 
3.536657 1 -0.25 
3.88563 1 -0.25 
3.536657 1 -0.5 
5.630498 1 -0.25 
5.630498 1 -0.5 
5.281524 1 -0.25 
0.04692049 1 0.75 
0.04692049 1 0.5 
-0.302053 1 0.75 
1.442815 1 0.75 
1.442815 1 0.5 
1.093842 1 0.75 
2.83871 1 0.75 
2.83871 1 0.5 
2.489736 1 0.75 
4.234604 1 0.75 
4.234604 1 0.5 
3.88563 1 0.75 
5.630498 1 0.75 
5.630498 1 0.5 
5.281524 1 0.75 
0.04692049 -0.7452092 -1 
-0.302053 -0.7452092 -1 
0.04692049 -0.4904185 -1 
1.442815 -0.7452092 -1 
1.093841 -0.7452092 -1 
1.442815 -0.4904185 -1 
2.83871 -0.7452092 -1 
2.489736 -0.7452092 -1 
2.83871 -0.4904185 -1 
4.234604 -0.7452092 -1 
3.88563 -0.7452092 -1 
4.234604 -0.4904185 -1 
5.630498 -0.7452092 -1 
5.281524 -0.7452092 -1 
5.630498 -0.4904185 -1 
6.328444 -1 0.75 
6.328444 -1 0.5 
6.677418 -1 0.75 
4.93255 -1 0.75 
4.93255 -1 0.5 
5.281524 -1 0.75 
3.536657 -1 0.75 
3.536657 -1 0.5 
3.88563 -1 0.75 
2.140762 -1 0.75 
2.140762 -1 0.5 
2.489736 -1 0.75 
0.7448674 -1 0.75 
0.7448674 -1 0.5 
1.093841 -1 0.75 
6.328444 -0.7452092 1 
6.677418 -0.7452092 1 
6.328444 -0.4904185 1 
4.93255 -0.7452092 1 
5.281524 -0.7452092 1 
4.93255 -0.4904185 1 
3.536657 -0.7452092 1 
3.88563 -0.7452092 1 
3.536657 -0.4904185 1 
2.140762 -0.7452092 1 
2.489736 -0.7452092 1 
2.140762 -0.4904185 1 
0.7448674 -0.7452092 1 
1.093841 -0.7452092 1 
0.7448674 -0.4904185 1 
-0.6510265 -0.2356277 1 
-0.6510265 0.019163 1 
0.04692049 -0.7452092 1 
0.395894 -0.7452092 1 
0.395894 -0.2356277 1 
0.04692049 0.019163 1 
0.04692049 -1 0.75 
0.395894 -1 0.75 
-0.6510265 -1 0.25 
-0.6510265 -1 0 
0.04692049 -1 0 
0.395894 -1 0.25 
-1 0.2643723 0.75 
-1 0.019163 0.75 
-1 0.7547908 0.25 
-1 0.7547908 0 
-1 0.2643723 0 
-1 0.019163 0.25 
7.026391 -0.2356277 -1 
7.026391 0.019163 -1 
6.328444 -0.7452092 -1 
5.979471 -0.7452092 -1 
5.979471 -0.2356277 -1 
6.328444 0.019163 -1 
7.375365 -0.2356277 0.75 
7.375365 0.019163 0.75 
7.375365 -0.7452092 0.25 
7.375365 -0.7452092 0 
7.375365 -0.2356277 0 
7.375365 0.019163 0.25 
6.328444 1 0.75 
5.979471 1 0.75 
7.026391 1 0.25 
7.026391 1 0 
6.328444 1 0 
5.979471 1 0.25 
6.328444 1 -0.25 
5.979471 1 -0.25 
7.026391 1 -0.75 
7.026391 1 -1 
6.328444 1 -1 
5.979471 1 -0.75 
7.375365 -0.2356277 -0.25 
7.375365 0.019163 -0.25 
7.375365 -0.7452092 -0.75 
7.375365 -0.7452092 -1 
7.375365 -0.2356277 -1 
7.375365 0.019163 -0.75 
-1 0.2643723 -0.25 
-1 0.019163 -0.25 
-1 0.7547908 -0.75 
-1 0.7547908 -1 
-1 0.2643723 -1 
-1 0.019163 -0.75 
0.04692049 -1 -0.25 
0.395894 -1 -0.25 
-0.6510265 -1 -0.75 
-0.6510265 -1 -1 
0.04692049 -1 -1 
0.395894 -1 -0.75 
-1 -0.7452092 -0.25 
-1 -1 -0.25 
-1 -0.2356277 -0.75 
-1 -0.2356277 -1 
-1 -0.7452092 -1 
-1 -1 -0.75 
7.375365 0.7547908 -0.25 
7.375365 1 -0.25 
7.375365 0.2643723 -0.75 
7.375365 0.2643723 -1 
7.375365 0.7547908 -1 
7.375365 1 -0.75 
7.375365 0.7547908 0.75 
7.375365 1 0.75 
7.375365 0.2643723 0.25 
7.375365 0.2643723 0 
7.375365 0.7547908 0 
7.375365 1 0.25 
7.026391 0.7547908 -1 
7.026391 1 -1 
6.328444 0.2643723 -1 
5.979471 0.2643723 -1 
5.979471 0.7547908 -1 
6.328444 1 -1 
-1 -0.7452092 0.75 
-1 -1 0.75 
-1 -0.2356277 0.25 
-1 -0.2356277 0 
-1 -0.7452092 0 
-1 -1 0.25 
-0.6510265 0.7547908 1 
-0.6510265 1 1 
0.04692049 0.2643723 1 
0.395894 0.2643723 1 
0.395894 0.7547908 1 
0.04692049 1 1 
6.328444 0.7547908 1 
6.328444 1 1 
7.026391 0.2643723 1 
7.375365 0.2643723 1 
7.375365 0.7547908 1 
7.026391 1 1 
4.93255 0.7547908 1 
4.93255 1 1 
5.630498 0.2643723 1 
5.979471 0.2643723 1 
5.979471 0.7547908 1 
5.630498 1 1 
3.536657 0.7547908 1 
3.536657 1 1 
4.234604 0.2643723 1 
4.583577 0.2643723 1 
4.583577 0.7547908 1 
4.234604 1 1 
2.140763 0.7547908 1 
2.140763 1 1 
2.83871 0.2643723 1 
3.187683 0.2643723 1 
3.187683 0.7547908 1 
2.83871 1 1 
0.7448678 0.7547908 1 
0.7448678 1 1 
1.442815 0.2643723 1 
1.791789 0.2643723 1 
1.791789 0.7547908 1 
1.442815 1 1 
0.04692049 0.7547908 -1 
0.04692049 1 -1 
-0.6510265 0.2643723 -1 
-1 0.2643723 -1 
-1 0.7547908 -1 
-0.6510265 1 -1 
1.442814 0.7547908 -1 
1.442814 1 -1 
0.7448674 0.2643723 -1 
0.395894 0.2643723 -1 
0.395894 0.7547908 -1 
0.7448674 1 -1 
2.838709 0.7547908 -1 
2.838709 1 -1 
2.140762 0.2643723 -1 
1.791788 0.2643723 -1 
1.791788 0.7547908 -1 
2.140762 1 -1 
4.234604 0.7547908 -1 
4.234604 1 -1 
3.536657 0.2643723 -1 
3.187683 0.2643723 -1 
3.187683 0.7547908 -1 
3.536657 1 -1 
5.630498 0.7547908 -1 
5.630498 1 -1 
4.93255 0.2643723 -1 
4.583577 0.2643723 -1 
4.583577 0.7547908 -1 
4.93255 1 -1 
7.026391 -1 -0.25 
7.375365 -1 -0.25 
6.328444 -1 -0.75 
6.328444 -1 -1 
7.026391 -1 -1 
7.375365 -1 -0.75 
5.630498 -1 -0.25 
5.979471 -1 -0.25 
4.93255 -1 -0.75 
4.93255 -1 -1 
5.630498 -1 -1 
5.979471 -1 -0.75 
4.234604 -1 -0.75 
4.234604 -1 -1 
3.536657 -1 -0.25 
3.187683 -1 -0.25 
3.187683 -1 -0.75 
3.536657 -1 -1 
2.83871 -1 -0.25 
2.140763 -1 -0.75 
2.140763 -1 -1 
2.83871 -1 -1 
1.442814 -1 -0.25 
1.791788 -1 -0.25 
0.7448674 -1 -0.75 
0.7448678 -1 -1 
1.442815 -1 -1 
1.791789 -1 -0.75 
-0.6510265 1 -0.25 
-1 1 -0.25 
0.04692049 1 -0.75 
0.04692049 1 -1 
-0.6510265 1 -1 
-1 1 -0.75 
0.7448674 1 -0.25 
0.395894 1 -0.25 
1.442814 1 -0.75 
1.442814 1 -1 
0.7448674 1 -1 
0.395894 1 -0.75 
2.140763 1 -0.25 
1.791789 1 -0.25 
2.83871 1 -0.75 
2.838709 1 -1 
2.140762 1 -1 
1.791788 1 -0.75 
3.536657 1 -0.75 
3.536657 1 -1 
4.234604 1 -0.25 
4.583577 1 -0.25 
4.583577 1 -0.75 
4.234604 1 -1 
4.93255 1 -0.25 
5.630498 1 -0.75 
5.630498 1 -1 
4.93255 1 -1 
-0.6510265 1 0.75 
-1 1 0.75 
0.04692049 1 0.25 
0.04692049 1 0 
-0.6510265 1 0 
-1 1 0.25 
0.7448678 1 0.75 
0.395894 1 0.75 
1.442815 1 0.25 
1.442815 1 0 
0.7448678 1 0 
0.395894 1 0.25 
2.140763 1 0.75 
1.791789 1 0.75 
2.83871 1 0.25 
2.83871 1 0 
2.140763 1 0 
1.791789 1 0.25 
3.536657 1 0.75 
3.187683 1 0.75 
4.234604 1 0.25 
4.234604 1 0 
3.536657 1 0 
3.187683 1 0.25 
4.93255 1 0.75 
4.583577 1 0.75 
5.630498 1 0.25 
5.630498 1 0 
4.93255 1 0 
4.583577 1 0.25 
0.04692049 -0.2356277 -1 
0.04692049 0.019163 -1 
-0.6510265 -0.7452092 -1 
-1 -0.7452092 -1 
-1 -0.2356277 -1 
-0.6510265 0.019163 -1 
1.442814 -0.2356277 -1 
1.442814 0.019163 -1 
0.7448674 -0.7452092 -1 
0.395894 -0.7452092 -1 
0.395894 -0.2356277 -1 
0.7448674 0.019163 -1 
2.83871 -0.2356277 -1 
2.838709 0.019163 -1 
2.140763 -0.7452092 -1 
1.791789 -0.7452092 -1 
1.791788 -0.2356277 -1 
2.140762 0.019163 -1 
4.234604 -0.2356277 -1 
4.234604 0.019163 -1 
3.536657 -0.7452092 -1 
3.187683 -0.7452092 -1 
3.187683 -0.2356277 -1 
3.536657 0.019163 -1 
5.630498 -0.2356277 -1 
5.630498 0.019163 -1 
4.93255 -0.7452092 -1 
4.583577 -0.7452092 -1 
4.583577 -0.2356277 -1 
4.93255 0.019163 -1 
7.026391 -1 0.75 
7.375365 -1 0.75 
6.328444 -1 0.25 
6.328444 -1 0 
7.026391 -1 0 
7.375365 -1 0.25 
5.630498 -1 0.75 
5.979471 -1 0.75 
4.93255 -1 0.25 
4.93255 -1 0 
5.630498 -1 0 
5.979471 -1 0.25 
4.234604 -1 0.75 
4.583577 -1 0.75 
3.536657 -1 0.25 
3.536657 -1 0 
4.234604 -1 0 
4.583577 -1 0.25 
2.838709 -1 0.75 
3.187683 -1 0.75 
2.140762 -1 0.25 
2.140762 -1 0 
2.838709 -1 0 
3.187683 -1 0.25 
1.442814 -1 0.75 
1.791788 -1 0.75 
0.7448674 -1 0.25 
0.7448674 -1 0 
1.442814 -1 0 
1.791788 -1 0.25 
6.328444 -0.2356277 1 
6.328444 0.019163 1 
7.026391 -0.7452092 1 
7.375365 -0.7452092 1 
7.375365 -0.2356277 1 
7.026391 0.019163 1 
4.93255 -0.2356277 1 
4.93255 0.019163 1 
5.630498 -0.7452092 1 
5.979471 -0.7452092 1 
5.979471 -0.2356277 1 
5.630498 0.019163 1 
3.536657 -0.2356277 1 
3.536657 0.019163 1 
4.234604 -0.7452092 1 
4.583577 -0.7452092 1 
4.583577 -0.2356277 1 
4.234604 0.019163 1 
2.140763 -0.2356277 1 
2.140763 0.019163 1 
2.83871 -0.7452092 1 
3.187683 -0.7452092 1 
3.187683 -0.2356277 1 
2.83871 0.019163 1 
0.7448674 -0.2356277 1 
0.7448678 0.019163 1 
1.442814 -0.7452092 1 
1.791788 -0.7452092 1 
1.791789 -0.2356277 1 
1.442815 0.019163 1 
-1 -0.2356277 1 
-1 -0.7452092 1 
-0.6510265 -1 1 
0.04692049 -1 1 
0.04692049 -1 1 
-0.6510265 -1 1 
-1 -1 0.75 
-1 -1 0.25 
-1 0.2643723 1 
-1 0.7547908 1 
7.026391 -1 -1 
6.328444 -1 -1 
6.328444 1 1 
7.026391 1 1 
-1 -1 -0.25 
-1 -1 -0.75 
-1 -0.7452092 1 
-1 -0.2356277 1 
-1 0.7547908 1 
-1 0.2643723 1 
4.583577 -1 -0.25 
4.583577 -1 -0.75 
3.187683 1 -0.25 
3.187683 1 -0.75 
-0.6510265 1 1 
0.04692049 1 1 
0.7448678 1 1 
1.442815 1 1 
2.140763 1 1 
2.83871 1 1 
3.536657 1 1 
4.234604 1 1 
4.93255 1 1 
5.630498 1 1 
0.04692049 -1 -1 
-0.6510265 -1 -1 
1.442815 -1 -1 
0.7448678 -1 -1 
2.83871 -1 -1 
2.140763 -1 -1 
4.234604 -1 -1 
3.536657 -1 -1 
5.630498 -1 -1 
4.93255 -1 -1 
7.026391 -1 1 
6.328444 -1 1 
5.630498 -1 1 
4.93255 -1 1 
4.234604 -1 1 
3.536657 -1 1 
2.838709 -1 1 
2.140762 -1 1 
1.442814 -1 1 
0.7448674 -1 1 
6.328444 -1 1 
7.026391 -1 1 
4.93255 -1 1 
5.630498 -1 1 
3.536657 -1 1 
4.234604 -1 1 
2.140762 -1 1 
2.838709 -1 1 
0.7448674 -1 1 
1.442814 -1 1 
3 285 286 287 
3 288 289 290 
3 291 292 293 
3 294 295 296 
3 297 298 299 
3 300 301 302 
3 303 304 305 
3 306 307 308 
3 309 310 311 
3 312 313 314 
3 315 316 317 
3 318 319 320 
3 321 322 323 
3 324 325 326 
3 327 328 329 
3 330 331 332 
3 333 334 335 
3 336 337 338 
3 339 340 341 
3 342 343 344 
3 345 346 347 
3 348 349 350 
3 351 352 353 
3 354 355 356 
3 357 358 359 
3 360 361 362 
3 363 364 365 
3 366 367 368 
3 369 370 371 
3 372 373 374 
3 375 376 377 
3 378 379 380 
3 381 382 383 
3 384 385 386 
3 387 388 389 
3 390 391 392 
3 393 394 395 
3 396 397 398 
3 399 400 401 
3 402 403 404 
3 405 406 407 
3 408 409 410 
3 411 412 413 
3 414 415 416 
3 417 418 419 
3 420 421 422 
3 423 424 425 
3 426 427 428 
3 429 430 431 
3 432 433 434 
3 435 436 437 
3 438 439 440 
3 441 442 443 
3 444 445 446 
3 447 448 449 
3 450 451 452 
3 453 454 455 
3 456 457 458 
3 459 460 461 
3 462 463 464 
3 465 466 467 
3 468 469 470 
3 471 472 473 
3 474 475 476 
3 477 478 479 
3 480 481 482 
3 483 484 485 
3 486 487 488 
3 489 490 491 
3 492 493 494 
3 495 496 497 
3 498 499 500 
3 501 502 503 
3 504 505 506 
3 507 508 509 
3 510 511 512 
3 513 514 515 
3 516 517 518 
3 519 520 521 
3 522 523 524 
3 525 526 527 
3 528 529 530 
3 531 532 533 
3 534 535 536 
3 537 538 539 
3 540 541 542 
3 543 544 545 
3 546 547 548 
3 549 550 551 
3 552 553 554 
3 555 556 557 
3 558 559 560 
3 561 562 563 
3 564 565 566 
3 567 568 569 
3 570 571 572 
3 573 574 575 
3 576 577 578 
3 579 580 581 
3 582 583 584 
3 585 586 587 
3 588 589 590 
3 591 592 593 
3 594 595 596 
3 597 598 599 
3 600 601 602 
3 603 604 605 
3 606 607 608 
3 609 610 611 
3 612 613 614 
3 615 616 617 
3 618 619 620 
3 621 287 622 
3 623 624 285 
3 286 625 626 
3 627 290 628 
3 629 630 288 
3 289 631 632 
3 633 293 634 
3 635 636 291 
3 292 637 638 
3 639 296 640 
3 641 642 294 
3 295 643 644 
3 645 299 646 
3 647 648 297 
3 298 649 650 
3 651 302 652 
3 653 654 300 
3 301 655 656 
3 657 305 658 
3 659 660 303 
3 304 661 662 
3 663 308 664 
3 665 666 306 
3 307 667 668 
3 669 311 670 
3 671 672 309 
3 310 673 674 
3 675 314 676 
3 677 678 312 
3 313 679 680 
3 681 317 682 
3 683 684 315 
3 316 685 686 
3 687 320 688 
3 689 690 318 
3 319 691 692 
3 693 323 694 
3 695 696 321 
3 322 697 698 
3 699 326 700 
3 701 702 324 
3 325 703 704 
3 705 329 706 
3 707 708 327 
3 328 709 710 
3 711 332 712 
3 713 714 330 
3 331 715 716 
3 717 335 718 
3 719 720 333 
3 334 721 722 
3 723 338 724 
3 725 726 336 
3 337 727 728 
3 729 341 730 
3 731 732 339 
3 340 733 734 
3 735 344 736 
3 737 738 342 
3 343 739 740 
3 741 347 742 
3 743 744 345 
3 346 745 746 
3 747 350 748 
3 749 750 348 
3 349 751 752 
3 753 353 754 
3 755 756 351 
3 352 757 758 
3 759 356 760 
3 761 762 354 
3 355 763 764 
3 765 359 766 
3 767 768 357 
3 358 769 770 
3 771 362 772 
3 773 774 360 
3 361 775 776 
3 777 365 778 
3 779 780 363 
3 364 781 782 
3 783 368 784 
3 785 786 366 
3 367 787 788 
3 789 371 790 
3 791 792 369 
3 370 793 794 
3 795 374 792 
3 796 797 372 
3 373 798 793 
3 799 377 800 
3 801 802 375 
3 376 803 804 
3 805 380 806 
3 807 808 378 
3 379 809 810 
3 811 383 812 
3 813 814 381 
3 382 815 816 
3 817 386 818 
3 819 820 384 
3 385 821 822 
3 823 389 824 
3 825 826 387 
3 388 827 828 
3 829 392 826 
3 830 831 390 
3 391 832 827 
3 833 395 834 
3 835 836 393 
3 394 837 838 
3 839 398 840 
3 841 842 396 
3 397 843 844 
3 845 401 846 
3 847 848 399 
3 400 849 850 
3 851 404 852 
3 853 854 402 
3 403 855 856 
3 857 407 858 
3 859 860 405 
3 406 861 862 
3 863 410 864 
3 865 866 408 
3 409 867 868 
3 869 413 870 
3 871 872 411 
3 412 873 874 
3 875 416 876 
3 877 878 414 
3 415 879 880 
3 881 419 882 
3 883 884 417 
3 418 885 886 
3 887 422 888 
3 889 890 420 
3 421 891 892 
3 893 425 894 
3 895 896 423 
3 424 897 898 
3 899 428 900 
3 901 902 426 
3 427 903 904 
3 905 431 906 
3 907 908 429 
3 430 909 910 
3 911 434 912 
3 913 914 432 
3 433 915 916 
3 917 437 918 
3 919 920 435 
3 436 921 922 
3 923 440 924 
3 925 926 438 
3 439 927 928 
3 929 443 930 
3 931 932 441 
3 442 933 934 
3 935 446 936 
3 937 938 444 
3 445 939 940 
3 941 449 942 
3 943 944 447 
3 448 945 946 
3 947 452 948 
3 949 950 450 
3 451 951 952 
3 953 455 621 
3 954 955 453 
3 454 956 623 
3 957 458 627 
3 958 959 456 
3 457 960 629 
3 961 461 633 
3 962 834 459 
3 460 838 635 
3 667 464 639 
3 666 963 462 
3 463 964 641 
3 927 467 645 
3 926 894 465 
3 466 898 647 
3 965 470 651 
3 966 694 468 
3 469 698 653 
3 655 473 657 
3 654 688 471 
3 472 692 659 
3 649 476 663 
3 648 778 474 
3 475 782 665 
3 637 479 669 
3 636 806 477 
3 478 810 671 
3 631 482 675 
3 630 967 480 
3 481 968 677 
3 709 485 681 
3 708 670 483 
3 484 674 683 
3 697 488 687 
3 696 664 486 
3 487 668 689 
3 721 491 693 
3 720 646 489 
3 490 650 695 
3 691 494 699 
3 690 640 492 
3 493 644 701 
3 969 497 705 
3 970 634 495 
3 496 638 707 
3 971 500 711 
3 972 622 498 
3 499 626 713 
3 727 503 717 
3 726 924 501 
3 502 928 719 
3 733 506 723 
3 732 930 504 
3 505 934 725 
3 739 509 729 
3 738 936 507 
3 508 940 731 
3 745 512 735 
3 744 942 510 
3 511 946 737 
3 715 515 741 
3 714 948 513 
3 514 952 743 
3 757 518 747 
3 756 864 516 
3 517 868 749 
3 763 521 753 
3 762 870 519 
3 520 874 755 
3 769 524 759 
3 768 876 522 
3 523 880 761 
3 775 527 765 
3 774 882 525 
3 526 886 767 
3 703 530 771 
3 702 888 528 
3 529 892 773 
3 897 533 777 
3 896 784 531 
3 532 788 779 
3 903 536 783 
3 902 973 534 
3 535 974 785 
3 974 539 789 
3 973 909 537 
3 538 908 791 
3 915 542 795 
3 914 800 540 
3 541 804 796 
3 921 545 799 
3 920 676 543 
3 544 680 801 
3 837 548 805 
3 836 812 546 
3 547 816 807 
3 843 551 811 
3 842 818 549 
3 550 822 813 
3 849 554 817 
3 848 975 552 
3 553 976 819 
3 976 557 823 
3 975 855 555 
3 556 854 825 
3 861 560 829 
3 860 658 558 
3 559 662 830 
3 977 563 833 
3 978 840 561 
3 562 844 835 
3 979 566 839 
3 980 846 564 
3 565 850 841 
3 981 569 845 
3 982 852 567 
3 568 856 847 
3 983 572 851 
3 984 858 570 
3 571 862 853 
3 985 575 857 
3 986 652 573 
3 574 656 859 
3 873 578 863 
3 872 987 576 
3 577 988 865 
3 879 581 869 
3 878 989 579 
3 580 990 871 
3 885 584 875 
3 884 991 582 
3 583 992 877 
3 891 587 881 
3 890 993 585 
3 586 994 883 
3 643 590 887 
3 642 995 588 
3 589 996 889 
3 997 593 893 
3 998 900 591 
3 592 904 895 
3 999 596 899 
3 1000 906 594 
3 595 910 901 
3 1001 599 905 
3 1002 912 597 
3 598 916 907 
3 1003 602 911 
3 1004 918 600 
3 601 922 913 
3 1005 605 917 
3 1006 628 603 
3 604 632 919 
3 933 608 923 
3 932 1007 606 
3 607 1008 925 
3 939 611 929 
3 938 1009 609 
3 610 1010 931 
3 945 614 935 
3 944 1011 612 
3 613 1012 937 
3 951 617 941 
3 950 1013 615 
3 616 1014 943 
3 625 620 947 
3 624 1015 618 
3 619 1016 949 
3 87 285 287 
3 285 88 286 
3 287 286 89 
3 90 288 290 
3 288 91 289 
3 290 289 92 
3 93 291 293 
3 291 94 292 
3 293 292 95 
3 96 294 296 
3 294 97 295 
3 296 295 98 
3 99 297 299 
3 297 100 298 
3 299 298 101 
3 102 300 302 
3 300 103 301 
3 302 301 104 
3 105 303 305 
3 303 106 304 
3 305 304 107 
3 108 306 308 
3 306 109 307 
3 308 307 110 
3 111 309 311 
3 309 112 310 
3 311 310 113 
3 114 312 314 
3 312 115 313 
3 314 313 116 
3 117 315 317 
3 315 118 316 
3 317 316 119 
3 120 318 320 
3 318 121 319 
3 320 319 122 
3 123 321 323 
3 321 124 322 
3 323 322 125 
3 126 324 326 
3 324 127 325 
3 326 325 128 
3 129 327 329 
3 327 130 328 
3 329 328 131 
3 132 330 332 
3 330 133 331 
3 332 331 134 
3 135 333 335 
3 333 136 334 
3 335 334 137 
3 138 336 338 
3 336 139 337 
3 338 337 140 
3 141 339 341 
3 339 142 340 
3 341 340 143 
3 144 342 344 
3 342 145 343 
3 344 343 146 
3 147 345 347 
3 345 148 346 
3 347 346 149 
3 150 348 350 
3 348 151 349 
3 350 349 152 
3 153 351 353 
3 351 154 352 
3 353 352 155 
3 156 354 356 
3 354 157 355 
3 356 355 158 
3 159 357 359 
3 357 160 358 
3 359 358 161 
3 162 360 362 
3 360 163 361 
3 362 361 164 
3 165 363 365 
3 363 166 364 
3 365 364 167 
3 168 366 368 
3 366 169 367 
3 368 367 170 
3 171 369 371 
3 369 172 370 
3 371 370 173 
3 174 372 374 
3 372 175 373 
3 374 373 172 
3 176 375 377 
3 375 177 376 
3 377 376 178 
3 179 378 380 
3 378 180 379 
3 380 379 181 
3 182 381 383 
3 381 183 382 
3 383 382 184 
3 185 384 386 
3 384 186 385 
3 386 385 187 
3 188 387 389 
3 387 189 388 
3 389 388 190 
3 191 390 392 
3 390 192 391 
3 392 391 189 
3 193 393 395 
3 393 194 394 
3 395 394 195 
3 196 396 398 
3 396 197 397 
3 398 397 198 
3 199 399 401 
3 399 200 400 
3 401 400 201 
3 202 402 404 
3 402 203 403 
3 404 403 204 
3 205 405 407 
3 405 206 406 
3 407 406 207 
3 208 408 410 
3 408 209 409 
3 410 409 210 
3 211 411 413 
3 411 212 412 
3 413 412 213 
3 214 414 416 
3 414 215 415 
3 416 415 216 
3 217 417 419 
3 417 218 418 
3 419 418 219 
3 220 420 422 
3 420 221 421 
3 422 421 222 
3 223 423 425 
3 423 224 424 
3 425 424 225 
3 226 426 428 
3 426 227 427 
3 428 427 228 
3 229 429 431 
3 429 230 430 
3 431 430 231 
3 232 432 434 
3 432 233 433 
3 434 433 234 
3 235 435 437 
3 435 236 436 
3 437 436 237 
3 238 438 440 
3 438 239 439 
3 440 439 240 
3 241 441 443 
3 441 242 442 
3 443 442 243 
3 244 444 446 
3 444 245 445 
3 446 445 246 
3 247 447 449 
3 447 248 448 
3 449 448 249 
3 250 450 452 
3 450 251 451 
3 452 451 252 
3 253 453 455 
3 453 254 454 
3 455 454 87 
3 255 456 458 
3 456 256 457 
3 458 457 90 
3 257 459 461 
3 459 195 460 
3 461 460 93 
3 109 462 464 
3 462 258 463 
3 464 463 96 
3 239 465 467 
3 465 225 466 
3 467 466 99 
3 259 468 470 
3 468 125 469 
3 470 469 102 
3 103 471 473 
3 471 122 472 
3 473 472 105 
3 100 474 476 
3 474 167 475 
3 476 475 108 
3 94 477 479 
3 477 181 478 
3 479 478 111 
3 91 480 482 
3 480 260 481 
3 482 481 114 
3 130 483 485 
3 483 113 484 
3 485 484 117 
3 124 486 488 
3 486 110 487 
3 488 487 120 
3 136 489 491 
3 489 101 490 
3 491 490 123 
3 121 492 494 
3 492 98 493 
3 494 493 126 
3 261 495 497 
3 495 95 496 
3 497 496 129 
3 262 498 500 
3 498 89 499 
3 500 499 132 
3 139 501 503 
3 501 240 502 
3 503 502 135 
3 142 504 506 
3 504 243 505 
3 506 505 138 
3 145 507 509 
3 507 246 508 
3 509 508 141 
3 148 510 512 
3 510 249 511 
3 512 511 144 
3 133 513 515 
3 513 252 514 
3 515 514 147 
3 154 516 518 
3 516 210 517 
3 518 517 150 
3 157 519 521 
3 519 213 520 
3 521 520 153 
3 160 522 524 
3 522 216 523 
3 524 523 156 
3 163 525 527 
3 525 219 526 
3 527 526 159 
3 127 528 530 
3 528 222 529 
3 530 529 162 
3 224 531 533 
3 531 170 532 
3 533 532 165 
3 227 534 536 
3 534 263 535 
3 536 535 168 
3 263 537 539 
3 537 230 538 
3 539 538 171 
3 233 540 542 
3 540 178 541 
3 542 541 174 
3 236 543 545 
3 543 116 544 
3 545 544 176 
3 194 546 548 
3 546 184 547 
3 548 547 179 
3 197 549 551 
3 549 187 550 
3 551 550 182 
3 200 552 554 
3 552 264 553 
3 554 553 185 
3 264 555 557 
3 555 203 556 
3 557 556 188 
3 206 558 560 
3 558 107 559 
3 560 559 191 
3 265 561 563 
3 561 198 562 
3 563 562 193 
3 266 564 566 
3 564 201 565 
3 566 565 196 
3 267 567 569 
3 567 204 568 
3 569 568 199 
3 268 570 572 
3 570 207 571 
3 572 571 202 
3 269 573 575 
3 573 104 574 
3 575 574 205 
3 212 576 578 
3 576 270 577 
3 578 577 208 
3 215 579 581 
3 579 271 580 
3 581 580 211 
3 218 582 584 
3 582 272 583 
3 584 583 214 
3 221 585 587 
3 585 273 586 
3 587 586 217 
3 97 588 590 
3 588 274 589 
3 590 589 220 
3 275 591 593 
3 591 228 592 
3 593 592 223 
3 276 594 596 
3 594 231 595 
3 596 595 226 
3 277 597 599 
3 597 234 598 
3 599 598 229 
3 278 600 602 
3 600 237 601 
3 602 601 232 
3 279 603 605 
3 603 92 604 
3 605 604 235 
3 242 606 608 
3 606 280 607 
3 608 607 238 
3 245 609 611 
3 609 281 610 
3 611 610 241 
3 248 612 614 
3 612 282 613 
3 614 613 244 
3 251 615 617 
3 615 283 616 
3 617 616 247 
3 88 618 620 
3 618 284 619 
3 620 619 250 
3 0 621 622 
3 621 87 287 
3 622 287 89 
3 87 623 285 
3 623 1 624 
3 285 624 88 
3 89 286 626 
3 286 88 625 
3 626 625 2 
3 3 627 628 
3 627 90 290 
3 628 290 92 
3 90 629 288 
3 629 4 630 
3 288 630 91 
3 92 289 632 
3 289 91 631 
3 632 631 5 
3 6 633 634 
3 633 93 293 
3 634 293 95 
3 93 635 291 
3 635 7 636 
3 291 636 94 
3 95 292 638 
3 292 94 637 
3 638 637 8 
3 9 639 640 
3 639 96 296 
3 640 296 98 
3 96 641 294 
3 641 10 642 
3 294 642 97 
3 98 295 644 
3 295 97 643 
3 644 643 11 
3 12 645 646 
3 645 99 299 
3 646 299 101 
3 99 647 297 
3 647 13 648 
3 297 648 100 
3 101 298 650 
3 298 100 649 
3 650 649 14 
3 15 651 652 
3 651 102 302 
3 652 302 104 
3 102 653 300 
3 653 16 654 
3 300 654 103 
3 104 301 656 
3 301 103 655 
3 656 655 17 
3 17 657 658 
3 657 105 305 
3 658 305 107 
3 105 659 303 
3 659 18 660 
3 303 660 106 
3 107 304 662 
3 304 106 661 
3 662 661 19 
3 14 663 664 
3 663 108 308 
3 664 308 110 
3 108 665 306 
3 665 20 666 
3 306 666 109 
3 110 307 668 
3 307 109 667 
3 668 667 9 
3 8 669 670 
3 669 111 311 
3 670 311 113 
3 111 671 309 
3 671 21 672 
3 309 672 112 
3 113 310 674 
3 310 112 673 
3 674 673 22 
3 5 675 676 
3 675 114 314 
3 676 314 116 
3 114 677 312 
3 677 23 678 
3 312 678 115 
3 116 313 680 
3 313 115 679 
3 680 679 24 
3 25 681 682 
3 681 117 317 
3 682 317 119 
3 117 683 315 
3 683 22 684 
3 315 684 118 
3 119 316 686 
3 316 118 685 
3 686 685 26 
3 16 687 688 
3 687 120 320 
3 688 320 122 
3 120 689 318 
3 689 9 690 
3 318 690 121 
3 122 319 692 
3 319 121 691 
3 692 691 18 
3 27 693 694 
3 693 123 323 
3 694 323 125 
3 123 695 321 
3 695 14 696 
3 321 696 124 
3 125 322 698 
3 322 124 697 
3 698 697 16 
3 18 699 700 
3 699 126 326 
3 700 326 128 
3 126 701 324 
3 701 11 702 
3 324 702 127 
3 128 325 704 
3 325 127 703 
3 704 703 28 
3 29 705 706 
3 705 129 329 
3 706 329 131 
3 129 707 327 
3 707 8 708 
3 327 708 130 
3 131 328 710 
3 328 130 709 
3 710 709 25 
3 30 711 712 
3 711 132 332 
3 712 332 134 
3 132 713 330 
3 713 2 714 
3 330 714 133 
3 134 331 716 
3 331 133 715 
3 716 715 31 
3 32 717 718 
3 717 135 335 
3 718 335 137 
3 135 719 333 
3 719 12 720 
3 333 720 136 
3 137 334 722 
3 334 136 721 
3 722 721 27 
3 33 723 724 
3 723 138 338 
3 724 338 140 
3 138 725 336 
3 725 34 726 
3 336 726 139 
3 140 337 728 
3 337 139 727 
3 728 727 32 
3 35 729 730 
3 729 141 341 
3 730 341 143 
3 141 731 339 
3 731 36 732 
3 339 732 142 
3 143 340 734 
3 340 142 733 
3 734 733 33 
3 37 735 736 
3 735 144 344 
3 736 344 146 
3 144 737 342 
3 737 38 738 
3 342 738 145 
3 146 343 740 
3 343 145 739 
3 740 739 35 
3 31 741 742 
3 741 147 347 
3 742 347 149 
3 147 743 345 
3 743 39 744 
3 345 744 148 
3 149 346 746 
3 346 148 745 
3 746 745 37 
3 40 747 748 
3 747 150 350 
3 748 350 152 
3 150 749 348 
3 749 41 750 
3 348 750 151 
3 152 349 752 
3 349 151 751 
3 752 751 42 
3 43 753 754 
3 753 153 353 
3 754 353 155 
3 153 755 351 
3 755 44 756 
3 351 756 154 
3 155 352 758 
3 352 154 757 
3 758 757 40 
3 45 759 760 
3 759 156 356 
3 760 356 158 
3 156 761 354 
3 761 46 762 
3 354 762 157 
3 158 355 764 
3 355 157 763 
3 764 763 43 
3 47 765 766 
3 765 159 359 
3 766 359 161 
3 159 767 357 
3 767 48 768 
3 357 768 160 
3 161 358 770 
3 358 160 769 
3 770 769 45 
3 28 771 772 
3 771 162 362 
3 772 362 164 
3 162 773 360 
3 773 49 774 
3 360 774 163 
3 164 361 776 
3 361 163 775 
3 776 775 47 
3 13 777 778 
3 777 165 365 
3 778 365 167 
3 165 779 363 
3 779 50 780 
3 363 780 166 
3 167 364 782 
3 364 166 781 
3 782 781 20 
3 51 783 784 
3 783 168 368 
3 784 368 170 
3 168 785 366 
3 785 52 786 
3 366 786 169 
3 170 367 788 
3 367 169 787 
3 788 787 50 
3 52 789 790 
3 789 171 371 
3 790 371 173 
3 171 791 369 
3 791 53 792 
3 369 792 172 
3 173 370 794 
3 370 172 793 
3 794 793 54 
3 53 795 792 
3 795 174 374 
3 792 374 172 
3 174 796 372 
3 796 55 797 
3 372 797 175 
3 172 373 793 
3 373 175 798 
3 793 798 54 
3 56 799 800 
3 799 176 377 
3 800 377 178 
3 176 801 375 
3 801 24 802 
3 375 802 177 
3 178 376 804 
3 376 177 803 
3 804 803 55 
3 7 805 806 
3 805 179 380 
3 806 380 181 
3 179 807 378 
3 807 57 808 
3 378 808 180 
3 181 379 810 
3 379 180 809 
3 810 809 21 
3 58 811 812 
3 811 182 383 
3 812 383 184 
3 182 813 381 
3 813 59 814 
3 381 814 183 
3 184 382 816 
3 382 183 815 
3 816 815 57 
3 60 817 818 
3 817 185 386 
3 818 386 187 
3 185 819 384 
3 819 61 820 
3 384 820 186 
3 187 385 822 
3 385 186 821 
3 822 821 59 
3 61 823 824 
3 823 188 389 
3 824 389 190 
3 188 825 387 
3 825 62 826 
3 387 826 189 
3 190 388 828 
3 388 189 827 
3 828 827 63 
3 62 829 826 
3 829 191 392 
3 826 392 189 
3 191 830 390 
3 830 19 831 
3 390 831 192 
3 189 391 827 
3 391 192 832 
3 827 832 63 
3 64 833 834 
3 833 193 395 
3 834 395 195 
3 193 835 393 
3 835 58 836 
3 393 836 194 
3 195 394 838 
3 394 194 837 
3 838 837 7 
3 65 839 840 
3 839 196 398 
3 840 398 198 
3 196 841 396 
3 841 60 842 
3 396 842 197 
3 198 397 844 
3 397 197 843 
3 844 843 58 
3 66 845 846 
3 845 199 401 
3 846 401 201 
3 199 847 399 
3 847 67 848 
3 399 848 200 
3 201 400 850 
3 400 200 849 
3 850 849 60 
3 68 851 852 
3 851 202 404 
3 852 404 204 
3 202 853 402 
3 853 62 854 
3 402 854 203 
3 204 403 856 
3 403 203 855 
3 856 855 67 
3 69 857 858 
3 857 205 407 
3 858 407 207 
3 205 859 405 
3 859 17 860 
3 405 860 206 
3 207 406 862 
3 406 206 861 
3 862 861 62 
3 44 863 864 
3 863 208 410 
3 864 410 210 
3 208 865 408 
3 865 70 866 
3 408 866 209 
3 210 409 868 
3 409 209 867 
3 868 867 41 
3 46 869 870 
3 869 211 413 
3 870 413 213 
3 211 871 411 
3 871 71 872 
3 411 872 212 
3 213 412 874 
3 412 212 873 
3 874 873 44 
3 48 875 876 
3 875 214 416 
3 876 416 216 
3 214 877 414 
3 877 72 878 
3 414 878 215 
3 216 415 880 
3 415 215 879 
3 880 879 46 
3 49 881 882 
3 881 217 419 
3 882 419 219 
3 217 883 417 
3 883 73 884 
3 417 884 218 
3 219 418 886 
3 418 218 885 
3 886 885 48 
3 11 887 888 
3 887 220 422 
3 888 422 222 
3 220 889 420 
3 889 74 890 
3 420 890 221 
3 222 421 892 
3 421 221 891 
3 892 891 49 
3 75 893 894 
3 893 223 425 
3 894 425 225 
3 223 895 423 
3 895 51 896 
3 423 896 224 
3 225 424 898 
3 424 224 897 
3 898 897 13 
3 76 899 900 
3 899 226 428 
3 900 428 228 
3 226 901 426 
3 901 77 902 
3 426 902 227 
3 228 427 904 
3 427 227 903 
3 904 903 51 
3 78 905 906 
3 905 229 431 
3 906 431 231 
3 229 907 429 
3 907 53 908 
3 429 908 230 
3 231 430 910 
3 430 230 909 
3 910 909 77 
3 79 911 912 
3 911 232 434 
3 912 434 234 
3 232 913 432 
3 913 56 914 
3 432 914 233 
3 234 433 916 
3 433 233 915 
3 916 915 53 
3 80 917 918 
3 917 235 437 
3 918 437 237 
3 235 919 435 
3 919 5 920 
3 435 920 236 
3 237 436 922 
3 436 236 921 
3 922 921 56 
3 34 923 924 
3 923 238 440 
3 924 440 240 
3 238 925 438 
3 925 75 926 
3 438 926 239 
3 240 439 928 
3 439 239 927 
3 928 927 12 
3 36 929 930 
3 929 241 443 
3 930 443 243 
3 241 931 441 
3 931 81 932 
3 441 932 242 
3 243 442 934 
3 442 242 933 
3 934 933 34 
3 38 935 936 
3 935 244 446 
3 936 446 246 
3 244 937 444 
3 937 82 938 
3 444 938 245 
3 246 445 940 
3 445 245 939 
3 940 939 36 
3 39 941 942 
3 941 247 449 
3 942 449 249 
3 247 943 447 
3 943 83 944 
3 447 944 248 
3 249 448 946 
3 448 248 945 
3 946 945 38 
3 2 947 948 
3 947 250 452 
3 948 452 252 
3 250 949 450 
3 949 84 950 
3 450 950 251 
3 252 451 952 
3 451 251 951 
3 952 951 39 
3 0 953 621 
3 953 253 455 
3 621 455 87 
3 253 954 453 
3 954 85 955 
3 453 955 254 
3 87 454 623 
3 454 254 956 
3 623 956 1 
3 3 957 627 
3 957 255 458 
3 627 458 90 
3 255 958 456 
3 958 86 959 
3 456 959 256 
3 90 457 629 
3 457 256 960 
3 629 960 4 
3 6 961 633 
3 961 257 461 
3 633 461 93 
3 257 962 459 
3 962 64 834 
3 459 834 195 
3 93 460 635 
3 460 195 838 
3 635 838 7 
3 9 667 639 
3 667 109 464 
3 639 464 96 
3 109 666 462 
3 666 20 963 
3 462 963 258 
3 96 463 641 
3 463 258 964 
3 641 964 10 
3 12 927 645 
3 927 239 467 
3 645 467 99 
3 239 926 465 
3 926 75 894 
3 465 894 225 
3 99 466 647 
3 466 225 898 
3 647 898 13 
3 15 965 651 
3 965 259 470 
3 651 470 102 
3 259 966 468 
3 966 27 694 
3 468 694 125 
3 102 469 653 
3 469 125 698 
3 653 698 16 
3 17 655 657 
3 655 103 473 
3 657 473 105 
3 103 654 471 
3 654 16 688 
3 471 688 122 
3 105 472 659 
3 472 122 692 
3 659 692 18 
3 14 649 663 
3 649 100 476 
3 663 476 108 
3 100 648 474 
3 648 13 778 
3 474 778 167 
3 108 475 665 
3 475 167 782 
3 665 782 20 
3 8 637 669 
3 637 94 479 
3 669 479 111 
3 94 636 477 
3 636 7 806 
3 477 806 181 
3 111 478 671 
3 478 181 810 
3 671 810 21 
3 5 631 675 
3 631 91 482 
3 675 482 114 
3 91 630 480 
3 630 4 967 
3 480 967 260 
3 114 481 677 
3 481 260 968 
3 677 968 23 
3 25 709 681 
3 709 130 485 
3 681 485 117 
3 130 708 483 
3 708 8 670 
3 483 670 113 
3 117 484 683 
3 484 113 674 
3 683 674 22 
3 16 697 687 
3 697 124 488 
3 687 488 120 
3 124 696 486 
3 696 14 664 
3 486 664 110 
3 120 487 689 
3 487 110 668 
3 689 668 9 
3 27 721 693 
3 721 136 491 
3 693 491 123 
3 136 720 489 
3 720 12 646 
3 489 646 101 
3 123 490 695 
3 490 101 650 
3 695 650 14 
3 18 691 699 
3 691 121 494 
3 699 494 126 
3 121 690 492 
3 690 9 640 
3 492 640 98 
3 126 493 701 
3 493 98 644 
3 701 644 11 
3 29 969 705 
3 969 261 497 
3 705 497 129 
3 261 970 495 
3 970 6 634 
3 495 634 95 
3 129 496 707 
3 496 95 638 
3 707 638 8 
3 30 971 711 
3 971 262 500 
3 711 500 132 
3 262 972 498 
3 972 0 622 
3 498 622 89 
3 132 499 713 
3 499 89 626 
3 713 626 2 
3 32 727 717 
3 727 139 503 
3 717 503 135 
3 139 726 501 
3 726 34 924 
3 501 924 240 
3 135 502 719 
3 502 240 928 
3 719 928 12 
3 33 733 723 
3 733 142 506 
3 723 506 138 
3 142 732 504 
3 732 36 930 
3 504 930 243 
3 138 505 725 
3 505 243 934 
3 725 934 34 
3 35 739 729 
3 739 145 509 
3 729 509 141 
3 145 738 507 
3 738 38 936 
3 507 936 246 
3 141 508 731 
3 508 246 940 
3 731 940 36 
3 37 745 735 
3 745 148 512 
3 735 512 144 
3 148 744 510 
3 744 39 942 
3 510 942 249 
3 144 511 737 
3 511 249 946 
3 737 946 38 
3 31 715 741 
3 715 133 515 
3 741 515 147 
3 133 714 513 
3 714 2 948 
3 513 948 252 
3 147 514 743 
3 514 252 952 
3 743 952 39 
3 40 757 747 
3 757 154 518 
3 747 518 150 
3 154 756 516 
3 756 44 864 
3 516 864 210 
3 150 517 749 
3 517 210 868 
3 749 868 41 
3 43 763 753 
3 763 157 521 
3 753 521 153 
3 157 762 519 
3 762 46 870 
3 519 870 213 
3 153 520 755 
3 520 213 874 
3 755 874 44 
3 45 769 759 
3 769 160 524 
3 759 524 156 
3 160 768 522 
3 768 48 876 
3 522 876 216 
3 156 523 761 
3 523 216 880 
3 761 880 46 
3 47 775 765 
3 775 163 527 
3 765 527 159 
3 163 774 525 
3 774 49 882 
3 525 882 219 
3 159 526 767 
3 526 219 886 
3 767 886 48 
3 28 703 771 
3 703 127 530 
3 771 530 162 
3 127 702 528 
3 702 11 888 
3 528 888 222 
3 162 529 773 
3 529 222 892 
3 773 892 49 
3 13 897 777 
3 897 224 533 
3 777 533 165 
3 224 896 531 
3 896 51 784 
3 531 784 170 
3 165 532 779 
3 532 170 788 
3 779 788 50 
3 51 903 783 
3 903 227 536 
3 783 536 168 
3 227 902 534 
3 902 77 973 
3 534 973 263 
3 168 535 785 
3 535 263 974 
3 785 974 52 
3 52 974 789 
3 974 263 539 
3 789 539 171 
3 263 973 537 
3 973 77 909 
3 537 909 230 
3 171 538 791 
3 538 230 908 
3 791 908 53 
3 53 915 795 
3 915 233 542 
3 795 542 174 
3 233 914 540 
3 914 56 800 
3 540 800 178 
3 174 541 796 
3 541 178 804 
3 796 804 55 
3 56 921 799 
3 921 236 545 
3 799 545 176 
3 236 920 543 
3 920 5 676 
3 543 676 116 
3 176 544 801 
3 544 116 680 
3 801 680 24 
3 7 837 805 
3 837 194 548 
3 805 548 179 
3 194 836 546 
3 836 58 812 
3 546 812 184 
3 179 547 807 
3 547 184 816 
3 807 816 57 
3 58 843 811 
3 843 197 551 
3 811 551 182 
3 197 842 549 
3 842 60 818 
3 549 818 187 
3 182 550 813 
3 550 187 822 
3 813 822 59 
3 60 849 817 
3 849 200 554 
3 817 554 185 
3 200 848 552 
3 848 67 975 
3 552 975 264 
3 185 553 819 
3 553 264 976 
3 819 976 61 
3 61 976 823 
3 976 264 557 
3 823 557 188 
3 264 975 555 
3 975 67 855 
3 555 855 203 
3 188 556 825 
3 556 203 854 
3 825 854 62 
3 62 861 829 
3 861 206 560 
3 829 560 191 
3 206 860 558 
3 860 17 658 
3 558 658 107 
3 191 559 830 
3 559 107 662 
3 830 662 19 
3 64 977 833 
3 977 265 563 
3 833 563 193 
3 265 978 561 
3 978 65 840 
3 561 840 198 
3 193 562 835 
3 562 198 844 
3 835 844 58 
3 65 979 839 
3 979 266 566 
3 839 566 196 
3 266 980 564 
3 980 66 846 
3 564 846 201 
3 196 565 841 
3 565 201 850 
3 841 850 60 
3 66 981 845 
3 981 267 569 
3 845 569 199 
3 267 982 567 
3 982 68 852 
3 567 852 204 
3 199 568 847 
3 568 204 856 
3 847 856 67 
3 68 983 851 
3 983 268 572 
3 851 572 202 
3 268 984 570 
3 984 69 858 
3 570 858 207 
3 202 571 853 
3 571 207 862 
3 853 862 62 
3 69 985 857 
3 985 269 575 
3 857 575 205 
3 269 986 573 
3 986 15 652 
3 573 652 104 
3 205 574 859 
3 574 104 656 
3 859 656 17 
3 44 873 863 
3 873 212 578 
3 863 578 208 
3 212 872 576 
3 872 71 987 
3 576 987 270 
3 208 577 865 
3 577 270 988 
3 865 988 70 
3 46 879 869 
3 879 215 581 
3 869 581 211 
3 215 878 579 
3 878 72 989 
3 579 989 271 
3 211 580 871 
3 580 271 990 
3 871 990 71 
3 48 885 875 
3 885 218 584 
3 875 584 214 
3 218 884 582 
3 884 73 991 
3 582 991 272 
3 214 583 877 
3 583 272 992 
3 877 992 72 
3 49 891 881 
3 891 221 587 
3 881 587 217 
3 221 890 585 
3 890 74 993 
3 585 993 273 
3 217 586 883 
3 586 273 994 
3 883 994 73 
3 11 643 887 
3 643 97 590 
3 887 590 220 
3 97 642 588 
3 642 10 995 
3 588 995 274 
3 220 589 889 
3 589 274 996 
3 889 996 74 
3 75 997 893 
3 997 275 593 
3 893 593 223 
3 275 998 591 
3 998 76 900 
3 591 900 228 
3 223 592 895 
3 592 228 904 
3 895 904 51 
3 76 999 899 
3 999 276 596 
3 899 596 226 
3 276 1000 594 
3 1000 78 906 
3 594 906 231 
3 226 595 901 
3 595 231 910 
3 901 910 77 
3 78 1001 905 
3 1001 277 599 
3 905 599 229 
3 277 1002 597 
3 1002 79 912 
3 597 912 234 
3 229 598 907 
3 598 234 916 
3 907 916 53 
3 79 1003 911 
3 1003 278 602 
3 911 602 232 
3 278 1004 600 
3 1004 80 918 
3 600 918 237 
3 232 601 913 
3 601 237 922 
3 913 922 56 
3 80 1005 917 
3 1005 279 605 
3 917 605 235 
3 279 1006 603 
3 1006 3 628 
3 603 628 92 
3 235 604 919 
3 604 92 632 
3 919 632 5 
3 34 933 923 
3 933 242 608 
3 923 608 238 
3 242 932 606 
3 932 81 1007 
3 606 1007 280 
3 238 607 925 
3 607 280 1008 
3 925 1008 75 
3 36 939 929 
3 939 245 611 
3 929 611 241 
3 245 938 609 
3 938 82 1009 
3 609 1009 281 
3 241 610 931 
3 610 281 1010 
3 931 1010 81 
3 38 945 935 
3 945 248 614 
3 935 614 244 
3 248 944 612 
3 944 83 1011 
3 612 1011 282 
3 244 613 937 
3 613 282 1012 
3 937 1012 82 
3 39 951 941 
3 951 251 617 
3 941 617 247 
3 251 950 615 
3 950 84 1013 
3 615 1013 283 
3 247 616 943 
3 616 283 1014 
3 943 1014 83 
3 2 625 947 
3 625 88 620 
3 947 620 250 
3 88 624 618 
3 624 1 1015 
3 618 1015 284 
3 250 619 949 
3 619 284 1016 
3 949 1016 84 
