ply
format ascii 1.0
comment Created by Blender 3.1.2 - www.blender.org
element vertex 87
property float x
property float y
property float z
property float nx
property float ny
property float nz
property float s
property float t
element face 112
property list uchar uint vertex_indices
end_header
-1.000000 0.019163 1.000000 -0.707107 0.000000 0.707107 0.875000 0.622605
0.395894 -1.000000 1.000000 0.000000 -0.707107 0.707107 0.833333 0.750000
0.395894 0.019163 1.000000 0.000000 0.000000 1.000000 0.833333 0.622605
0.395894 -1.000000 1.000000 0.000000 -0.707107 0.707107 0.625000 0.958333
-1.000000 -1.000000 0.000000 -0.707107 -0.707107 0.000000 0.500000 1.000000
0.395894 -1.000000 0.000000 0.000000 -1.000000 0.000000 0.500000 0.958333
-1.000000 0.019163 1.000000 -0.707107 0.000000 0.707107 0.625000 0.127395
-1.000000 1.000000 0.000000 -0.707107 0.707107 0.000000 0.500000 0.250000
-1.000000 0.019163 0.000000 -1.000000 0.000000 0.000000 0.500000 0.127395
7.375365 0.019163 -1.000000 0.707107 0.000000 -0.707107 0.375000 0.622605
5.979471 -1.000000 -1.000000 0.000000 -0.707107 -0.707107 0.333333 0.750000
5.979471 0.019163 -1.000000 0.000000 0.000000 -1.000000 0.333333 0.622605
7.375365 0.019163 1.000000 0.707107 0.000000 0.707107 0.625000 0.622605
7.375365 -1.000000 0.000000 0.707107 -0.707107 0.000000 0.500000 0.750000
7.375365 0.019163 0.000000 1.000000 0.000000 0.000000 0.500000 0.622605
5.979471 1.000000 1.000000 0.000000 0.707107 0.707107 0.625000 0.458333
7.375365 1.000000 0.000000 0.707107 0.707107 0.000000 0.500000 0.500000
5.979471 1.000000 0.000000 0.000000 1.000000 0.000000 0.500000 0.458333
7.375365 1.000000 -1.000000 0.577350 0.577350 -0.577350 0.375000 0.500000
5.979471 1.000000 -1.000000 0.000000 0.707107 -0.707107 0.375000 0.458333
7.375365 -1.000000 -1.000000 0.577350 -0.577350 -0.577350 0.375000 0.750000
-1.000000 1.000000 -1.000000 -0.577350 0.577350 -0.577350 0.375000 0.250000
-1.000000 0.019163 -1.000000 -0.707107 0.000000 -0.707107 0.375000 0.127395
-1.000000 -1.000000 -1.000000 -0.577350 -0.577350 -0.577350 0.375000 1.000000
0.395894 -1.000000 -1.000000 0.000000 -0.707107 -0.707107 0.375000 0.958333
-1.000000 -1.000000 0.000000 -0.707107 -0.707107 0.000000 0.500000 0.000000
-1.000000 -1.000000 -1.000000 -0.577350 -0.577350 -0.577350 0.375000 0.000000
7.375365 1.000000 1.000000 0.577350 0.577350 0.577350 0.625000 0.500000
5.979471 1.000000 -1.000000 0.000000 0.707107 -0.707107 0.333333 0.500000
-1.000000 -1.000000 1.000000 -0.577350 -0.577350 0.577350 0.625000 0.000000
-1.000000 1.000000 1.000000 -0.577350 0.577350 0.577350 0.875000 0.500000
0.395894 1.000000 1.000000 0.000000 0.707107 0.707107 0.833333 0.500000
5.979471 1.000000 1.000000 0.000000 0.707107 0.707107 0.666667 0.500000
4.583577 1.000000 1.000000 0.000000 0.707107 0.707107 0.708333 0.500000
5.979471 0.019163 1.000000 0.000000 0.000000 1.000000 0.666667 0.622605
3.187683 1.000000 1.000000 0.000000 0.707107 0.707107 0.750000 0.500000
4.583577 0.019163 1.000000 0.000000 0.000000 1.000000 0.708333 0.622605
1.791789 1.000000 1.000000 0.000000 0.707107 0.707107 0.791667 0.500000
3.187683 0.019163 1.000000 0.000000 0.000000 1.000000 0.750000 0.622605
1.791789 0.019163 1.000000 0.000000 0.000000 1.000000 0.791667 0.622605
0.395894 1.000000 -1.000000 0.000000 0.707107 -0.707107 0.166667 0.500000
-1.000000 0.019163 -1.000000 -0.707107 0.000000 -0.707107 0.125000 0.622605
-1.000000 1.000000 -1.000000 -0.577350 0.577350 -0.577350 0.125000 0.500000
1.791788 1.000000 -1.000000 0.000000 0.707107 -0.707107 0.208333 0.500000
0.395894 0.019163 -1.000000 0.000000 0.000000 -1.000000 0.166667 0.622605
3.187683 1.000000 -1.000000 0.000000 0.707107 -0.707107 0.250000 0.500000
1.791788 0.019163 -1.000000 0.000000 0.000000 -1.000000 0.208333 0.622605
4.583577 1.000000 -1.000000 0.000000 0.707107 -0.707107 0.291667 0.500000
3.187683 0.019163 -1.000000 0.000000 0.000000 -1.000000 0.250000 0.622605
4.583577 0.019163 -1.000000 0.000000 0.000000 -1.000000 0.291667 0.622605
5.979471 -1.000000 -1.000000 0.000000 -0.707107 -0.707107 0.375000 0.791667
5.979471 -1.000000 0.000000 0.000000 -1.000000 0.000000 0.500000 0.791667
4.583577 -1.000000 -1.000000 0.000000 -0.707107 -0.707107 0.375000 0.833333
3.187683 -1.000000 0.000000 0.000000 -1.000000 0.000000 0.500000 0.875000
3.187683 -1.000000 -1.000000 0.000000 -0.707107 -0.707107 0.375000 0.875000
1.791789 -1.000000 -1.000000 0.000000 -0.707107 -0.707107 0.375000 0.916667
1.791788 -1.000000 0.000000 0.000000 -1.000000 0.000000 0.500000 0.916667
0.395894 1.000000 -1.000000 0.000000 0.707107 -0.707107 0.375000 0.291667
0.395894 1.000000 0.000000 0.000000 1.000000 0.000000 0.500000 0.291667
1.791788 1.000000 -1.000000 0.000000 0.707107 -0.707107 0.375000 0.333333
1.791789 1.000000 0.000000 0.000000 1.000000 0.000000 0.500000 0.333333
3.187683 1.000000 -1.000000 0.000000 0.707107 -0.707107 0.375000 0.375000
4.583577 1.000000 0.000000 0.000000 1.000000 0.000000 0.500000 0.416667
4.583577 1.000000 -1.000000 0.000000 0.707107 -0.707107 0.375000 0.416667
-1.000000 1.000000 1.000000 -0.577350 0.577350 0.577350 0.625000 0.250000
0.395894 1.000000 1.000000 0.000000 0.707107 0.707107 0.625000 0.291667
1.791789 1.000000 1.000000 0.000000 0.707107 0.707107 0.625000 0.333333
3.187683 1.000000 0.000000 0.000000 1.000000 0.000000 0.500000 0.375000
3.187683 1.000000 1.000000 0.000000 0.707107 0.707107 0.625000 0.375000
4.583577 1.000000 1.000000 0.000000 0.707107 0.707107 0.625000 0.416667
-1.000000 -1.000000 -1.000000 -0.577350 -0.577350 -0.577350 0.125000 0.750000
0.395894 -1.000000 -1.000000 0.000000 -0.707107 -0.707107 0.166667 0.750000
1.791789 -1.000000 -1.000000 0.000000 -0.707107 -0.707107 0.208333 0.750000
3.187683 -1.000000 -1.000000 0.000000 -0.707107 -0.707107 0.250000 0.750000
4.583577 -1.000000 -1.000000 0.000000 -0.707107 -0.707107 0.291667 0.750000
7.375365 -1.000000 1.000000 0.577350 -0.577350 0.577350 0.625000 0.750000
5.979471 -1.000000 1.000000 0.000000 -0.707107 0.707107 0.625000 0.791667
4.583577 -1.000000 0.000000 0.000000 -1.000000 0.000000 0.500000 0.833333
4.583577 -1.000000 1.000000 0.000000 -0.707107 0.707107 0.625000 0.833333
3.187683 -1.000000 1.000000 0.000000 -0.707107 0.707107 0.625000 0.875000
1.791788 -1.000000 1.000000 0.000000 -0.707107 0.707107 0.625000 0.916667
5.979471 -1.000000 1.000000 0.000000 -0.707107 0.707107 0.666667 0.750000
4.583577 -1.000000 1.000000 0.000000 -0.707107 0.707107 0.708333 0.750000
3.187683 -1.000000 1.000000 0.000000 -0.707107 0.707107 0.750000 0.750000
1.791788 -1.000000 1.000000 0.000000 -0.707107 0.707107 0.791667 0.750000
-1.000000 -1.000000 1.000000 -0.577350 -0.577350 0.577350 0.875000 0.750000
-1.000000 -1.000000 1.000000 -0.577350 -0.577350 0.577350 0.625000 1.000000
3 0 1 2
3 3 4 5
3 6 7 8
3 9 10 11
3 12 13 14
3 15 16 17
3 17 18 19
3 14 20 9
3 8 21 22
3 5 23 24
3 25 22 26
3 16 9 18
3 27 14 16
3 18 11 28
3 29 8 25
3 30 2 31
3 32 12 27
3 33 34 32
3 35 36 33
3 37 38 35
3 31 39 37
3 40 41 42
3 43 44 40
3 45 46 43
3 47 48 45
3 28 49 47
3 13 50 20
3 51 52 50
3 52 53 54
3 53 55 54
3 56 24 55
3 7 57 21
3 58 59 57
3 60 61 59
3 61 62 63
3 62 19 63
3 64 58 7
3 65 60 58
3 66 67 60
3 68 62 67
3 69 17 62
3 44 70 41
3 46 71 44
3 48 72 46
3 49 73 48
3 11 74 49
3 75 51 13
3 76 77 51
3 78 53 77
3 79 56 53
3 80 5 56
3 34 75 12
3 36 81 34
3 38 82 36
3 39 83 38
3 2 84 39
3 0 85 1
3 3 86 4
3 6 64 7
3 9 20 10
3 12 75 13
3 15 27 16
3 17 16 18
3 14 13 20
3 8 7 21
3 5 4 23
3 25 8 22
3 16 14 9
3 27 12 14
3 18 9 11
3 29 6 8
3 30 0 2
3 32 34 12
3 33 36 34
3 35 38 36
3 37 39 38
3 31 2 39
3 40 44 41
3 43 46 44
3 45 48 46
3 47 49 48
3 28 11 49
3 13 51 50
3 51 77 52
3 52 77 53
3 53 56 55
3 56 5 24
3 7 58 57
3 58 60 59
3 60 67 61
3 61 67 62
3 62 17 19
3 64 65 58
3 65 66 60
3 66 68 67
3 68 69 62
3 69 15 17
3 44 71 70
3 46 72 71
3 48 73 72
3 49 74 73
3 11 10 74
3 75 76 51
3 76 78 77
3 78 79 53
3 79 80 56
3 80 3 5
3 34 81 75
3 36 82 81
3 38 83 82
3 39 84 83
3 2 1 84
